<?xml version="1.0" encoding="UTF-8"?>
<svg xmlns="http://www.w3.org/2000/svg" xmlns:xlink="http://www.w3.org/1999/xlink" width="30px" height="30px" viewBox="0 0 30 30" version="1.1">
<g id="surface1">
<path style=" stroke:none;fill-rule:nonzero;fill:rgb(100%,100%,100%);fill-opacity:1;" d="M 28.753906 26.980469 L 29.035156 26.980469 L 28.492188 26.15625 C 28.824219 26.15625 29 25.945312 29.003906 25.6875 C 29.003906 25.675781 29.003906 25.667969 29.003906 25.65625 C 29.003906 25.304688 28.789062 25.136719 28.355469 25.136719 L 27.648438 25.136719 L 27.648438 26.980469 L 27.914062 26.980469 L 27.914062 26.175781 L 28.238281 26.175781 Z M 28.222656 25.96875 L 27.914062 25.96875 L 27.914062 25.34375 L 28.304688 25.34375 C 28.503906 25.34375 28.734375 25.375 28.734375 25.640625 C 28.734375 25.941406 28.503906 25.96875 28.21875 25.96875 "/>
<path style=" stroke:none;fill-rule:nonzero;fill:rgb(100%,100%,100%);fill-opacity:1;" d="M 21.613281 23.839844 L 17.855469 23.839844 L 17.855469 17.953125 C 17.855469 16.550781 17.828125 14.746094 15.898438 14.746094 C 13.941406 14.746094 13.640625 16.273438 13.640625 17.855469 L 13.640625 23.839844 L 9.886719 23.839844 L 9.886719 11.734375 L 13.492188 11.734375 L 13.492188 13.390625 L 13.542969 13.390625 C 14.28125 12.132812 15.648438 11.382812 17.105469 11.433594 C 20.914062 11.433594 21.613281 13.941406 21.613281 17.199219 Z M 5.644531 10.082031 C 4.4375 10.082031 3.460938 9.105469 3.460938 7.898438 C 3.460938 6.695312 4.4375 5.71875 5.644531 5.71875 C 6.847656 5.71875 7.824219 6.695312 7.824219 7.898438 C 7.824219 9.105469 6.847656 10.082031 5.644531 10.082031 M 7.523438 23.839844 L 3.761719 23.839844 L 3.761719 11.734375 L 7.523438 11.734375 Z M 23.488281 2.230469 L 1.871094 2.230469 C 0.851562 2.21875 0.0117188 3.035156 0 4.058594 L 0 25.761719 C 0.0117188 26.785156 0.851562 27.605469 1.871094 27.59375 L 23.488281 27.59375 C 24.511719 27.605469 25.351562 26.785156 25.367188 25.761719 L 25.367188 4.054688 C 25.351562 3.03125 24.511719 2.214844 23.488281 2.226562 "/>
<path style=" stroke:none;fill-rule:nonzero;fill:rgb(100%,100%,100%);fill-opacity:1;" d="M 28.253906 24.3125 C 27.296875 24.324219 26.53125 25.105469 26.542969 26.058594 C 26.550781 27.015625 27.332031 27.78125 28.289062 27.773438 C 29.242188 27.765625 30.011719 26.980469 30 26.027344 C 29.992188 25.082031 29.230469 24.324219 28.289062 24.3125 L 28.253906 24.3125 M 28.292969 27.574219 C 27.457031 27.585938 26.726562 26.921875 26.710938 26.082031 C 26.699219 25.246094 27.367188 24.554688 28.203125 24.542969 C 29.042969 24.527344 29.730469 25.195312 29.746094 26.035156 C 29.746094 26.042969 29.746094 26.050781 29.746094 26.058594 C 29.761719 26.878906 29.113281 27.554688 28.292969 27.574219 L 28.253906 27.574219 "/>
</g>
</svg>
