<?xml version="1.0" encoding="UTF-8"?>
<svg xmlns="http://www.w3.org/2000/svg" xmlns:xlink="http://www.w3.org/1999/xlink" width="30px" height="30px" viewBox="0 0 30 30" version="1.1">
<g id="surface1">
<path style=" stroke:none;fill-rule:evenodd;fill:rgb(92.941176%,92.941176%,92.941176%);fill-opacity:1;" d="M 15 0.371094 C 6.714844 0.371094 0 7.085938 0 15.371094 C 0 21.996094 4.296875 27.621094 10.257812 29.605469 C 11.007812 29.742188 11.28125 29.277344 11.28125 28.882812 C 11.28125 28.523438 11.269531 27.34375 11.261719 26.089844 C 7.089844 26.996094 6.207031 24.320312 6.207031 24.320312 C 5.527344 22.585938 4.542969 22.125 4.542969 22.125 C 3.183594 21.195312 4.644531 21.214844 4.644531 21.214844 C 6.152344 21.320312 6.945312 22.761719 6.945312 22.761719 C 8.28125 25.050781 10.453125 24.390625 11.308594 24.007812 C 11.445312 23.035156 11.832031 22.375 12.261719 22 C 8.929688 21.621094 5.429688 20.335938 5.429688 14.585938 C 5.429688 12.949219 6.015625 11.609375 6.976562 10.5625 C 6.820312 10.183594 6.304688 8.65625 7.121094 6.589844 C 7.121094 6.589844 8.378906 6.1875 11.246094 8.128906 C 12.441406 7.796875 13.726562 7.628906 15 7.625 C 16.273438 7.628906 17.558594 7.796875 18.757812 8.128906 C 21.621094 6.1875 22.878906 6.589844 22.878906 6.589844 C 23.695312 8.65625 23.179688 10.183594 23.027344 10.5625 C 23.988281 11.609375 24.570312 12.949219 24.570312 14.585938 C 24.570312 20.347656 21.0625 21.617188 17.722656 21.988281 C 18.257812 22.453125 18.738281 23.367188 18.738281 24.765625 C 18.738281 26.773438 18.722656 28.390625 18.722656 28.882812 C 18.722656 29.28125 18.992188 29.75 19.75 29.601562 C 25.707031 27.617188 30 21.996094 30 15.371094 C 30 7.085938 23.285156 0.371094 15 0.371094 Z M 15 0.371094 "/>
<path style=" stroke:none;fill-rule:nonzero;fill:rgb(92.941176%,92.941176%,92.941176%);fill-opacity:1;" d="M 5.679688 21.90625 C 5.648438 21.984375 5.53125 22.003906 5.421875 21.953125 C 5.316406 21.90625 5.253906 21.800781 5.289062 21.730469 C 5.320312 21.652344 5.4375 21.632812 5.546875 21.683594 C 5.65625 21.730469 5.71875 21.832031 5.679688 21.90625 Z M 5.679688 21.90625 "/>
<path style=" stroke:none;fill-rule:nonzero;fill:rgb(92.941176%,92.941176%,92.941176%);fill-opacity:1;" d="M 6.289062 22.585938 C 6.21875 22.652344 6.078125 22.621094 5.984375 22.515625 C 5.882812 22.410156 5.867188 22.269531 5.9375 22.203125 C 6.011719 22.140625 6.148438 22.171875 6.246094 22.273438 C 6.34375 22.378906 6.363281 22.515625 6.289062 22.585938 Z M 6.289062 22.585938 "/>
<path style=" stroke:none;fill-rule:nonzero;fill:rgb(92.941176%,92.941176%,92.941176%);fill-opacity:1;" d="M 6.878906 23.449219 C 6.789062 23.511719 6.636719 23.453125 6.546875 23.320312 C 6.453125 23.1875 6.453125 23.027344 6.546875 22.960938 C 6.640625 22.898438 6.789062 22.957031 6.882812 23.089844 C 6.972656 23.222656 6.972656 23.382812 6.878906 23.449219 Z M 6.878906 23.449219 "/>
<path style=" stroke:none;fill-rule:nonzero;fill:rgb(92.941176%,92.941176%,92.941176%);fill-opacity:1;" d="M 7.691406 24.285156 C 7.609375 24.375 7.433594 24.351562 7.304688 24.226562 C 7.171875 24.105469 7.136719 23.933594 7.21875 23.84375 C 7.304688 23.75 7.480469 23.777344 7.609375 23.898438 C 7.738281 24.019531 7.777344 24.195312 7.691406 24.285156 Z M 7.691406 24.285156 "/>
<path style=" stroke:none;fill-rule:nonzero;fill:rgb(92.941176%,92.941176%,92.941176%);fill-opacity:1;" d="M 8.808594 24.765625 C 8.773438 24.886719 8.605469 24.9375 8.433594 24.890625 C 8.265625 24.835938 8.152344 24.699219 8.1875 24.582031 C 8.222656 24.460938 8.390625 24.40625 8.5625 24.460938 C 8.734375 24.511719 8.84375 24.648438 8.808594 24.765625 Z M 8.808594 24.765625 "/>
<path style=" stroke:none;fill-rule:nonzero;fill:rgb(92.941176%,92.941176%,92.941176%);fill-opacity:1;" d="M 10.035156 24.859375 C 10.039062 24.980469 9.894531 25.082031 9.71875 25.085938 C 9.539062 25.089844 9.390625 24.988281 9.390625 24.867188 C 9.390625 24.742188 9.53125 24.640625 9.710938 24.640625 C 9.890625 24.636719 10.035156 24.734375 10.035156 24.859375 Z M 10.035156 24.859375 "/>
<path style=" stroke:none;fill-rule:nonzero;fill:rgb(92.941176%,92.941176%,92.941176%);fill-opacity:1;" d="M 11.179688 24.664062 C 11.199219 24.785156 11.078125 24.910156 10.898438 24.941406 C 10.726562 24.972656 10.5625 24.898438 10.542969 24.777344 C 10.519531 24.65625 10.644531 24.53125 10.820312 24.5 C 10.996094 24.46875 11.15625 24.539062 11.179688 24.664062 Z M 11.179688 24.664062 "/>
</g>
</svg>
