<?xml version="1.0" encoding="UTF-8"?>
<svg xmlns="http://www.w3.org/2000/svg" xmlns:xlink="http://www.w3.org/1999/xlink" width="70px" height="70px" viewBox="0 0 70 70" version="1.1">
<g id="surface1">
<path style=" stroke:none;fill-rule:evenodd;fill:rgb(92.941176%,92.941176%,92.941176%);fill-opacity:1;" d="M 35 0.863281 C 15.671875 0.863281 0 16.53125 0 35.863281 C 0 51.328125 10.027344 64.445312 23.933594 69.074219 C 25.683594 69.398438 26.324219 68.316406 26.324219 67.390625 C 26.324219 66.558594 26.292969 63.800781 26.277344 60.875 C 16.542969 62.996094 14.488281 56.746094 14.488281 56.746094 C 12.894531 52.703125 10.601562 51.625 10.601562 51.625 C 7.425781 49.453125 10.839844 49.5 10.839844 49.5 C 14.355469 49.746094 16.203125 53.105469 16.203125 53.105469 C 19.324219 58.457031 24.390625 56.910156 26.390625 56.015625 C 26.703125 53.75 27.613281 52.207031 28.613281 51.332031 C 20.839844 50.449219 12.667969 47.449219 12.667969 34.039062 C 12.667969 30.214844 14.035156 27.09375 16.273438 24.644531 C 15.910156 23.757812 14.710938 20.199219 16.613281 15.378906 C 16.613281 15.378906 19.554688 14.441406 26.242188 18.96875 C 29.03125 18.191406 32.023438 17.804688 35 17.789062 C 37.976562 17.804688 40.96875 18.191406 43.765625 18.96875 C 50.445312 14.4375 53.382812 15.378906 53.382812 15.378906 C 55.289062 20.199219 54.089844 23.757812 53.726562 24.644531 C 55.972656 27.09375 57.328125 30.214844 57.328125 34.039062 C 57.328125 47.480469 49.144531 50.441406 41.347656 51.308594 C 42.605469 52.390625 43.722656 54.523438 43.722656 57.789062 C 43.722656 62.472656 43.683594 66.242188 43.683594 67.390625 C 43.683594 68.324219 44.3125 69.417969 46.085938 69.074219 C 59.988281 64.4375 70.003906 51.324219 70.003906 35.867188 C 70 16.535156 54.328125 0.863281 35 0.863281 Z M 35 0.863281 "/>
<path style=" stroke:none;fill-rule:nonzero;fill:rgb(92.941176%,92.941176%,92.941176%);fill-opacity:1;" d="M 13.257812 51.117188 C 13.179688 51.292969 12.90625 51.34375 12.65625 51.226562 C 12.402344 51.113281 12.257812 50.871094 12.339844 50.699219 C 12.417969 50.523438 12.691406 50.472656 12.945312 50.59375 C 13.199219 50.703125 13.34375 50.941406 13.257812 51.117188 Z M 13.257812 51.117188 "/>
<path style=" stroke:none;fill-rule:nonzero;fill:rgb(92.941176%,92.941176%,92.941176%);fill-opacity:1;" d="M 14.671875 52.699219 C 14.507812 52.851562 14.179688 52.78125 13.960938 52.539062 C 13.730469 52.292969 13.6875 51.964844 13.855469 51.8125 C 14.027344 51.65625 14.34375 51.730469 14.574219 51.976562 C 14.804688 52.21875 14.847656 52.539062 14.671875 52.699219 Z M 14.671875 52.699219 "/>
<path style=" stroke:none;fill-rule:nonzero;fill:rgb(92.941176%,92.941176%,92.941176%);fill-opacity:1;" d="M 16.054688 54.714844 C 15.835938 54.863281 15.488281 54.722656 15.273438 54.414062 C 15.054688 54.101562 15.054688 53.726562 15.277344 53.578125 C 15.492188 53.429688 15.839844 53.566406 16.058594 53.875 C 16.273438 54.1875 16.273438 54.5625 16.054688 54.714844 Z M 16.054688 54.714844 "/>
<path style=" stroke:none;fill-rule:nonzero;fill:rgb(92.941176%,92.941176%,92.941176%);fill-opacity:1;" d="M 17.941406 56.660156 C 17.75 56.875 17.34375 56.816406 17.046875 56.527344 C 16.738281 56.246094 16.652344 55.84375 16.847656 55.632812 C 17.042969 55.417969 17.453125 55.480469 17.753906 55.765625 C 18.058594 56.050781 18.148438 56.453125 17.941406 56.660156 Z M 17.941406 56.660156 "/>
<path style=" stroke:none;fill-rule:nonzero;fill:rgb(92.941176%,92.941176%,92.941176%);fill-opacity:1;" d="M 20.554688 57.789062 C 20.46875 58.066406 20.074219 58.191406 19.679688 58.074219 C 19.28125 57.953125 19.023438 57.632812 19.105469 57.355469 C 19.1875 57.078125 19.582031 56.949219 19.980469 57.078125 C 20.375 57.191406 20.636719 57.515625 20.554688 57.789062 Z M 20.554688 57.789062 "/>
<path style=" stroke:none;fill-rule:nonzero;fill:rgb(92.941176%,92.941176%,92.941176%);fill-opacity:1;" d="M 23.417969 58 C 23.425781 58.289062 23.089844 58.527344 22.675781 58.535156 C 22.257812 58.542969 21.914062 58.308594 21.914062 58.027344 C 21.914062 57.734375 22.242188 57.5 22.660156 57.492188 C 23.078125 57.480469 23.417969 57.714844 23.417969 58 Z M 23.417969 58 "/>
<path style=" stroke:none;fill-rule:nonzero;fill:rgb(92.941176%,92.941176%,92.941176%);fill-opacity:1;" d="M 26.082031 57.546875 C 26.132812 57.828125 25.84375 58.121094 25.429688 58.195312 C 25.023438 58.273438 24.648438 58.097656 24.597656 57.816406 C 24.546875 57.527344 24.839844 57.238281 25.246094 57.164062 C 25.65625 57.089844 26.03125 57.261719 26.082031 57.546875 Z M 26.082031 57.546875 "/>
</g>
</svg>
