<?xml version="1.0" encoding="UTF-8"?>
<svg xmlns="http://www.w3.org/2000/svg" xmlns:xlink="http://www.w3.org/1999/xlink" width="30px" height="30px" viewBox="0 0 30 30" version="1.1">
<g id="surface1">
<path style=" stroke:none;fill-rule:nonzero;fill:rgb(0%,0%,0%);fill-opacity:1;" d="M 28.902344 11.335938 L 19.421875 1.855469 C 16.976562 -0.582031 13.023438 -0.582031 10.578125 1.855469 L 1.097656 11.335938 C 0.394531 12.039062 -0.00390625 12.992188 0 13.988281 L 0 26.257812 C 0 28.328125 1.679688 30.007812 3.75 30.007812 L 26.25 30.007812 C 28.320312 30.007812 30 28.328125 30 26.257812 L 30 13.988281 C 30.003906 12.992188 29.605469 12.039062 28.902344 11.335938 Z M 18.75 27.507812 L 11.25 27.507812 L 11.25 22.589844 C 11.25 20.519531 12.929688 18.839844 15 18.839844 C 17.070312 18.839844 18.75 20.519531 18.75 22.589844 Z M 27.5 26.257812 C 27.5 26.949219 26.941406 27.507812 26.25 27.507812 L 21.25 27.507812 L 21.25 22.589844 C 21.25 19.140625 18.453125 16.339844 15 16.339844 C 11.546875 16.339844 8.75 19.140625 8.75 22.589844 L 8.75 27.507812 L 3.75 27.507812 C 3.058594 27.507812 2.5 26.949219 2.5 26.257812 L 2.5 13.988281 C 2.5 13.65625 2.632812 13.339844 2.867188 13.105469 L 12.347656 3.625 C 13.8125 2.164062 16.1875 2.164062 17.652344 3.625 L 27.132812 13.109375 C 27.367188 13.339844 27.496094 13.65625 27.5 13.988281 Z M 27.5 26.257812 "/>
</g>
</svg>
