<?xml version="1.0" encoding="UTF-8"?>
<svg xmlns="http://www.w3.org/2000/svg" xmlns:xlink="http://www.w3.org/1999/xlink" width="150px" height="109px" viewBox="0 0 149 109" version="1.1">
<defs>
<filter id="alpha" filterUnits="objectBoundingBox" x="0%" y="0%" width="100%" height="100%">
  <feColorMatrix type="matrix" in="SourceGraphic" values="0 0 0 0 1 0 0 0 0 1 0 0 0 0 1 0 0 0 1 0"/>
</filter>
<mask id="mask0">
  <g filter="url(#alpha)">
<rect x="0" y="0" width="149" height="109" style="fill:rgb(0%,0%,0%);fill-opacity:0.2;stroke:none;"/>
  </g>
</mask>
<clipPath id="clip1">
  <rect x="0" y="0" width="149" height="109"/>
</clipPath>
<g id="surface5" clip-path="url(#clip1)">
<path style=" stroke:none;fill-rule:nonzero;fill:rgb(0%,0%,0%);fill-opacity:1;" d="M 102.992188 87.929688 C 102.992188 88.265625 102.988281 88.730469 102.972656 89.308594 C 102.96875 89.390625 102.964844 89.472656 102.964844 89.554688 C 102.945312 90.363281 102.917969 91.363281 102.875 92.496094 C 102.875 92.5625 102.871094 92.628906 102.867188 92.699219 C 102.816406 94.078125 102.734375 95.683594 102.589844 98.230469 C 102.320312 102.929688 101.855469 98.875 101.386719 100.523438 C 100.089844 99.71875 98.667969 98.875 97.144531 98.011719 C 96.871094 97.855469 96.59375 97.699219 96.3125 97.542969 C 93.269531 95.832031 89.867188 94.039062 86.316406 92.265625 C 86.179688 92.195312 86.035156 92.125 85.894531 92.058594 C 77.765625 88.011719 68.890625 84.074219 61.699219 81.449219 C 60.308594 80.941406 58.984375 80.484375 57.738281 80.082031 C 55.117188 79.238281 52.847656 78.648438 51.101562 78.394531 C 49.285156 78.125 48.027344 78.222656 47.519531 78.773438 C 47.503906 78.382812 47.484375 78.011719 47.460938 77.65625 C 47.457031 77.539062 47.449219 77.421875 47.441406 77.308594 C 47.453125 77.277344 47.46875 77.246094 47.480469 77.214844 C 47.484375 77.210938 47.484375 77.207031 47.488281 77.203125 C 47.492188 77.191406 47.496094 77.183594 47.5 77.175781 C 47.507812 77.164062 47.511719 77.152344 47.519531 77.140625 C 47.527344 77.125 47.535156 77.113281 47.542969 77.101562 C 47.558594 77.074219 47.578125 77.046875 47.597656 77.019531 C 47.613281 77 47.628906 76.980469 47.648438 76.960938 C 47.652344 76.953125 47.660156 76.945312 47.667969 76.9375 C 47.675781 76.929688 47.683594 76.921875 47.695312 76.910156 C 47.699219 76.90625 47.703125 76.898438 47.707031 76.894531 C 47.722656 76.878906 47.742188 76.863281 47.757812 76.847656 C 47.824219 76.785156 47.898438 76.726562 47.972656 76.675781 C 48 76.660156 48.027344 76.640625 48.054688 76.625 C 48.246094 76.507812 48.445312 76.410156 48.65625 76.332031 C 48.726562 76.308594 48.800781 76.28125 48.878906 76.253906 C 48.90625 76.246094 48.933594 76.238281 48.960938 76.230469 C 49 76.214844 49.042969 76.203125 49.085938 76.191406 C 49.304688 76.128906 49.535156 76.074219 49.789062 76.019531 C 49.863281 76.007812 49.941406 75.992188 50.023438 75.976562 C 50.085938 75.964844 50.152344 75.953125 50.21875 75.941406 C 50.78125 75.851562 51.417969 75.785156 52.125 75.742188 C 52.191406 75.738281 52.257812 75.734375 52.324219 75.730469 C 52.398438 75.726562 52.476562 75.722656 52.558594 75.71875 C 52.625 75.714844 52.691406 75.714844 52.761719 75.710938 C 52.828125 75.707031 52.894531 75.707031 52.964844 75.703125 C 53.15625 75.699219 53.351562 75.695312 53.554688 75.691406 C 54.125 75.679688 54.726562 75.683594 55.359375 75.695312 C 55.652344 75.703125 55.953125 75.710938 56.257812 75.726562 C 56.277344 75.726562 56.296875 75.726562 56.316406 75.726562 C 56.585938 75.734375 56.855469 75.75 57.128906 75.761719 C 57.324219 75.773438 57.519531 75.78125 57.710938 75.792969 C 57.894531 75.804688 58.082031 75.816406 58.269531 75.828125 C 58.414062 75.835938 58.5625 75.847656 58.707031 75.855469 C 58.832031 75.867188 58.957031 75.875 59.082031 75.882812 C 59.234375 75.894531 59.382812 75.90625 59.535156 75.917969 C 59.742188 75.933594 59.949219 75.953125 60.164062 75.96875 C 60.371094 75.988281 60.585938 76.007812 60.800781 76.027344 C 61.015625 76.046875 61.230469 76.066406 61.445312 76.085938 C 61.46875 76.089844 61.488281 76.089844 61.511719 76.09375 C 61.707031 76.113281 61.90625 76.132812 62.101562 76.15625 C 63.207031 76.265625 64.339844 76.398438 65.503906 76.550781 C 66.203125 76.636719 66.90625 76.734375 67.621094 76.835938 C 68.707031 76.992188 69.808594 77.160156 70.917969 77.339844 C 72.03125 77.519531 73.148438 77.710938 74.269531 77.910156 C 74.554688 77.964844 74.839844 78.015625 75.125 78.066406 C 75.472656 78.132812 75.820312 78.199219 76.171875 78.265625 C 76.390625 78.308594 76.609375 78.351562 76.828125 78.394531 C 77.089844 78.445312 77.355469 78.496094 77.613281 78.546875 C 79.335938 78.890625 81.046875 79.257812 82.71875 79.640625 C 82.992188 79.703125 83.265625 79.765625 83.539062 79.832031 C 84.085938 79.957031 84.625 80.085938 85.160156 80.21875 C 85.308594 80.253906 85.453125 80.292969 85.597656 80.328125 C 85.964844 80.417969 86.324219 80.511719 86.683594 80.601562 L 86.683594 80.605469 C 86.703125 80.609375 86.726562 80.613281 86.746094 80.621094 C 87.007812 80.6875 87.265625 80.753906 87.523438 80.820312 C 88.132812 80.980469 88.730469 81.144531 89.316406 81.304688 C 89.707031 81.414062 90.09375 81.523438 90.472656 81.636719 C 91.042969 81.800781 91.601562 81.96875 92.144531 82.136719 C 92.28125 82.179688 92.414062 82.222656 92.546875 82.261719 C 92.945312 82.386719 93.335938 82.511719 93.71875 82.636719 C 94.019531 82.738281 94.316406 82.835938 94.605469 82.9375 C 94.898438 83.039062 95.183594 83.140625 95.464844 83.242188 C 95.644531 83.304688 95.824219 83.371094 96 83.4375 C 96.257812 83.53125 96.507812 83.628906 96.753906 83.726562 C 96.828125 83.753906 96.902344 83.785156 96.976562 83.8125 C 97.117188 83.867188 97.25 83.921875 97.382812 83.976562 C 97.472656 84.011719 97.558594 84.046875 97.644531 84.085938 C 97.730469 84.121094 97.816406 84.15625 97.902344 84.191406 C 97.988281 84.226562 98.070312 84.261719 98.152344 84.300781 C 98.222656 84.328125 98.292969 84.359375 98.359375 84.390625 C 98.492188 84.449219 98.625 84.507812 98.757812 84.570312 C 98.820312 84.601562 98.886719 84.628906 98.949219 84.660156 L 99.097656 84.726562 C 99.117188 84.738281 99.140625 84.75 99.160156 84.757812 C 99.320312 84.835938 99.476562 84.910156 99.628906 84.988281 C 99.769531 85.058594 99.90625 85.132812 100.039062 85.203125 C 100.199219 85.285156 100.347656 85.367188 100.492188 85.453125 C 100.519531 85.46875 100.546875 85.484375 100.578125 85.5 C 100.671875 85.554688 100.765625 85.613281 100.859375 85.667969 C 101.039062 85.78125 101.210938 85.890625 101.375 86 C 101.53125 86.109375 101.679688 86.21875 101.816406 86.328125 C 101.816406 86.332031 101.816406 86.332031 101.820312 86.332031 C 101.886719 86.382812 101.949219 86.4375 102.011719 86.488281 C 102.109375 86.574219 102.199219 86.65625 102.285156 86.738281 C 102.3125 86.765625 102.339844 86.792969 102.363281 86.820312 C 102.375 86.832031 102.386719 86.839844 102.394531 86.851562 C 102.433594 86.894531 102.472656 86.941406 102.511719 86.984375 C 102.558594 87.039062 102.597656 87.089844 102.636719 87.144531 C 102.65625 87.171875 102.679688 87.199219 102.695312 87.222656 C 102.71875 87.257812 102.742188 87.289062 102.757812 87.324219 C 102.777344 87.351562 102.792969 87.378906 102.804688 87.40625 C 102.847656 87.472656 102.882812 87.546875 102.910156 87.621094 C 102.929688 87.671875 102.945312 87.722656 102.960938 87.777344 C 102.972656 87.828125 102.984375 87.878906 102.992188 87.929688 Z M 102.992188 87.929688 "/>
</g>
</defs>
<g id="surface1">
<path style=" stroke:none;fill-rule:nonzero;fill:rgb(94.901961%,94.901961%,94.901961%);fill-opacity:1;" d="M 91.828125 14.136719 C 91.828125 16.945312 89.5625 19.222656 86.773438 19.222656 C 83.980469 19.222656 81.71875 16.945312 81.71875 14.136719 C 81.71875 11.324219 83.980469 9.046875 86.773438 9.046875 C 89.5625 9.046875 91.828125 11.324219 91.828125 14.136719 Z M 91.828125 14.136719 "/>
<path style=" stroke:none;fill-rule:nonzero;fill:rgb(94.901961%,94.901961%,94.901961%);fill-opacity:1;" d="M 125.988281 94.738281 C 133.5 88.976562 137.089844 79.296875 134.84375 70.0625 C 134.785156 69.832031 134.726562 69.605469 134.667969 69.375 C 133.175781 63.894531 129.492188 58.6875 124.121094 56.933594 C 119.609375 55.464844 114.6875 56.59375 109.984375 56.011719 C 100.75 54.863281 93.589844 47.339844 88.550781 39.464844 C 83.511719 31.589844 79.640625 22.777344 72.945312 16.269531 C 61.910156 5.546875 43.910156 3.238281 30.226562 10.21875 C 16.546875 17.199219 7.832031 32.683594 8.203125 48.117188 C 8.574219 63.554688 17.679688 78.308594 30.898438 86.140625 C 35.753906 89.015625 41.371094 91.050781 46.960938 90.339844 C 51.8125 89.722656 56.21875 87.097656 61.046875 86.320312 C 68.636719 85.09375 76.179688 88.546875 82.746094 92.574219 C 89.3125 96.597656 95.652344 101.371094 103.113281 103.234375 C 110.355469 105.046875 119.332031 99.839844 125.988281 94.738281 Z M 125.988281 94.738281 "/>
<path style=" stroke:none;fill-rule:nonzero;fill:rgb(24.705882%,23.921569%,33.72549%);fill-opacity:1;" d="M 115.191406 10.542969 C 115.027344 10.429688 114.859375 10.328125 114.695312 10.21875 C 109.933594 7.15625 104.832031 4.664062 99.492188 2.800781 L 98.253906 19.992188 L 90.402344 19.992188 L 90.402344 0.292969 C 89.910156 0.1875 89.410156 0.0898438 88.914062 0 L 88.914062 19.992188 L 79.585938 19.992188 C 68.890625 19.992188 60.222656 11.269531 60.222656 0.503906 C 59.722656 0.613281 59.226562 0.730469 58.730469 0.855469 L 58.730469 19.992188 L 51.132812 19.992188 L 49.953125 3.601562 C 44.464844 5.71875 39.253906 8.503906 34.441406 11.894531 C 34.355469 11.953125 34.273438 12.011719 34.191406 12.066406 C 33.773438 12.363281 33.359375 12.664062 32.949219 12.96875 L 32.949219 78.558594 L 55.339844 78.558594 L 54.945312 73.042969 L 52.769531 42.753906 L 96.613281 42.753906 L 94.4375 73.042969 L 94.042969 78.558594 L 116.183594 78.558594 L 116.183594 11.203125 C 115.855469 10.980469 115.523438 10.757812 115.191406 10.542969 Z M 58.730469 37.75 L 52.410156 37.75 L 51.242188 21.496094 L 58.730469 21.496094 Z M 88.914062 37.75 L 78.296875 37.75 L 78.296875 37.429688 C 78.296875 37.113281 78.171875 36.816406 77.953125 36.59375 C 77.730469 36.375 77.433594 36.25 77.125 36.25 L 72.507812 36.25 C 71.859375 36.25 71.335938 36.777344 71.335938 37.429688 L 71.335938 37.75 L 60.222656 37.75 L 60.222656 21.496094 L 88.914062 21.496094 Z M 90.402344 37.75 L 90.402344 21.496094 L 98.144531 21.496094 L 96.976562 37.75 Z M 90.402344 37.75 "/>
<path style=" stroke:none;fill-rule:nonzero;fill:rgb(24.705882%,23.921569%,33.72549%);fill-opacity:1;" d="M 0 82.757812 C 1.644531 84.71875 3.421875 86.5625 5.324219 88.273438 L 143.640625 88.464844 C 145.542969 86.753906 147.320312 84.910156 148.964844 82.949219 Z M 0 82.757812 "/>
<path style=" stroke:none;fill-rule:nonzero;fill:rgb(24.705882%,23.921569%,33.72549%);fill-opacity:1;" d="M 93.796875 65.09375 L 93.796875 81.425781 C 93.796875 81.859375 94.148438 82.210938 94.578125 82.210938 L 118.625 82.210938 C 119.054688 82.210938 119.402344 81.859375 119.402344 81.425781 L 119.402344 65.09375 C 119.402344 64.660156 119.054688 64.308594 118.625 64.308594 L 94.578125 64.308594 C 94.148438 64.308594 93.800781 64.660156 93.796875 65.09375 Z M 93.796875 65.09375 "/>
<path style=" stroke:none;fill-rule:nonzero;fill:rgb(42.352941%,38.823529%,100%);fill-opacity:1;" d="M 94.363281 65.296875 L 94.363281 81.222656 C 94.363281 81.457031 94.550781 81.644531 94.777344 81.644531 L 118.421875 81.644531 C 118.652344 81.644531 118.839844 81.457031 118.839844 81.222656 L 118.839844 65.296875 C 118.839844 65.066406 118.652344 64.875 118.421875 64.875 L 94.777344 64.875 C 94.546875 64.875 94.363281 65.066406 94.363281 65.296875 Z M 94.363281 65.296875 "/>
<path style=" stroke:none;fill-rule:nonzero;fill:rgb(18.431373%,18.039216%,25.490196%);fill-opacity:1;" d="M 93.296875 84.609375 C 93.382812 84.722656 93.519531 84.789062 93.664062 84.789062 L 119.410156 84.789062 C 119.550781 84.789062 119.6875 84.722656 119.777344 84.609375 C 119.867188 84.5 119.902344 84.351562 119.875 84.210938 L 119.472656 82.300781 C 119.441406 82.144531 119.328125 82.011719 119.179688 81.957031 C 119.125 81.933594 119.066406 81.921875 119.011719 81.921875 L 94.0625 81.921875 C 94.003906 81.921875 93.945312 81.933594 93.894531 81.957031 C 93.742188 82.011719 93.632812 82.144531 93.597656 82.300781 L 93.199219 84.210938 C 93.167969 84.351562 93.207031 84.5 93.296875 84.609375 Z M 93.296875 84.609375 "/>
<path style=" stroke:none;fill-rule:nonzero;fill:rgb(24.705882%,23.921569%,33.72549%);fill-opacity:1;" d="M 118.734375 82.746094 L 118.125 82.746094 C 118.074219 82.746094 118.035156 82.703125 118.035156 82.652344 L 118.035156 82.359375 C 118.035156 82.308594 118.074219 82.269531 118.125 82.269531 L 118.734375 82.269531 C 118.785156 82.269531 118.828125 82.308594 118.828125 82.359375 L 118.828125 82.652344 C 118.828125 82.703125 118.785156 82.746094 118.734375 82.746094 Z M 118.734375 82.746094 "/>
<path style=" stroke:none;fill-rule:nonzero;fill:rgb(24.705882%,23.921569%,33.72549%);fill-opacity:1;" d="M 117.148438 82.746094 L 116.539062 82.746094 C 116.488281 82.746094 116.449219 82.703125 116.449219 82.652344 L 116.449219 82.359375 C 116.449219 82.308594 116.488281 82.269531 116.539062 82.269531 L 117.148438 82.269531 C 117.199219 82.269531 117.242188 82.308594 117.242188 82.359375 L 117.242188 82.652344 C 117.242188 82.703125 117.199219 82.746094 117.148438 82.746094 Z M 117.148438 82.746094 "/>
<path style=" stroke:none;fill-rule:nonzero;fill:rgb(24.705882%,23.921569%,33.72549%);fill-opacity:1;" d="M 115.5625 82.746094 L 114.953125 82.746094 C 114.902344 82.746094 114.863281 82.703125 114.863281 82.652344 L 114.863281 82.359375 C 114.863281 82.308594 114.902344 82.269531 114.953125 82.269531 L 115.5625 82.269531 C 115.613281 82.269531 115.65625 82.308594 115.65625 82.359375 L 115.65625 82.652344 C 115.65625 82.703125 115.613281 82.746094 115.5625 82.746094 Z M 115.5625 82.746094 "/>
<path style=" stroke:none;fill-rule:nonzero;fill:rgb(24.705882%,23.921569%,33.72549%);fill-opacity:1;" d="M 113.976562 82.746094 L 113.367188 82.746094 C 113.316406 82.746094 113.277344 82.703125 113.277344 82.652344 L 113.277344 82.359375 C 113.277344 82.308594 113.316406 82.269531 113.367188 82.269531 L 113.976562 82.269531 C 114.027344 82.269531 114.070312 82.308594 114.070312 82.359375 L 114.070312 82.652344 C 114.070312 82.703125 114.027344 82.746094 113.976562 82.746094 Z M 113.976562 82.746094 "/>
<path style=" stroke:none;fill-rule:nonzero;fill:rgb(24.705882%,23.921569%,33.72549%);fill-opacity:1;" d="M 112.390625 82.746094 L 111.78125 82.746094 C 111.730469 82.746094 111.691406 82.703125 111.691406 82.652344 L 111.691406 82.359375 C 111.691406 82.308594 111.730469 82.269531 111.78125 82.269531 L 112.390625 82.269531 C 112.441406 82.269531 112.484375 82.308594 112.484375 82.359375 L 112.484375 82.652344 C 112.484375 82.703125 112.441406 82.746094 112.390625 82.746094 Z M 112.390625 82.746094 "/>
<path style=" stroke:none;fill-rule:nonzero;fill:rgb(24.705882%,23.921569%,33.72549%);fill-opacity:1;" d="M 110.804688 82.746094 L 110.195312 82.746094 C 110.144531 82.746094 110.105469 82.703125 110.105469 82.652344 L 110.105469 82.359375 C 110.105469 82.308594 110.144531 82.269531 110.195312 82.269531 L 110.804688 82.269531 C 110.855469 82.269531 110.898438 82.308594 110.898438 82.359375 L 110.898438 82.652344 C 110.898438 82.703125 110.855469 82.746094 110.804688 82.746094 Z M 110.804688 82.746094 "/>
<path style=" stroke:none;fill-rule:nonzero;fill:rgb(24.705882%,23.921569%,33.72549%);fill-opacity:1;" d="M 109.21875 82.746094 L 108.609375 82.746094 C 108.558594 82.746094 108.519531 82.703125 108.519531 82.652344 L 108.519531 82.359375 C 108.519531 82.308594 108.558594 82.269531 108.609375 82.269531 L 109.21875 82.269531 C 109.269531 82.269531 109.3125 82.308594 109.3125 82.359375 L 109.3125 82.652344 C 109.3125 82.703125 109.269531 82.746094 109.21875 82.746094 Z M 109.21875 82.746094 "/>
<path style=" stroke:none;fill-rule:nonzero;fill:rgb(24.705882%,23.921569%,33.72549%);fill-opacity:1;" d="M 107.632812 82.746094 L 107.023438 82.746094 C 106.972656 82.746094 106.933594 82.703125 106.933594 82.652344 L 106.933594 82.359375 C 106.933594 82.308594 106.972656 82.269531 107.023438 82.269531 L 107.632812 82.269531 C 107.683594 82.269531 107.726562 82.308594 107.726562 82.359375 L 107.726562 82.652344 C 107.726562 82.703125 107.683594 82.746094 107.632812 82.746094 Z M 107.632812 82.746094 "/>
<path style=" stroke:none;fill-rule:nonzero;fill:rgb(24.705882%,23.921569%,33.72549%);fill-opacity:1;" d="M 106.046875 82.746094 L 105.4375 82.746094 C 105.386719 82.746094 105.347656 82.703125 105.347656 82.652344 L 105.347656 82.359375 C 105.347656 82.308594 105.386719 82.269531 105.4375 82.269531 L 106.046875 82.269531 C 106.097656 82.269531 106.140625 82.308594 106.140625 82.359375 L 106.140625 82.652344 C 106.140625 82.703125 106.097656 82.746094 106.046875 82.746094 Z M 106.046875 82.746094 "/>
<path style=" stroke:none;fill-rule:nonzero;fill:rgb(24.705882%,23.921569%,33.72549%);fill-opacity:1;" d="M 104.460938 82.746094 L 103.851562 82.746094 C 103.800781 82.746094 103.761719 82.703125 103.761719 82.652344 L 103.761719 82.359375 C 103.761719 82.308594 103.800781 82.269531 103.851562 82.269531 L 104.460938 82.269531 C 104.511719 82.269531 104.554688 82.308594 104.554688 82.359375 L 104.554688 82.652344 C 104.554688 82.703125 104.511719 82.746094 104.460938 82.746094 Z M 104.460938 82.746094 "/>
<path style=" stroke:none;fill-rule:nonzero;fill:rgb(24.705882%,23.921569%,33.72549%);fill-opacity:1;" d="M 102.875 82.746094 L 102.265625 82.746094 C 102.214844 82.746094 102.175781 82.703125 102.175781 82.652344 L 102.175781 82.359375 C 102.175781 82.308594 102.214844 82.269531 102.265625 82.269531 L 102.875 82.269531 C 102.925781 82.269531 102.96875 82.308594 102.96875 82.359375 L 102.96875 82.652344 C 102.96875 82.703125 102.925781 82.746094 102.875 82.746094 Z M 102.875 82.746094 "/>
<path style=" stroke:none;fill-rule:nonzero;fill:rgb(24.705882%,23.921569%,33.72549%);fill-opacity:1;" d="M 101.289062 82.746094 L 100.679688 82.746094 C 100.628906 82.746094 100.589844 82.703125 100.589844 82.652344 L 100.589844 82.359375 C 100.589844 82.308594 100.628906 82.269531 100.679688 82.269531 L 101.289062 82.269531 C 101.339844 82.269531 101.382812 82.308594 101.382812 82.359375 L 101.382812 82.652344 C 101.382812 82.703125 101.339844 82.746094 101.289062 82.746094 Z M 101.289062 82.746094 "/>
<path style=" stroke:none;fill-rule:nonzero;fill:rgb(24.705882%,23.921569%,33.72549%);fill-opacity:1;" d="M 99.703125 82.746094 L 99.09375 82.746094 C 99.042969 82.746094 99.003906 82.703125 99.003906 82.652344 L 99.003906 82.359375 C 99.003906 82.308594 99.042969 82.269531 99.09375 82.269531 L 99.703125 82.269531 C 99.753906 82.269531 99.796875 82.308594 99.796875 82.359375 L 99.796875 82.652344 C 99.796875 82.703125 99.753906 82.746094 99.703125 82.746094 Z M 99.703125 82.746094 "/>
<path style=" stroke:none;fill-rule:nonzero;fill:rgb(24.705882%,23.921569%,33.72549%);fill-opacity:1;" d="M 98.117188 82.746094 L 97.507812 82.746094 C 97.457031 82.746094 97.417969 82.703125 97.417969 82.652344 L 97.417969 82.359375 C 97.417969 82.308594 97.457031 82.269531 97.507812 82.269531 L 98.117188 82.269531 C 98.167969 82.269531 98.210938 82.308594 98.210938 82.359375 L 98.210938 82.652344 C 98.210938 82.703125 98.167969 82.746094 98.117188 82.746094 Z M 98.117188 82.746094 "/>
<path style=" stroke:none;fill-rule:nonzero;fill:rgb(24.705882%,23.921569%,33.72549%);fill-opacity:1;" d="M 96.53125 82.746094 L 95.921875 82.746094 C 95.871094 82.746094 95.832031 82.703125 95.832031 82.652344 L 95.832031 82.359375 C 95.832031 82.308594 95.871094 82.269531 95.921875 82.269531 L 96.53125 82.269531 C 96.582031 82.269531 96.625 82.308594 96.625 82.359375 L 96.625 82.652344 C 96.625 82.703125 96.582031 82.746094 96.53125 82.746094 Z M 96.53125 82.746094 "/>
<path style=" stroke:none;fill-rule:nonzero;fill:rgb(24.705882%,23.921569%,33.72549%);fill-opacity:1;" d="M 94.945312 82.746094 L 94.335938 82.746094 C 94.285156 82.746094 94.246094 82.703125 94.246094 82.652344 L 94.246094 82.359375 C 94.246094 82.308594 94.285156 82.269531 94.335938 82.269531 L 94.945312 82.269531 C 94.996094 82.269531 95.039062 82.308594 95.039062 82.359375 L 95.039062 82.652344 C 95.039062 82.703125 94.996094 82.746094 94.945312 82.746094 Z M 94.945312 82.746094 "/>
<path style=" stroke:none;fill-rule:nonzero;fill:rgb(24.705882%,23.921569%,33.72549%);fill-opacity:1;" d="M 118.753906 83.542969 L 118.144531 83.542969 C 118.09375 83.542969 118.054688 83.503906 118.054688 83.453125 L 118.054688 83.160156 C 118.054688 83.109375 118.09375 83.066406 118.144531 83.066406 L 118.753906 83.066406 C 118.804688 83.066406 118.847656 83.109375 118.847656 83.160156 L 118.847656 83.453125 C 118.847656 83.503906 118.804688 83.542969 118.753906 83.542969 Z M 118.753906 83.542969 "/>
<path style=" stroke:none;fill-rule:nonzero;fill:rgb(24.705882%,23.921569%,33.72549%);fill-opacity:1;" d="M 117.167969 83.542969 L 116.558594 83.542969 C 116.507812 83.542969 116.46875 83.503906 116.46875 83.453125 L 116.46875 83.160156 C 116.46875 83.109375 116.507812 83.066406 116.558594 83.066406 L 117.167969 83.066406 C 117.21875 83.066406 117.261719 83.109375 117.261719 83.160156 L 117.261719 83.453125 C 117.261719 83.503906 117.21875 83.542969 117.167969 83.542969 Z M 117.167969 83.542969 "/>
<path style=" stroke:none;fill-rule:nonzero;fill:rgb(24.705882%,23.921569%,33.72549%);fill-opacity:1;" d="M 115.582031 83.542969 L 114.972656 83.542969 C 114.921875 83.542969 114.882812 83.503906 114.882812 83.453125 L 114.882812 83.160156 C 114.882812 83.109375 114.921875 83.066406 114.972656 83.066406 L 115.582031 83.066406 C 115.632812 83.066406 115.675781 83.109375 115.675781 83.160156 L 115.675781 83.453125 C 115.675781 83.503906 115.632812 83.542969 115.582031 83.542969 Z M 115.582031 83.542969 "/>
<path style=" stroke:none;fill-rule:nonzero;fill:rgb(24.705882%,23.921569%,33.72549%);fill-opacity:1;" d="M 113.996094 83.542969 L 113.386719 83.542969 C 113.335938 83.542969 113.296875 83.503906 113.296875 83.453125 L 113.296875 83.160156 C 113.296875 83.109375 113.335938 83.066406 113.386719 83.066406 L 113.996094 83.066406 C 114.046875 83.066406 114.089844 83.109375 114.089844 83.160156 L 114.089844 83.453125 C 114.089844 83.503906 114.046875 83.542969 113.996094 83.542969 Z M 113.996094 83.542969 "/>
<path style=" stroke:none;fill-rule:nonzero;fill:rgb(24.705882%,23.921569%,33.72549%);fill-opacity:1;" d="M 112.410156 83.542969 L 111.800781 83.542969 C 111.75 83.542969 111.710938 83.503906 111.710938 83.453125 L 111.710938 83.160156 C 111.710938 83.109375 111.75 83.066406 111.800781 83.066406 L 112.410156 83.066406 C 112.460938 83.066406 112.503906 83.109375 112.503906 83.160156 L 112.503906 83.453125 C 112.503906 83.503906 112.460938 83.542969 112.410156 83.542969 Z M 112.410156 83.542969 "/>
<path style=" stroke:none;fill-rule:nonzero;fill:rgb(24.705882%,23.921569%,33.72549%);fill-opacity:1;" d="M 110.824219 83.542969 L 110.214844 83.542969 C 110.164062 83.542969 110.125 83.503906 110.125 83.453125 L 110.125 83.160156 C 110.125 83.109375 110.164062 83.066406 110.214844 83.066406 L 110.824219 83.066406 C 110.875 83.066406 110.917969 83.109375 110.917969 83.160156 L 110.917969 83.453125 C 110.917969 83.503906 110.875 83.542969 110.824219 83.542969 Z M 110.824219 83.542969 "/>
<path style=" stroke:none;fill-rule:nonzero;fill:rgb(24.705882%,23.921569%,33.72549%);fill-opacity:1;" d="M 109.238281 83.542969 L 108.628906 83.542969 C 108.578125 83.542969 108.539062 83.503906 108.539062 83.453125 L 108.539062 83.160156 C 108.539062 83.109375 108.578125 83.066406 108.628906 83.066406 L 109.238281 83.066406 C 109.289062 83.066406 109.332031 83.109375 109.332031 83.160156 L 109.332031 83.453125 C 109.332031 83.503906 109.289062 83.542969 109.238281 83.542969 Z M 109.238281 83.542969 "/>
<path style=" stroke:none;fill-rule:nonzero;fill:rgb(24.705882%,23.921569%,33.72549%);fill-opacity:1;" d="M 107.652344 83.542969 L 107.042969 83.542969 C 106.992188 83.542969 106.953125 83.503906 106.953125 83.453125 L 106.953125 83.160156 C 106.953125 83.109375 106.992188 83.066406 107.042969 83.066406 L 107.652344 83.066406 C 107.703125 83.066406 107.746094 83.109375 107.746094 83.160156 L 107.746094 83.453125 C 107.746094 83.503906 107.703125 83.542969 107.652344 83.542969 Z M 107.652344 83.542969 "/>
<path style=" stroke:none;fill-rule:nonzero;fill:rgb(24.705882%,23.921569%,33.72549%);fill-opacity:1;" d="M 106.066406 83.542969 L 105.457031 83.542969 C 105.40625 83.542969 105.367188 83.503906 105.367188 83.453125 L 105.367188 83.160156 C 105.367188 83.109375 105.40625 83.066406 105.457031 83.066406 L 106.066406 83.066406 C 106.117188 83.066406 106.160156 83.109375 106.160156 83.160156 L 106.160156 83.453125 C 106.160156 83.503906 106.117188 83.542969 106.066406 83.542969 Z M 106.066406 83.542969 "/>
<path style=" stroke:none;fill-rule:nonzero;fill:rgb(24.705882%,23.921569%,33.72549%);fill-opacity:1;" d="M 104.480469 83.542969 L 103.871094 83.542969 C 103.820312 83.542969 103.78125 83.503906 103.78125 83.453125 L 103.78125 83.160156 C 103.78125 83.109375 103.820312 83.066406 103.871094 83.066406 L 104.480469 83.066406 C 104.53125 83.066406 104.574219 83.109375 104.574219 83.160156 L 104.574219 83.453125 C 104.574219 83.503906 104.53125 83.542969 104.480469 83.542969 Z M 104.480469 83.542969 "/>
<path style=" stroke:none;fill-rule:nonzero;fill:rgb(24.705882%,23.921569%,33.72549%);fill-opacity:1;" d="M 102.894531 83.542969 L 102.285156 83.542969 C 102.234375 83.542969 102.191406 83.503906 102.191406 83.453125 L 102.191406 83.160156 C 102.191406 83.109375 102.234375 83.066406 102.285156 83.066406 L 102.894531 83.066406 C 102.945312 83.066406 102.988281 83.109375 102.988281 83.160156 L 102.988281 83.453125 C 102.988281 83.503906 102.945312 83.542969 102.894531 83.542969 Z M 102.894531 83.542969 "/>
<path style=" stroke:none;fill-rule:nonzero;fill:rgb(24.705882%,23.921569%,33.72549%);fill-opacity:1;" d="M 101.308594 83.542969 L 100.699219 83.542969 C 100.648438 83.542969 100.605469 83.503906 100.605469 83.453125 L 100.605469 83.160156 C 100.605469 83.109375 100.648438 83.066406 100.699219 83.066406 L 101.308594 83.066406 C 101.359375 83.066406 101.398438 83.109375 101.398438 83.160156 L 101.398438 83.453125 C 101.398438 83.503906 101.359375 83.542969 101.308594 83.542969 Z M 101.308594 83.542969 "/>
<path style=" stroke:none;fill-rule:nonzero;fill:rgb(24.705882%,23.921569%,33.72549%);fill-opacity:1;" d="M 99.722656 83.542969 L 99.113281 83.542969 C 99.0625 83.542969 99.019531 83.503906 99.019531 83.453125 L 99.019531 83.160156 C 99.019531 83.109375 99.0625 83.066406 99.113281 83.066406 L 99.722656 83.066406 C 99.773438 83.066406 99.8125 83.109375 99.8125 83.160156 L 99.8125 83.453125 C 99.8125 83.503906 99.773438 83.542969 99.722656 83.542969 Z M 99.722656 83.542969 "/>
<path style=" stroke:none;fill-rule:nonzero;fill:rgb(24.705882%,23.921569%,33.72549%);fill-opacity:1;" d="M 98.136719 83.542969 L 97.527344 83.542969 C 97.476562 83.542969 97.433594 83.503906 97.433594 83.453125 L 97.433594 83.160156 C 97.433594 83.109375 97.476562 83.066406 97.527344 83.066406 L 98.136719 83.066406 C 98.1875 83.066406 98.226562 83.109375 98.226562 83.160156 L 98.226562 83.453125 C 98.226562 83.503906 98.1875 83.542969 98.136719 83.542969 Z M 98.136719 83.542969 "/>
<path style=" stroke:none;fill-rule:nonzero;fill:rgb(24.705882%,23.921569%,33.72549%);fill-opacity:1;" d="M 96.550781 83.542969 L 95.941406 83.542969 C 95.890625 83.542969 95.847656 83.503906 95.847656 83.453125 L 95.847656 83.160156 C 95.847656 83.109375 95.890625 83.066406 95.941406 83.066406 L 96.550781 83.066406 C 96.601562 83.066406 96.640625 83.109375 96.640625 83.160156 L 96.640625 83.453125 C 96.640625 83.503906 96.601562 83.542969 96.550781 83.542969 Z M 96.550781 83.542969 "/>
<path style=" stroke:none;fill-rule:nonzero;fill:rgb(24.705882%,23.921569%,33.72549%);fill-opacity:1;" d="M 94.964844 83.542969 L 94.355469 83.542969 C 94.304688 83.542969 94.261719 83.503906 94.261719 83.453125 L 94.261719 83.160156 C 94.261719 83.109375 94.304688 83.066406 94.355469 83.066406 L 94.964844 83.066406 C 95.015625 83.066406 95.054688 83.109375 95.054688 83.160156 L 95.054688 83.453125 C 95.054688 83.503906 95.015625 83.542969 94.964844 83.542969 Z M 94.964844 83.542969 "/>
<path style=" stroke:none;fill-rule:nonzero;fill:rgb(24.705882%,23.921569%,33.72549%);fill-opacity:1;" d="M 111.140625 84.503906 L 104.980469 84.503906 C 104.929688 84.503906 104.890625 84.460938 104.890625 84.410156 L 104.890625 84.117188 C 104.890625 84.066406 104.929688 84.023438 104.980469 84.023438 L 111.140625 84.023438 C 111.191406 84.023438 111.234375 84.066406 111.234375 84.117188 L 111.234375 84.410156 C 111.234375 84.460938 111.191406 84.503906 111.140625 84.503906 Z M 111.140625 84.503906 "/>
<path style=" stroke:none;fill-rule:nonzero;fill:rgb(100%,100%,100%);fill-opacity:1;" d="M 97.917969 68.359375 L 98.457031 68.359375 C 98.621094 68.359375 98.753906 68.492188 98.753906 68.660156 C 98.753906 68.824219 98.621094 68.957031 98.457031 68.957031 L 97.917969 68.957031 C 97.753906 68.957031 97.621094 68.824219 97.621094 68.660156 C 97.621094 68.492188 97.753906 68.359375 97.917969 68.359375 Z M 97.917969 68.359375 "/>
<path style=" stroke:none;fill-rule:nonzero;fill:rgb(100%,100%,100%);fill-opacity:1;" d="M 104.074219 68.359375 L 104.613281 68.359375 C 104.777344 68.359375 104.910156 68.492188 104.910156 68.660156 C 104.910156 68.824219 104.777344 68.957031 104.613281 68.957031 L 104.074219 68.957031 C 103.914062 68.957031 103.78125 68.824219 103.78125 68.660156 C 103.78125 68.492188 103.914062 68.359375 104.074219 68.359375 Z M 104.074219 68.359375 "/>
<path style=" stroke:none;fill-rule:nonzero;fill:rgb(100%,100%,100%);fill-opacity:1;" d="M 105.820312 68.359375 L 106.359375 68.359375 C 106.523438 68.359375 106.652344 68.492188 106.652344 68.660156 C 106.652344 68.824219 106.523438 68.957031 106.359375 68.957031 L 105.820312 68.957031 C 105.65625 68.957031 105.523438 68.824219 105.523438 68.660156 C 105.523438 68.492188 105.65625 68.359375 105.820312 68.359375 Z M 105.820312 68.359375 "/>
<path style=" stroke:none;fill-rule:nonzero;fill:rgb(100%,100%,100%);fill-opacity:1;" d="M 99.59375 68.3125 L 102.9375 68.3125 C 103.101562 68.3125 103.234375 68.445312 103.234375 68.609375 C 103.234375 68.773438 103.101562 68.90625 102.9375 68.90625 L 99.59375 68.90625 C 99.429688 68.90625 99.296875 68.773438 99.296875 68.609375 C 99.296875 68.445312 99.429688 68.3125 99.59375 68.3125 Z M 99.59375 68.3125 "/>
<path style=" stroke:none;fill-rule:nonzero;fill:rgb(100%,100%,100%);fill-opacity:1;" d="M 107.804688 68.3125 L 111.148438 68.3125 C 111.3125 68.3125 111.445312 68.445312 111.445312 68.609375 C 111.445312 68.773438 111.3125 68.90625 111.148438 68.90625 L 107.804688 68.90625 C 107.640625 68.90625 107.507812 68.773438 107.507812 68.609375 C 107.507812 68.445312 107.640625 68.3125 107.804688 68.3125 Z M 107.804688 68.3125 "/>
<path style=" stroke:none;fill-rule:nonzero;fill:rgb(100%,100%,100%);fill-opacity:1;" d="M 99.558594 69.703125 L 100.097656 69.703125 C 100.261719 69.703125 100.394531 69.835938 100.394531 70 C 100.394531 70.164062 100.261719 70.296875 100.097656 70.296875 L 99.558594 70.296875 C 99.398438 70.296875 99.265625 70.164062 99.265625 70 C 99.265625 69.835938 99.398438 69.703125 99.558594 69.703125 Z M 99.558594 69.703125 "/>
<path style=" stroke:none;fill-rule:nonzero;fill:rgb(100%,100%,100%);fill-opacity:1;" d="M 105.71875 69.703125 L 106.257812 69.703125 C 106.417969 69.703125 106.550781 69.835938 106.550781 70 C 106.550781 70.164062 106.417969 70.296875 106.257812 70.296875 L 105.71875 70.296875 C 105.554688 70.296875 105.421875 70.164062 105.421875 70 C 105.421875 69.835938 105.554688 69.703125 105.71875 69.703125 Z M 105.71875 69.703125 "/>
<path style=" stroke:none;fill-rule:nonzero;fill:rgb(100%,100%,100%);fill-opacity:1;" d="M 107.460938 69.703125 L 108 69.703125 C 108.164062 69.703125 108.296875 69.835938 108.296875 70 C 108.296875 70.164062 108.164062 70.296875 108 70.296875 L 107.460938 70.296875 C 107.300781 70.296875 107.167969 70.164062 107.167969 70 C 107.167969 69.835938 107.300781 69.703125 107.460938 69.703125 Z M 107.460938 69.703125 "/>
<path style=" stroke:none;fill-rule:nonzero;fill:rgb(100%,100%,100%);fill-opacity:1;" d="M 101.234375 69.652344 L 104.582031 69.652344 C 104.746094 69.652344 104.875 69.789062 104.875 69.953125 C 104.875 70.117188 104.746094 70.25 104.582031 70.25 L 101.234375 70.25 C 101.070312 70.25 100.941406 70.117188 100.941406 69.953125 C 100.941406 69.789062 101.070312 69.652344 101.234375 69.652344 Z M 101.234375 69.652344 "/>
<path style=" stroke:none;fill-rule:nonzero;fill:rgb(100%,100%,100%);fill-opacity:1;" d="M 109.445312 69.652344 L 112.792969 69.652344 C 112.953125 69.652344 113.085938 69.789062 113.085938 69.953125 C 113.085938 70.117188 112.953125 70.25 112.792969 70.25 L 109.445312 70.25 C 109.28125 70.25 109.148438 70.117188 109.148438 69.953125 C 109.148438 69.789062 109.28125 69.652344 109.445312 69.652344 Z M 109.445312 69.652344 "/>
<path style=" stroke:none;fill-rule:nonzero;fill:rgb(100%,100%,100%);fill-opacity:1;" d="M 101.203125 71.046875 L 101.742188 71.046875 C 101.902344 71.046875 102.035156 71.179688 102.035156 71.34375 C 102.035156 71.507812 101.902344 71.640625 101.742188 71.640625 L 101.203125 71.640625 C 101.039062 71.640625 100.90625 71.507812 100.90625 71.34375 C 100.90625 71.179688 101.039062 71.046875 101.203125 71.046875 Z M 101.203125 71.046875 "/>
<path style=" stroke:none;fill-rule:nonzero;fill:rgb(100%,100%,100%);fill-opacity:1;" d="M 107.359375 71.046875 L 107.898438 71.046875 C 108.0625 71.046875 108.195312 71.179688 108.195312 71.34375 C 108.195312 71.507812 108.0625 71.640625 107.898438 71.640625 L 107.359375 71.640625 C 107.195312 71.640625 107.0625 71.507812 107.0625 71.34375 C 107.0625 71.179688 107.195312 71.046875 107.359375 71.046875 Z M 107.359375 71.046875 "/>
<path style=" stroke:none;fill-rule:nonzero;fill:rgb(100%,100%,100%);fill-opacity:1;" d="M 109.105469 71.046875 L 109.644531 71.046875 C 109.804688 71.046875 109.9375 71.179688 109.9375 71.34375 C 109.9375 71.507812 109.804688 71.640625 109.644531 71.640625 L 109.105469 71.640625 C 108.941406 71.640625 108.808594 71.507812 108.808594 71.34375 C 108.808594 71.179688 108.941406 71.046875 109.105469 71.046875 Z M 109.105469 71.046875 "/>
<path style=" stroke:none;fill-rule:nonzero;fill:rgb(100%,100%,100%);fill-opacity:1;" d="M 102.878906 70.996094 L 106.222656 70.996094 C 106.386719 70.996094 106.519531 71.128906 106.519531 71.292969 C 106.519531 71.457031 106.386719 71.589844 106.222656 71.589844 L 102.878906 71.589844 C 102.714844 71.589844 102.582031 71.457031 102.582031 71.292969 C 102.582031 71.128906 102.714844 70.996094 102.878906 70.996094 Z M 102.878906 70.996094 "/>
<path style=" stroke:none;fill-rule:nonzero;fill:rgb(100%,100%,100%);fill-opacity:1;" d="M 111.085938 70.996094 L 114.433594 70.996094 C 114.597656 70.996094 114.730469 71.128906 114.730469 71.292969 C 114.730469 71.457031 114.597656 71.589844 114.433594 71.589844 L 111.085938 71.589844 C 110.921875 71.589844 110.792969 71.457031 110.792969 71.292969 C 110.792969 71.128906 110.921875 70.996094 111.085938 70.996094 Z M 111.085938 70.996094 "/>
<path style=" stroke:none;fill-rule:nonzero;fill:rgb(100%,100%,100%);fill-opacity:1;" d="M 102.84375 72.390625 L 103.382812 72.390625 C 103.546875 72.390625 103.679688 72.523438 103.679688 72.6875 C 103.679688 72.851562 103.546875 72.984375 103.382812 72.984375 L 102.84375 72.984375 C 102.679688 72.984375 102.546875 72.851562 102.546875 72.6875 C 102.546875 72.523438 102.679688 72.390625 102.84375 72.390625 Z M 102.84375 72.390625 "/>
<path style=" stroke:none;fill-rule:nonzero;fill:rgb(100%,100%,100%);fill-opacity:1;" d="M 109 72.390625 L 109.539062 72.390625 C 109.703125 72.390625 109.835938 72.523438 109.835938 72.6875 C 109.835938 72.851562 109.703125 72.984375 109.539062 72.984375 L 109 72.984375 C 108.839844 72.984375 108.707031 72.851562 108.707031 72.6875 C 108.707031 72.523438 108.839844 72.390625 109 72.390625 Z M 109 72.390625 "/>
<path style=" stroke:none;fill-rule:nonzero;fill:rgb(100%,100%,100%);fill-opacity:1;" d="M 110.746094 72.390625 L 111.285156 72.390625 C 111.449219 72.390625 111.582031 72.523438 111.582031 72.6875 C 111.582031 72.851562 111.449219 72.984375 111.285156 72.984375 L 110.746094 72.984375 C 110.582031 72.984375 110.449219 72.851562 110.449219 72.6875 C 110.449219 72.523438 110.582031 72.390625 110.746094 72.390625 Z M 110.746094 72.390625 "/>
<path style=" stroke:none;fill-rule:nonzero;fill:rgb(100%,100%,100%);fill-opacity:1;" d="M 104.519531 72.339844 L 107.863281 72.339844 C 108.027344 72.339844 108.160156 72.472656 108.160156 72.636719 C 108.160156 72.800781 108.027344 72.933594 107.863281 72.933594 L 104.519531 72.933594 C 104.355469 72.933594 104.222656 72.800781 104.222656 72.636719 C 104.222656 72.472656 104.355469 72.339844 104.519531 72.339844 Z M 104.519531 72.339844 "/>
<path style=" stroke:none;fill-rule:nonzero;fill:rgb(100%,100%,100%);fill-opacity:1;" d="M 104.074219 77.730469 L 104.613281 77.730469 C 104.777344 77.730469 104.910156 77.863281 104.910156 78.027344 C 104.910156 78.191406 104.777344 78.324219 104.613281 78.324219 L 104.074219 78.324219 C 103.914062 78.324219 103.78125 78.191406 103.78125 78.027344 C 103.78125 77.863281 103.914062 77.730469 104.074219 77.730469 Z M 104.074219 77.730469 "/>
<path style=" stroke:none;fill-rule:nonzero;fill:rgb(100%,100%,100%);fill-opacity:1;" d="M 105.820312 77.730469 L 106.359375 77.730469 C 106.523438 77.730469 106.652344 77.863281 106.652344 78.027344 C 106.652344 78.191406 106.523438 78.324219 106.359375 78.324219 L 105.820312 78.324219 C 105.65625 78.324219 105.523438 78.191406 105.523438 78.027344 C 105.523438 77.863281 105.65625 77.730469 105.820312 77.730469 Z M 105.820312 77.730469 "/>
<path style=" stroke:none;fill-rule:nonzero;fill:rgb(100%,100%,100%);fill-opacity:1;" d="M 107.804688 77.777344 L 111.148438 77.777344 C 111.3125 77.777344 111.445312 77.910156 111.445312 78.074219 C 111.445312 78.238281 111.3125 78.375 111.148438 78.375 L 107.804688 78.375 C 107.640625 78.375 107.507812 78.238281 107.507812 78.074219 C 107.507812 77.910156 107.640625 77.777344 107.804688 77.777344 Z M 107.804688 77.777344 "/>
<path style=" stroke:none;fill-rule:nonzero;fill:rgb(100%,100%,100%);fill-opacity:1;" d="M 97.917969 77.730469 L 98.457031 77.730469 C 98.621094 77.730469 98.753906 77.863281 98.753906 78.027344 C 98.753906 78.191406 98.621094 78.324219 98.457031 78.324219 L 97.917969 78.324219 C 97.753906 78.324219 97.621094 78.191406 97.621094 78.027344 C 97.621094 77.863281 97.753906 77.730469 97.917969 77.730469 Z M 97.917969 77.730469 "/>
<path style=" stroke:none;fill-rule:nonzero;fill:rgb(100%,100%,100%);fill-opacity:1;" d="M 99.59375 77.777344 L 102.9375 77.777344 C 103.101562 77.777344 103.234375 77.910156 103.234375 78.074219 C 103.234375 78.238281 103.101562 78.375 102.9375 78.375 L 99.59375 78.375 C 99.429688 78.375 99.296875 78.238281 99.296875 78.074219 C 99.296875 77.910156 99.429688 77.777344 99.59375 77.777344 Z M 99.59375 77.777344 "/>
<path style=" stroke:none;fill-rule:nonzero;fill:rgb(100%,100%,100%);fill-opacity:1;" d="M 99.558594 76.386719 L 100.097656 76.386719 C 100.261719 76.386719 100.394531 76.519531 100.394531 76.683594 C 100.394531 76.847656 100.261719 76.980469 100.097656 76.980469 L 99.558594 76.980469 C 99.398438 76.980469 99.265625 76.847656 99.265625 76.683594 C 99.265625 76.519531 99.398438 76.386719 99.558594 76.386719 Z M 99.558594 76.386719 "/>
<path style=" stroke:none;fill-rule:nonzero;fill:rgb(100%,100%,100%);fill-opacity:1;" d="M 105.71875 76.386719 L 106.257812 76.386719 C 106.417969 76.386719 106.550781 76.519531 106.550781 76.683594 C 106.550781 76.847656 106.417969 76.980469 106.257812 76.980469 L 105.71875 76.980469 C 105.554688 76.980469 105.421875 76.847656 105.421875 76.683594 C 105.421875 76.519531 105.554688 76.386719 105.71875 76.386719 Z M 105.71875 76.386719 "/>
<path style=" stroke:none;fill-rule:nonzero;fill:rgb(100%,100%,100%);fill-opacity:1;" d="M 107.460938 76.386719 L 108 76.386719 C 108.164062 76.386719 108.296875 76.519531 108.296875 76.683594 C 108.296875 76.847656 108.164062 76.980469 108 76.980469 L 107.460938 76.980469 C 107.300781 76.980469 107.167969 76.847656 107.167969 76.683594 C 107.167969 76.519531 107.300781 76.386719 107.460938 76.386719 Z M 107.460938 76.386719 "/>
<path style=" stroke:none;fill-rule:nonzero;fill:rgb(100%,100%,100%);fill-opacity:1;" d="M 101.234375 76.433594 L 104.582031 76.433594 C 104.746094 76.433594 104.875 76.570312 104.875 76.734375 C 104.875 76.898438 104.746094 77.03125 104.582031 77.03125 L 101.234375 77.03125 C 101.070312 77.03125 100.941406 76.898438 100.941406 76.734375 C 100.941406 76.570312 101.070312 76.433594 101.234375 76.433594 Z M 101.234375 76.433594 "/>
<path style=" stroke:none;fill-rule:nonzero;fill:rgb(100%,100%,100%);fill-opacity:1;" d="M 101.203125 75.042969 L 101.742188 75.042969 C 101.902344 75.042969 102.035156 75.175781 102.035156 75.339844 C 102.035156 75.503906 101.902344 75.636719 101.742188 75.636719 L 101.203125 75.636719 C 101.039062 75.636719 100.90625 75.503906 100.90625 75.339844 C 100.90625 75.175781 101.039062 75.042969 101.203125 75.042969 Z M 101.203125 75.042969 "/>
<path style=" stroke:none;fill-rule:nonzero;fill:rgb(100%,100%,100%);fill-opacity:1;" d="M 107.359375 75.042969 L 107.898438 75.042969 C 108.0625 75.042969 108.195312 75.175781 108.195312 75.339844 C 108.195312 75.503906 108.0625 75.636719 107.898438 75.636719 L 107.359375 75.636719 C 107.195312 75.636719 107.0625 75.503906 107.0625 75.339844 C 107.0625 75.175781 107.195312 75.042969 107.359375 75.042969 Z M 107.359375 75.042969 "/>
<path style=" stroke:none;fill-rule:nonzero;fill:rgb(100%,100%,100%);fill-opacity:1;" d="M 109.105469 75.042969 L 109.644531 75.042969 C 109.804688 75.042969 109.9375 75.175781 109.9375 75.339844 C 109.9375 75.503906 109.804688 75.636719 109.644531 75.636719 L 109.105469 75.636719 C 108.941406 75.636719 108.808594 75.503906 108.808594 75.339844 C 108.808594 75.175781 108.941406 75.042969 109.105469 75.042969 Z M 109.105469 75.042969 "/>
<path style=" stroke:none;fill-rule:nonzero;fill:rgb(100%,100%,100%);fill-opacity:1;" d="M 102.878906 75.09375 L 106.222656 75.09375 C 106.386719 75.09375 106.519531 75.226562 106.519531 75.390625 C 106.519531 75.554688 106.386719 75.6875 106.222656 75.6875 L 102.878906 75.6875 C 102.714844 75.6875 102.582031 75.554688 102.582031 75.390625 C 102.582031 75.226562 102.714844 75.09375 102.878906 75.09375 Z M 102.878906 75.09375 "/>
<path style=" stroke:none;fill-rule:nonzero;fill:rgb(100%,100%,100%);fill-opacity:1;" d="M 102.84375 73.699219 L 103.382812 73.699219 C 103.546875 73.699219 103.679688 73.832031 103.679688 73.996094 C 103.679688 74.160156 103.546875 74.296875 103.382812 74.296875 L 102.84375 74.296875 C 102.679688 74.296875 102.546875 74.160156 102.546875 73.996094 C 102.546875 73.832031 102.679688 73.699219 102.84375 73.699219 Z M 102.84375 73.699219 "/>
<path style=" stroke:none;fill-rule:nonzero;fill:rgb(100%,100%,100%);fill-opacity:1;" d="M 109 73.699219 L 109.539062 73.699219 C 109.703125 73.699219 109.835938 73.832031 109.835938 73.996094 C 109.835938 74.160156 109.703125 74.296875 109.539062 74.296875 L 109 74.296875 C 108.839844 74.296875 108.707031 74.160156 108.707031 73.996094 C 108.707031 73.832031 108.839844 73.699219 109 73.699219 Z M 109 73.699219 "/>
<path style=" stroke:none;fill-rule:nonzero;fill:rgb(100%,100%,100%);fill-opacity:1;" d="M 110.746094 73.699219 L 111.285156 73.699219 C 111.449219 73.699219 111.582031 73.832031 111.582031 73.996094 C 111.582031 74.160156 111.449219 74.296875 111.285156 74.296875 L 110.746094 74.296875 C 110.582031 74.296875 110.449219 74.160156 110.449219 73.996094 C 110.449219 73.832031 110.582031 73.699219 110.746094 73.699219 Z M 110.746094 73.699219 "/>
<path style=" stroke:none;fill-rule:nonzero;fill:rgb(100%,100%,100%);fill-opacity:1;" d="M 104.519531 73.75 L 107.863281 73.75 C 108.027344 73.75 108.160156 73.882812 108.160156 74.046875 C 108.160156 74.210938 108.027344 74.34375 107.863281 74.34375 L 104.519531 74.34375 C 104.355469 74.34375 104.222656 74.210938 104.222656 74.046875 C 104.222656 73.882812 104.355469 73.75 104.519531 73.75 Z M 104.519531 73.75 "/>
<path style=" stroke:none;fill-rule:nonzero;fill:rgb(100%,71.372549%,71.372549%);fill-opacity:1;" d="M 95.59375 93.464844 L 93.066406 89.445312 L 101 83.078125 L 104.273438 79.429688 C 105.140625 78.460938 106.449219 78.035156 107.714844 78.300781 C 108.980469 78.570312 110.007812 79.496094 110.410156 80.730469 C 111.027344 82.597656 110.054688 84.621094 108.222656 85.300781 L 103.042969 87.222656 Z M 95.59375 93.464844 "/>
<path style=" stroke:none;fill-rule:nonzero;fill:rgb(18.431373%,18.039216%,25.490196%);fill-opacity:1;" d="M 36.292969 64.308594 L 36.292969 83.855469 L 49.894531 83.855469 L 49.894531 64.308594 C 49.894531 64.023438 49.707031 63.765625 49.433594 63.679688 C 49.371094 63.660156 49.304688 63.648438 49.238281 63.652344 L 36.949219 63.652344 C 36.585938 63.648438 36.292969 63.945312 36.292969 64.308594 Z M 41.601562 71.027344 C 41.609375 70.222656 42.257812 69.578125 43.054688 69.578125 C 43.851562 69.578125 44.496094 70.222656 44.503906 71.027344 L 44.503906 73.292969 C 44.5 74.097656 43.851562 74.746094 43.054688 74.746094 C 42.253906 74.746094 41.605469 74.097656 41.601562 73.292969 Z M 41.601562 71.027344 "/>
<path style=" stroke:none;fill-rule:nonzero;fill:rgb(24.705882%,23.921569%,33.72549%);fill-opacity:1;" d="M 36.25 83.230469 L 36.25 85.113281 C 36.25 85.316406 36.414062 85.480469 36.617188 85.484375 L 49.570312 85.484375 C 49.773438 85.480469 49.9375 85.316406 49.9375 85.113281 L 49.9375 83.230469 Z M 36.25 83.230469 "/>
<path style=" stroke:none;fill-rule:nonzero;fill:rgb(24.705882%,23.921569%,33.72549%);fill-opacity:1;" d="M 14.890625 34.863281 L 14.890625 70.550781 C 14.894531 71.496094 15.65625 72.261719 16.597656 72.265625 L 69.132812 72.265625 C 70.074219 72.261719 70.835938 71.496094 70.839844 70.550781 L 70.839844 34.863281 C 70.835938 33.917969 70.074219 33.152344 69.132812 33.152344 L 16.597656 33.152344 C 15.65625 33.152344 14.894531 33.917969 14.890625 34.863281 Z M 14.890625 34.863281 "/>
<path style=" stroke:none;fill-rule:nonzero;fill:rgb(100%,100%,100%);fill-opacity:1;" d="M 16.125 35.308594 L 16.125 70.109375 C 16.125 70.613281 16.53125 71.023438 17.035156 71.027344 L 68.695312 71.027344 C 69.199219 71.023438 69.605469 70.613281 69.609375 70.109375 L 69.609375 35.308594 C 69.609375 34.800781 69.199219 34.390625 68.695312 34.390625 L 17.035156 34.390625 C 16.53125 34.390625 16.125 34.800781 16.125 35.308594 Z M 16.125 35.308594 "/>
<path style=" stroke:none;fill-rule:nonzero;fill:rgb(18.431373%,18.039216%,25.490196%);fill-opacity:1;" d="M 25.710938 85.355469 C 25.820312 85.488281 25.980469 85.566406 26.152344 85.566406 L 56.886719 85.566406 C 57.058594 85.566406 57.21875 85.488281 57.324219 85.355469 C 57.433594 85.222656 57.476562 85.046875 57.441406 84.882812 L 56.960938 82.601562 C 56.921875 82.410156 56.789062 82.253906 56.609375 82.1875 C 56.546875 82.160156 56.480469 82.148438 56.410156 82.148438 L 26.625 82.148438 C 26.558594 82.148438 26.488281 82.160156 26.425781 82.1875 C 26.246094 82.253906 26.113281 82.410156 26.074219 82.601562 L 25.597656 84.882812 C 25.5625 85.046875 25.605469 85.222656 25.710938 85.355469 Z M 25.710938 85.355469 "/>
<path style=" stroke:none;fill-rule:nonzero;fill:rgb(24.705882%,23.921569%,33.72549%);fill-opacity:1;" d="M 67.019531 39.183594 L 18.679688 39.183594 C 18.578125 39.183594 18.492188 39.097656 18.492188 38.992188 C 18.492188 38.886719 18.578125 38.800781 18.679688 38.796875 L 67.019531 38.796875 C 67.125 38.800781 67.207031 38.886719 67.207031 38.992188 C 67.207031 39.097656 67.125 39.183594 67.019531 39.183594 Z M 67.019531 39.183594 "/>
<path style=" stroke:none;fill-rule:nonzero;fill:rgb(24.705882%,23.921569%,33.72549%);fill-opacity:1;" d="M 23.097656 36.648438 C 23.097656 36.011719 22.59375 35.492188 21.972656 35.492188 C 21.347656 35.492188 20.84375 36.011719 20.84375 36.648438 C 20.84375 37.289062 21.347656 37.808594 21.972656 37.808594 C 22.59375 37.808594 23.097656 37.289062 23.097656 36.648438 Z M 23.097656 36.648438 "/>
<path style=" stroke:none;fill-rule:nonzero;fill:rgb(24.705882%,23.921569%,33.72549%);fill-opacity:1;" d="M 26.988281 36.648438 C 26.988281 36.011719 26.484375 35.492188 25.863281 35.492188 C 25.242188 35.492188 24.738281 36.011719 24.738281 36.648438 C 24.738281 37.289062 25.242188 37.808594 25.863281 37.808594 C 26.484375 37.808594 26.988281 37.289062 26.988281 36.648438 Z M 26.988281 36.648438 "/>
<path style=" stroke:none;fill-rule:nonzero;fill:rgb(24.705882%,23.921569%,33.72549%);fill-opacity:1;" d="M 30.882812 36.648438 C 30.882812 36.011719 30.378906 35.492188 29.753906 35.492188 C 29.132812 35.492188 28.628906 36.011719 28.628906 36.648438 C 28.628906 37.289062 29.132812 37.808594 29.753906 37.808594 C 30.378906 37.808594 30.882812 37.289062 30.882812 36.648438 Z M 30.882812 36.648438 "/>
<path style=" stroke:none;fill-rule:nonzero;fill:rgb(24.705882%,23.921569%,33.72549%);fill-opacity:1;" d="M 64.675781 35.777344 L 61.914062 35.777344 C 61.800781 35.78125 61.707031 35.875 61.707031 35.988281 C 61.707031 36.101562 61.800781 36.195312 61.914062 36.199219 L 64.675781 36.199219 C 64.792969 36.195312 64.882812 36.101562 64.882812 35.988281 C 64.882812 35.875 64.792969 35.78125 64.675781 35.777344 Z M 64.675781 35.777344 "/>
<path style=" stroke:none;fill-rule:nonzero;fill:rgb(24.705882%,23.921569%,33.72549%);fill-opacity:1;" d="M 64.675781 36.570312 L 61.914062 36.570312 C 61.800781 36.570312 61.707031 36.664062 61.707031 36.777344 C 61.707031 36.894531 61.800781 36.988281 61.914062 36.988281 L 64.675781 36.988281 C 64.792969 36.988281 64.882812 36.894531 64.882812 36.777344 C 64.882812 36.664062 64.792969 36.570312 64.675781 36.570312 Z M 64.675781 36.570312 "/>
<path style=" stroke:none;fill-rule:nonzero;fill:rgb(24.705882%,23.921569%,33.72549%);fill-opacity:1;" d="M 64.675781 37.359375 L 61.914062 37.359375 C 61.800781 37.363281 61.707031 37.457031 61.707031 37.570312 C 61.707031 37.683594 61.800781 37.777344 61.914062 37.78125 L 64.675781 37.78125 C 64.792969 37.777344 64.882812 37.683594 64.882812 37.570312 C 64.882812 37.453125 64.792969 37.359375 64.675781 37.359375 Z M 64.675781 37.359375 "/>
<path style=" stroke:none;fill-rule:nonzero;fill:rgb(18.431373%,18.039216%,25.490196%);fill-opacity:1;" d="M 131.316406 84.054688 C 131.488281 84.558594 131.960938 84.890625 132.488281 84.882812 L 137.503906 84.75 C 138.035156 84.742188 138.496094 84.378906 138.632812 83.863281 L 139.34375 76.226562 C 139.597656 76.339844 139.871094 76.398438 140.148438 76.390625 C 141.15625 76.367188 141.953125 75.519531 141.929688 74.503906 C 141.902344 73.488281 141.066406 72.683594 140.054688 72.710938 C 139.945312 72.710938 139.835938 72.722656 139.726562 72.746094 C 139.488281 72.484375 139.152344 72.339844 138.804688 72.34375 L 131.089844 72.542969 C 131.023438 72.546875 130.960938 72.554688 130.898438 72.566406 C 130.554688 72.632812 130.257812 72.84375 130.082031 73.144531 C 129.902344 73.445312 129.867188 73.808594 129.976562 74.144531 Z M 139.488281 75.707031 L 139.996094 73.886719 C 140.050781 73.675781 140.054688 73.453125 140 73.242188 C 140.023438 73.242188 140.046875 73.230469 140.070312 73.230469 C 140.789062 73.214844 141.386719 73.792969 141.40625 74.515625 C 141.421875 75.242188 140.851562 75.84375 140.128906 75.863281 C 139.90625 75.871094 139.683594 75.816406 139.488281 75.707031 Z M 139.488281 75.707031 "/>
<path style=" stroke:none;fill-rule:nonzero;fill:rgb(24.705882%,23.921569%,33.72549%);fill-opacity:1;" d="M 130.898438 72.566406 C 131.0625 73.515625 132.910156 74.179688 135.132812 74.0625 C 137.175781 73.96875 138.847656 73.246094 139.152344 72.390625 C 139.039062 72.355469 138.921875 72.339844 138.804688 72.34375 L 131.089844 72.542969 C 131.023438 72.546875 130.960938 72.554688 130.898438 72.566406 Z M 130.898438 72.566406 "/>
<path style=" stroke:none;fill-rule:nonzero;fill:rgb(42.352941%,38.823529%,100%);fill-opacity:1;" d="M 135.539062 79.859375 C 135.550781 79.855469 135.558594 79.851562 135.566406 79.84375 L 136.65625 79.128906 C 136.683594 79.109375 136.699219 79.082031 136.699219 79.046875 C 136.699219 79.015625 136.683594 78.984375 136.65625 78.96875 L 135.527344 78.222656 C 135.496094 78.203125 135.460938 78.203125 135.429688 78.214844 C 135.402344 78.230469 135.378906 78.261719 135.378906 78.296875 C 135.375 78.332031 135.394531 78.363281 135.421875 78.382812 L 136.433594 79.046875 L 135.464844 79.6875 C 135.425781 79.710938 135.410156 79.761719 135.429688 79.804688 C 135.449219 79.847656 135.496094 79.871094 135.539062 79.859375 Z M 135.539062 79.859375 "/>
<path style=" stroke:none;fill-rule:nonzero;fill:rgb(42.352941%,38.823529%,100%);fill-opacity:1;" d="M 133.820312 79.9375 C 133.855469 79.929688 133.882812 79.898438 133.890625 79.859375 C 133.894531 79.820312 133.875 79.78125 133.84375 79.761719 L 132.839844 79.183594 L 133.808594 78.457031 C 133.851562 78.425781 133.859375 78.367188 133.828125 78.324219 C 133.796875 78.28125 133.738281 78.273438 133.695312 78.304688 L 132.609375 79.117188 C 132.585938 79.136719 132.570312 79.167969 132.570312 79.199219 C 132.574219 79.230469 132.59375 79.261719 132.621094 79.277344 L 133.75 79.929688 C 133.769531 79.941406 133.796875 79.945312 133.820312 79.9375 Z M 133.820312 79.9375 "/>
<path style=" stroke:none;fill-rule:nonzero;fill:rgb(42.352941%,38.823529%,100%);fill-opacity:1;" d="M 135.429688 80.488281 C 135.441406 80.484375 135.449219 80.480469 135.457031 80.476562 C 135.480469 80.464844 135.496094 80.441406 135.5 80.417969 C 135.507812 80.394531 135.503906 80.367188 135.488281 80.34375 L 133.945312 77.789062 C 133.917969 77.746094 133.859375 77.730469 133.816406 77.757812 C 133.769531 77.785156 133.757812 77.84375 133.785156 77.890625 L 135.328125 80.445312 C 135.347656 80.480469 135.390625 80.496094 135.429688 80.488281 Z M 135.429688 80.488281 "/>
<path style=" stroke:none;fill-rule:nonzero;fill:rgb(42.352941%,38.823529%,100%);fill-opacity:1;" d="M 40.261719 49.703125 L 48.625 49.703125 C 48.96875 49.703125 49.246094 49.980469 49.246094 50.324219 L 49.246094 51.148438 C 49.246094 51.492188 48.96875 51.769531 48.625 51.769531 L 40.261719 51.769531 C 39.917969 51.769531 39.640625 51.492188 39.640625 51.148438 L 39.640625 50.324219 C 39.640625 49.980469 39.917969 49.703125 40.261719 49.703125 Z M 40.261719 49.703125 "/>
<path style=" stroke:none;fill-rule:nonzero;fill:rgb(90.196078%,90.196078%,90.196078%);fill-opacity:1;" d="M 35.382812 53.835938 L 53.503906 53.835938 C 53.84375 53.835938 54.121094 54.113281 54.121094 54.457031 L 54.121094 55.28125 C 54.121094 55.625 53.84375 55.902344 53.503906 55.902344 L 35.382812 55.902344 C 35.042969 55.902344 34.765625 55.625 34.765625 55.28125 L 34.765625 54.457031 C 34.765625 54.113281 35.042969 53.835938 35.382812 53.835938 Z M 35.382812 53.835938 "/>
<path style=" stroke:none;fill-rule:nonzero;fill:rgb(90.196078%,90.196078%,90.196078%);fill-opacity:1;" d="M 35.382812 57.96875 L 53.503906 57.96875 C 53.84375 57.96875 54.121094 58.25 54.121094 58.59375 L 54.121094 59.414062 C 54.121094 59.757812 53.84375 60.035156 53.503906 60.035156 L 35.382812 60.035156 C 35.042969 60.035156 34.765625 59.757812 34.765625 59.414062 L 34.765625 58.59375 C 34.765625 58.25 35.042969 57.96875 35.382812 57.96875 Z M 35.382812 57.96875 "/>
<path style=" stroke:none;fill-rule:nonzero;fill:rgb(24.705882%,23.921569%,33.72549%);fill-opacity:1;" d="M 55.039062 71.8125 L 55.082031 71.941406 L 55.082031 71.945312 L 56.316406 75.726562 L 57.738281 80.082031 L 60.414062 88.269531 L 60.4375 89.542969 L 60.4375 89.546875 L 60.636719 99.777344 L 60.085938 101.164062 L 60.707031 103.4375 C 60.707031 103.4375 60.421875 100 58.890625 101.972656 C 58.027344 103.09375 57.011719 104.242188 56.183594 105.320312 C 57.394531 105.8125 58.625 106.257812 59.875 106.65625 C 60.144531 106.746094 60.417969 106.828125 60.6875 106.910156 C 60.746094 106.925781 60.804688 106.945312 60.863281 106.960938 C 65.007812 108.195312 69.296875 108.890625 73.617188 109.023438 C 73.839844 109.03125 74.058594 109.035156 74.273438 109.039062 C 74.351562 109.042969 74.421875 109.042969 74.496094 109.042969 C 74.738281 109.046875 74.976562 109.050781 75.21875 109.050781 C 75.707031 109.050781 76.195312 109.042969 76.679688 109.027344 C 80.257812 108.925781 83.820312 108.441406 87.296875 107.582031 C 87.273438 106.136719 87.210938 104.445312 87.117188 102.644531 C 87.074219 101.757812 86.101562 100.800781 86.046875 99.875 C 86.003906 99.175781 86.875 98.523438 86.828125 97.816406 C 86.535156 93.46875 86.167969 95.136719 85.894531 92.054688 C 85.867188 91.753906 85.84375 91.464844 85.816406 91.1875 C 85.644531 89.210938 85.523438 87.972656 85.523438 87.972656 L 86.683594 80.601562 L 88.507812 69.027344 L 88.367188 68.796875 L 88.210938 68.71875 L 78.585938 63.921875 L 78.0625 62.574219 C 77.75 61.78125 76.992188 61.257812 76.140625 61.25 L 69.800781 61.226562 C 69.132812 61.222656 68.503906 61.542969 68.113281 62.089844 L 66.398438 64.480469 Z M 55.039062 71.8125 "/>
<path style=" stroke:none;fill-rule:nonzero;fill:rgb(24.705882%,23.921569%,33.72549%);fill-opacity:1;" d="M 61.875 86.449219 L 60.4375 89.542969 L 59.457031 91.65625 L 57.769531 100.542969 L 56.925781 101.445312 L 56.203125 98.25 L 48.628906 99.945312 C 48.382812 98.554688 48.5625 99.992188 48.410156 98.46875 C 48.453125 98.421875 48.5 98.378906 48.542969 98.335938 C 48.664062 98.222656 48.765625 98.117188 48.765625 98.015625 C 48.679688 92.757812 48.9375 83.8125 51.101562 78.394531 C 51.441406 77.507812 51.886719 76.671875 52.433594 75.894531 C 52.476562 75.835938 52.515625 75.777344 52.558594 75.71875 C 53.554688 74.3125 54.1875 72.929688 55.082031 71.945312 L 55.082031 71.941406 C 55.085938 71.9375 55.089844 71.933594 55.09375 71.925781 C 55.097656 71.925781 55.101562 71.921875 55.105469 71.921875 L 61.246094 68.640625 L 61.511719 76.09375 L 61.699219 81.449219 Z M 61.875 86.449219 "/>
<path style=" stroke:none;fill-rule:nonzero;fill:rgb(24.705882%,23.921569%,33.72549%);fill-opacity:1;" d="M 84.023438 87.328125 L 85.816406 91.191406 L 86.445312 92.535156 L 88.128906 101.421875 L 88.972656 102.324219 L 89.695312 99.128906 L 90.039062 99.058594 L 96.183594 97.78125 L 97.972656 103.503906 C 98.804688 102.109375 98.546875 100.316406 97.355469 99.214844 C 97.234375 99.105469 97.132812 98.996094 97.136719 98.894531 C 97.238281 92.710938 96.863281 81.421875 93.46875 76.777344 C 92.390625 75.300781 91.746094 73.832031 90.804688 72.808594 C 90.800781 72.804688 90.800781 72.800781 90.796875 72.800781 L 88.507812 69.027344 L 88.367188 68.796875 L 88.210938 68.71875 Z M 84.023438 87.328125 "/>
<path style=" stroke:none;fill-rule:nonzero;fill:rgb(100%,71.372549%,71.372549%);fill-opacity:1;" d="M 81.589844 50.917969 C 81.589844 55.605469 77.8125 59.410156 73.15625 59.410156 C 68.496094 59.410156 64.71875 55.605469 64.71875 50.917969 C 64.71875 46.226562 68.496094 42.425781 73.15625 42.425781 C 77.8125 42.425781 81.589844 46.226562 81.589844 50.917969 Z M 81.589844 50.917969 "/>
<path style=" stroke:none;fill-rule:nonzero;fill:rgb(18.431373%,18.039216%,25.490196%);fill-opacity:1;" d="M 84.558594 44.988281 C 84.425781 44.84375 84.242188 44.761719 84.046875 44.761719 L 84.175781 44.40625 C 84.257812 44.179688 84.214844 43.921875 84.058594 43.738281 C 83.90625 43.550781 83.664062 43.464844 83.425781 43.511719 L 82.964844 43.597656 L 83.007812 43.289062 C 83.039062 43.054688 82.949219 42.816406 82.765625 42.667969 C 82.582031 42.519531 82.332031 42.476562 82.113281 42.5625 C 81.910156 42.640625 81.683594 42.625 81.496094 42.515625 C 81.308594 42.414062 81.175781 42.230469 81.132812 42.019531 L 80.972656 41.238281 L 80.957031 41.195312 C 80.171875 39.882812 78.664062 38.925781 76.820312 38.574219 C 75.179688 38.261719 73.496094 38.421875 71.875 38.570312 C 71.230469 38.632812 70.503906 38.699219 69.898438 39.074219 C 69.382812 39.394531 68.949219 40.035156 69.035156 40.679688 C 67.4375 40.1875 65.722656 41.171875 64.871094 42.414062 C 63.863281 43.894531 63.699219 45.746094 63.671875 47.191406 C 63.601562 50.621094 64.304688 53.421875 65.753906 55.527344 C 65.863281 55.679688 65.886719 55.996094 66.097656 56.105469 L 66.054688 56.035156 C 66.289062 56.152344 66.527344 56.34375 66.4375 56.546875 C 66.183594 57.132812 67.882812 58.429688 69.078125 58.859375 C 71.261719 59.640625 74.164062 59.574219 76.203125 59.292969 L 76.277344 58.808594 C 77.011719 58.707031 77.53125 58.515625 77.675781 58.214844 C 77.933594 57.992188 78.15625 57.792969 78.34375 57.609375 L 78.347656 57.609375 C 78.351562 57.605469 78.359375 57.601562 78.363281 57.597656 C 79.285156 56.707031 79.5 56.199219 79.59375 55.425781 C 79.6875 54.671875 79.523438 53.902344 79.355469 53.210938 C 82.902344 53.765625 77.957031 49.40625 81.261719 48.566406 C 81.300781 48.554688 81.339844 48.542969 81.378906 48.535156 C 81.476562 48.515625 81.570312 48.492188 81.664062 48.464844 C 82.113281 48.34375 82.539062 48.15625 82.9375 47.917969 C 83.859375 47.351562 84.164062 46.601562 84.644531 45.753906 C 84.785156 45.507812 84.75 45.195312 84.558594 44.988281 Z M 84.558594 44.988281 "/>
<path style=" stroke:none;fill-rule:nonzero;fill:rgb(18.431373%,18.039216%,25.490196%);fill-opacity:1;" d="M 102.992188 87.929688 C 102.992188 88.265625 102.988281 88.730469 102.972656 89.308594 C 102.96875 89.390625 102.96875 89.472656 102.964844 89.554688 C 102.941406 90.617188 102.917969 91.507812 102.875 92.496094 C 102.875 92.5625 102.871094 92.628906 102.867188 92.699219 C 102.816406 94.078125 102.734375 95.683594 102.589844 98.230469 C 102.320312 102.929688 101.855469 98.875 101.386719 100.523438 C 101.367188 100.605469 101.339844 100.703125 101.320312 100.816406 C 101.246094 101.230469 101.128906 101.636719 100.960938 102.023438 C 100.714844 102.171875 100.460938 102.316406 100.207031 102.457031 C 99.488281 102.859375 98.761719 103.246094 98.027344 103.613281 C 97.613281 103.820312 97.199219 104.023438 96.78125 104.214844 C 96.714844 104.246094 96.652344 104.277344 96.585938 104.304688 C 94.453125 105.300781 92.257812 106.144531 90.007812 106.832031 C 89.570312 106.964844 89.132812 107.09375 88.6875 107.214844 C 88.226562 107.34375 87.765625 107.46875 87.296875 107.582031 C 83.816406 108.441406 80.257812 108.925781 76.675781 109.027344 C 76.195312 109.042969 75.707031 109.050781 75.21875 109.050781 C 74.976562 109.050781 74.738281 109.046875 74.496094 109.046875 C 74.421875 109.046875 74.347656 109.042969 74.273438 109.042969 C 74.0625 109.035156 73.839844 109.03125 73.617188 109.027344 C 69.296875 108.890625 65.011719 108.195312 60.863281 106.960938 L 60.6875 106.910156 C 60.417969 106.828125 60.144531 106.746094 59.875 106.65625 C 58.625 106.257812 57.394531 105.8125 56.179688 105.320312 C 55.253906 104.945312 54.339844 104.542969 53.4375 104.113281 C 53.425781 104.109375 53.421875 104.105469 53.414062 104.101562 C 53.222656 104.011719 53.03125 103.921875 52.84375 103.828125 C 52.820312 103.8125 52.792969 103.800781 52.765625 103.789062 C 52.058594 103.441406 51.359375 103.078125 50.667969 102.699219 C 50.089844 101.355469 49.269531 101.097656 48.761719 99.914062 C 48.617188 99.5625 48.507812 99.199219 48.445312 98.820312 C 48.445312 98.816406 48.445312 98.8125 48.445312 98.808594 C 48.496094 99.515625 48.21875 97.550781 48.441406 98.800781 C 48.441406 98.777344 48.4375 98.753906 48.4375 98.722656 C 48.429688 98.65625 48.421875 98.570312 48.410156 98.46875 C 47.761719 92.085938 47.804688 84.785156 47.519531 78.773438 C 47.503906 78.382812 47.484375 78.011719 47.460938 77.65625 C 47.457031 77.539062 47.449219 77.421875 47.441406 77.308594 C 47.457031 77.273438 47.46875 77.238281 47.488281 77.203125 C 47.492188 77.191406 47.496094 77.183594 47.5 77.175781 C 47.507812 77.164062 47.511719 77.152344 47.519531 77.140625 C 47.523438 77.132812 47.527344 77.125 47.53125 77.121094 C 47.535156 77.113281 47.539062 77.109375 47.542969 77.101562 C 47.558594 77.074219 47.578125 77.046875 47.597656 77.019531 C 47.609375 77.007812 47.617188 77 47.625 76.988281 C 47.632812 76.980469 47.640625 76.96875 47.648438 76.960938 C 47.652344 76.953125 47.660156 76.945312 47.667969 76.9375 C 47.675781 76.929688 47.683594 76.921875 47.695312 76.910156 C 47.699219 76.90625 47.703125 76.898438 47.707031 76.894531 C 47.722656 76.878906 47.742188 76.863281 47.757812 76.847656 C 47.824219 76.785156 47.898438 76.726562 47.972656 76.675781 C 48 76.660156 48.027344 76.640625 48.054688 76.625 C 48.246094 76.507812 48.445312 76.410156 48.65625 76.332031 C 48.726562 76.308594 48.800781 76.28125 48.878906 76.253906 C 48.90625 76.246094 48.933594 76.238281 48.960938 76.230469 C 49 76.214844 49.042969 76.203125 49.085938 76.191406 C 49.304688 76.128906 49.535156 76.074219 49.789062 76.019531 C 49.816406 76.015625 49.851562 76.007812 49.882812 76.003906 C 49.929688 75.992188 49.976562 75.984375 50.023438 75.976562 C 50.085938 75.964844 50.152344 75.953125 50.21875 75.941406 C 50.78125 75.851562 51.417969 75.785156 52.125 75.742188 C 52.191406 75.738281 52.257812 75.734375 52.324219 75.730469 C 52.398438 75.726562 52.476562 75.722656 52.558594 75.71875 C 52.625 75.714844 52.691406 75.714844 52.761719 75.710938 C 52.828125 75.707031 52.894531 75.707031 52.964844 75.703125 C 53.15625 75.699219 53.351562 75.695312 53.554688 75.691406 C 54.125 75.679688 54.726562 75.683594 55.359375 75.695312 C 55.652344 75.703125 55.953125 75.710938 56.257812 75.722656 C 56.28125 75.722656 56.296875 75.726562 56.316406 75.726562 C 56.585938 75.734375 56.851562 75.746094 57.128906 75.761719 C 57.324219 75.773438 57.519531 75.78125 57.710938 75.792969 C 57.898438 75.804688 58.082031 75.816406 58.269531 75.828125 C 58.414062 75.835938 58.5625 75.847656 58.707031 75.855469 C 58.832031 75.867188 58.957031 75.875 59.082031 75.882812 L 59.253906 75.894531 C 59.347656 75.902344 59.441406 75.910156 59.535156 75.917969 C 59.742188 75.933594 59.949219 75.953125 60.164062 75.96875 C 60.371094 75.988281 60.585938 76.007812 60.800781 76.027344 C 61.015625 76.046875 61.230469 76.066406 61.445312 76.085938 C 61.46875 76.089844 61.488281 76.089844 61.511719 76.09375 C 61.707031 76.113281 61.90625 76.132812 62.101562 76.15625 C 62.148438 76.160156 62.195312 76.164062 62.242188 76.167969 C 62.429688 76.1875 62.625 76.210938 62.816406 76.230469 C 62.875 76.238281 62.933594 76.242188 62.992188 76.25 C 63.140625 76.265625 63.289062 76.28125 63.441406 76.296875 C 63.640625 76.320312 63.839844 76.339844 64.039062 76.367188 C 64.191406 76.386719 64.34375 76.402344 64.5 76.421875 C 64.738281 76.449219 64.984375 76.480469 65.226562 76.511719 C 65.320312 76.523438 65.414062 76.535156 65.503906 76.550781 C 66.203125 76.636719 66.90625 76.734375 67.621094 76.835938 C 68.707031 76.988281 69.808594 77.15625 70.917969 77.339844 C 72.03125 77.519531 73.148438 77.710938 74.269531 77.910156 C 74.554688 77.964844 74.839844 78.015625 75.125 78.066406 C 75.253906 78.09375 75.382812 78.117188 75.511719 78.140625 C 75.730469 78.183594 75.949219 78.222656 76.171875 78.265625 C 76.390625 78.308594 76.609375 78.351562 76.828125 78.394531 C 77.089844 78.445312 77.355469 78.496094 77.613281 78.546875 C 79.335938 78.890625 81.046875 79.257812 82.71875 79.640625 C 82.992188 79.703125 83.265625 79.765625 83.539062 79.832031 C 84.085938 79.957031 84.625 80.085938 85.160156 80.21875 C 85.308594 80.253906 85.453125 80.289062 85.597656 80.324219 C 85.960938 80.417969 86.324219 80.507812 86.683594 80.601562 L 86.746094 80.621094 C 87.007812 80.683594 87.265625 80.75 87.523438 80.820312 C 88.132812 80.980469 88.730469 81.140625 89.316406 81.304688 C 89.707031 81.414062 90.09375 81.523438 90.472656 81.636719 C 91.042969 81.800781 91.601562 81.96875 92.144531 82.136719 C 92.28125 82.179688 92.414062 82.222656 92.546875 82.261719 C 92.945312 82.386719 93.335938 82.511719 93.71875 82.636719 C 94.019531 82.738281 94.316406 82.835938 94.605469 82.9375 C 94.898438 83.039062 95.183594 83.140625 95.464844 83.242188 C 95.644531 83.304688 95.824219 83.375 96 83.441406 C 96.257812 83.535156 96.507812 83.628906 96.753906 83.726562 C 96.828125 83.753906 96.902344 83.785156 96.976562 83.8125 C 97.023438 83.835938 97.070312 83.851562 97.117188 83.871094 C 97.203125 83.90625 97.296875 83.941406 97.382812 83.976562 C 97.472656 84.011719 97.558594 84.046875 97.644531 84.085938 C 97.730469 84.121094 97.816406 84.15625 97.902344 84.191406 C 97.988281 84.226562 98.070312 84.261719 98.152344 84.300781 C 98.222656 84.328125 98.292969 84.359375 98.359375 84.390625 C 98.492188 84.449219 98.625 84.507812 98.757812 84.570312 C 98.820312 84.601562 98.886719 84.628906 98.949219 84.660156 L 99.097656 84.726562 C 99.117188 84.738281 99.140625 84.75 99.160156 84.757812 C 99.207031 84.78125 99.257812 84.804688 99.304688 84.828125 C 99.414062 84.878906 99.523438 84.933594 99.628906 84.988281 C 99.769531 85.058594 99.90625 85.132812 100.039062 85.203125 C 100.175781 85.273438 100.304688 85.347656 100.429688 85.417969 C 100.453125 85.429688 100.46875 85.441406 100.492188 85.453125 C 100.519531 85.46875 100.546875 85.484375 100.578125 85.5 C 100.671875 85.554688 100.765625 85.613281 100.859375 85.667969 C 101.039062 85.78125 101.210938 85.890625 101.375 86 C 101.410156 86.027344 101.445312 86.050781 101.480469 86.074219 C 101.597656 86.160156 101.710938 86.242188 101.816406 86.328125 C 101.816406 86.332031 101.816406 86.332031 101.820312 86.332031 C 101.855469 86.355469 101.890625 86.386719 101.925781 86.414062 C 101.953125 86.4375 101.984375 86.460938 102.011719 86.488281 C 102.109375 86.574219 102.199219 86.65625 102.285156 86.738281 C 102.3125 86.765625 102.339844 86.792969 102.363281 86.820312 C 102.375 86.832031 102.382812 86.839844 102.394531 86.851562 C 102.433594 86.890625 102.464844 86.929688 102.496094 86.96875 C 102.503906 86.972656 102.507812 86.976562 102.511719 86.984375 C 102.558594 87.039062 102.597656 87.089844 102.636719 87.144531 C 102.65625 87.171875 102.679688 87.199219 102.695312 87.222656 C 102.71875 87.257812 102.742188 87.289062 102.757812 87.324219 C 102.777344 87.351562 102.792969 87.378906 102.804688 87.40625 C 102.847656 87.472656 102.882812 87.546875 102.910156 87.621094 C 102.929688 87.671875 102.945312 87.722656 102.960938 87.777344 C 102.972656 87.828125 102.984375 87.878906 102.992188 87.929688 Z M 102.992188 87.929688 "/>
<use xlink:href="#surface5" mask="url(#mask0)"/>
</g>
</svg>
