<?xml version="1.0" encoding="UTF-8"?>
<svg xmlns="http://www.w3.org/2000/svg" xmlns:xlink="http://www.w3.org/1999/xlink" width="500px" height="363px" viewBox="0 0 499 363" version="1.1">
<defs>
<filter id="alpha" filterUnits="objectBoundingBox" x="0%" y="0%" width="100%" height="100%">
  <feColorMatrix type="matrix" in="SourceGraphic" values="0 0 0 0 1 0 0 0 0 1 0 0 0 0 1 0 0 0 1 0"/>
</filter>
<mask id="mask0">
  <g filter="url(#alpha)">
<rect x="0" y="0" width="499" height="363" style="fill:rgb(0%,0%,0%);fill-opacity:0.2;stroke:none;"/>
  </g>
</mask>
<clipPath id="clip1">
  <rect x="0" y="0" width="499" height="363"/>
</clipPath>
<g id="surface5" clip-path="url(#clip1)">
<path style=" stroke:none;fill-rule:nonzero;fill:rgb(0%,0%,0%);fill-opacity:1;" d="M 344.921875 292.835938 C 344.914062 293.945312 344.902344 295.5 344.851562 297.421875 C 344.84375 297.691406 344.832031 297.960938 344.824219 298.242188 C 344.761719 300.9375 344.667969 304.269531 344.535156 308.035156 C 344.527344 308.261719 344.519531 308.484375 344.507812 308.714844 C 344.332031 313.308594 344.050781 318.65625 343.570312 327.128906 C 342.675781 342.777344 341.117188 329.28125 339.550781 334.769531 C 335.199219 332.09375 330.433594 329.289062 325.335938 326.40625 C 324.414062 325.886719 323.488281 325.363281 322.550781 324.839844 C 312.355469 319.144531 300.96875 313.179688 289.078125 307.273438 C 288.609375 307.039062 288.132812 306.804688 287.664062 306.574219 C 260.433594 293.101562 230.707031 279.996094 206.625 271.25 C 201.980469 269.5625 197.539062 268.039062 193.367188 266.703125 C 184.582031 263.890625 176.984375 261.921875 171.140625 261.074219 C 165.050781 260.183594 160.847656 260.5 159.148438 262.335938 C 159.085938 261.039062 159.019531 259.800781 158.953125 258.617188 C 158.925781 258.222656 158.902344 257.835938 158.875 257.453125 C 158.914062 257.351562 158.964844 257.25 159.015625 257.148438 C 159.023438 257.136719 159.027344 257.121094 159.035156 257.105469 C 159.046875 257.074219 159.0625 257.042969 159.078125 257.011719 C 159.097656 256.972656 159.117188 256.933594 159.140625 256.898438 C 159.164062 256.851562 159.1875 256.808594 159.21875 256.769531 C 159.277344 256.679688 159.339844 256.585938 159.410156 256.496094 C 159.460938 256.429688 159.515625 256.367188 159.574219 256.304688 C 159.59375 256.277344 159.617188 256.25 159.644531 256.222656 C 159.667969 256.199219 159.695312 256.167969 159.726562 256.136719 C 159.738281 256.113281 159.757812 256.097656 159.777344 256.085938 C 159.828125 256.027344 159.882812 255.972656 159.941406 255.925781 C 160.167969 255.71875 160.410156 255.527344 160.664062 255.355469 C 160.753906 255.296875 160.847656 255.238281 160.9375 255.175781 C 161.574219 254.792969 162.25 254.472656 162.945312 254.210938 C 163.1875 254.125 163.429688 254.039062 163.6875 253.953125 C 163.785156 253.925781 163.871094 253.894531 163.96875 253.863281 C 164.105469 253.820312 164.246094 253.773438 164.390625 253.742188 C 165.117188 253.527344 165.894531 253.34375 166.738281 253.171875 C 166.992188 253.121094 167.257812 253.070312 167.523438 253.027344 C 167.742188 252.988281 167.960938 252.949219 168.183594 252.910156 C 170.066406 252.613281 172.203125 252.390625 174.5625 252.246094 C 174.785156 252.230469 175.007812 252.21875 175.226562 252.207031 C 175.488281 252.195312 175.75 252.179688 176.015625 252.167969 C 176.238281 252.15625 176.464844 252.148438 176.691406 252.144531 C 176.914062 252.128906 177.144531 252.125 177.378906 252.117188 C 178.019531 252.097656 178.675781 252.078125 179.351562 252.066406 C 181.265625 252.035156 183.28125 252.046875 185.398438 252.09375 C 186.382812 252.113281 187.382812 252.144531 188.410156 252.1875 C 188.472656 252.1875 188.542969 252.195312 188.605469 252.195312 C 189.5 252.21875 190.40625 252.265625 191.328125 252.308594 C 191.972656 252.339844 192.625 252.371094 193.28125 252.410156 C 193.894531 252.449219 194.515625 252.484375 195.144531 252.53125 C 195.632812 252.554688 196.121094 252.59375 196.613281 252.625 C 197.035156 252.65625 197.453125 252.6875 197.871094 252.714844 C 198.371094 252.753906 198.871094 252.789062 199.378906 252.828125 C 200.078125 252.886719 200.773438 252.941406 201.484375 253 C 202.1875 253.0625 202.90625 253.128906 203.621094 253.191406 C 204.335938 253.253906 205.0625 253.324219 205.785156 253.394531 C 205.859375 253.398438 205.929688 253.40625 206 253.414062 C 206.660156 253.480469 207.316406 253.546875 207.984375 253.617188 C 211.671875 253.988281 215.472656 254.429688 219.378906 254.929688 C 221.710938 255.226562 224.074219 255.546875 226.464844 255.886719 C 230.097656 256.402344 233.789062 256.960938 237.503906 257.554688 C 241.226562 258.160156 244.96875 258.796875 248.734375 259.464844 C 249.683594 259.636719 250.636719 259.808594 251.59375 259.988281 C 252.761719 260.203125 253.925781 260.421875 255.09375 260.648438 C 255.828125 260.785156 256.566406 260.925781 257.300781 261.074219 C 258.175781 261.242188 259.054688 261.414062 259.929688 261.585938 C 265.695312 262.730469 271.425781 263.945312 277.019531 265.222656 C 277.9375 265.433594 278.859375 265.648438 279.769531 265.855469 C 281.597656 266.28125 283.40625 266.714844 285.199219 267.152344 C 285.691406 267.273438 286.179688 267.394531 286.667969 267.515625 C 287.894531 267.816406 289.105469 268.121094 290.300781 268.425781 L 290.300781 268.433594 C 290.371094 268.445312 290.441406 268.464844 290.511719 268.484375 C 291.386719 268.707031 292.253906 268.929688 293.117188 269.15625 C 295.152344 269.691406 297.15625 270.226562 299.121094 270.769531 C 300.429688 271.136719 301.722656 271.5 302.996094 271.867188 C 304.90625 272.425781 306.777344 272.984375 308.59375 273.542969 C 309.046875 273.683594 309.496094 273.820312 309.9375 273.953125 C 311.269531 274.375 312.578125 274.789062 313.859375 275.207031 C 314.871094 275.535156 315.863281 275.871094 316.835938 276.207031 C 317.8125 276.542969 318.773438 276.878906 319.710938 277.21875 C 320.320312 277.433594 320.914062 277.65625 321.503906 277.871094 C 322.367188 278.1875 323.203125 278.503906 324.027344 278.828125 C 324.28125 278.925781 324.527344 279.027344 324.777344 279.121094 C 325.238281 279.296875 325.6875 279.484375 326.132812 279.667969 C 326.429688 279.78125 326.722656 279.902344 327.015625 280.027344 C 327.300781 280.140625 327.589844 280.261719 327.871094 280.382812 C 328.15625 280.496094 328.433594 280.617188 328.714844 280.746094 C 328.949219 280.839844 329.175781 280.941406 329.398438 281.042969 C 329.847656 281.242188 330.296875 281.4375 330.734375 281.640625 C 330.953125 281.742188 331.167969 281.835938 331.382812 281.9375 L 331.878906 282.167969 C 331.949219 282.203125 332.015625 282.238281 332.085938 282.269531 C 332.625 282.523438 333.144531 282.777344 333.652344 283.03125 C 334.128906 283.269531 334.589844 283.511719 335.035156 283.746094 C 335.5625 284.027344 336.0625 284.300781 336.542969 284.578125 C 336.640625 284.628906 336.734375 284.6875 336.828125 284.738281 C 337.152344 284.921875 337.464844 285.113281 337.773438 285.296875 C 338.382812 285.671875 338.960938 286.039062 339.5 286.40625 C 340.03125 286.773438 340.527344 287.136719 340.988281 287.496094 C 340.988281 287.503906 340.988281 287.503906 340.996094 287.503906 C 341.21875 287.683594 341.433594 287.859375 341.636719 288.03125 C 341.964844 288.316406 342.269531 288.589844 342.546875 288.867188 C 342.640625 288.953125 342.730469 289.046875 342.816406 289.140625 C 342.851562 289.171875 342.886719 289.207031 342.917969 289.242188 C 343.050781 289.390625 343.183594 289.535156 343.308594 289.679688 C 343.460938 289.859375 343.601562 290.035156 343.734375 290.214844 C 343.796875 290.300781 343.867188 290.390625 343.925781 290.480469 C 344 290.589844 344.078125 290.703125 344.140625 290.808594 C 344.199219 290.898438 344.246094 290.996094 344.296875 291.082031 C 344.433594 291.3125 344.546875 291.550781 344.640625 291.800781 C 344.710938 291.96875 344.769531 292.144531 344.8125 292.320312 C 344.859375 292.488281 344.894531 292.660156 344.921875 292.835938 Z M 344.921875 292.835938 "/>
</g>
</defs>
<g id="surface1">
<path style=" stroke:none;fill-rule:nonzero;fill:rgb(94.901961%,94.901961%,94.901961%);fill-opacity:1;" d="M 307.53125 47.078125 C 307.53125 56.433594 299.949219 64.023438 290.601562 64.023438 C 281.25 64.023438 273.671875 56.433594 273.671875 47.078125 C 273.671875 37.71875 281.25 30.132812 290.601562 30.132812 C 299.949219 30.132812 307.53125 37.71875 307.53125 47.078125 Z M 307.53125 47.078125 "/>
<path style=" stroke:none;fill-rule:nonzero;fill:rgb(94.901961%,94.901961%,94.901961%);fill-opacity:1;" d="M 421.929688 315.5 C 447.09375 296.316406 459.113281 264.082031 451.589844 233.328125 C 451.402344 232.566406 451.203125 231.800781 450.996094 231.042969 C 446.007812 212.789062 433.667969 195.441406 415.679688 189.605469 C 400.578125 184.710938 384.089844 188.476562 368.335938 186.527344 C 337.40625 182.703125 313.425781 157.65625 296.554688 131.429688 C 279.679688 105.207031 266.714844 75.847656 244.292969 54.183594 C 207.335938 18.46875 147.054688 10.78125 101.234375 34.027344 C 55.414062 57.273438 26.226562 108.847656 27.472656 160.25 C 28.71875 211.648438 59.203125 260.792969 103.480469 286.867188 C 119.746094 296.445312 138.554688 303.230469 157.277344 300.855469 C 173.523438 298.796875 188.28125 290.058594 204.449219 287.464844 C 229.871094 283.386719 255.128906 294.890625 277.113281 308.296875 C 299.101562 321.699219 320.339844 337.589844 345.324219 343.804688 C 369.582031 349.839844 399.636719 332.492188 421.929688 315.5 Z M 421.929688 315.5 "/>
<path style=" stroke:none;fill-rule:nonzero;fill:rgb(24.705882%,23.921569%,33.72549%);fill-opacity:1;" d="M 385.773438 35.105469 C 385.222656 34.738281 384.664062 34.390625 384.113281 34.035156 C 368.167969 23.828125 351.074219 15.535156 333.191406 9.328125 L 329.046875 66.582031 L 302.757812 66.582031 L 302.757812 0.972656 C 301.101562 0.628906 299.433594 0.304688 297.769531 0 L 297.769531 66.582031 L 266.527344 66.582031 C 230.714844 66.582031 201.683594 37.527344 201.683594 1.683594 C 200.007812 2.042969 198.347656 2.429688 196.6875 2.84375 L 196.6875 66.582031 L 171.242188 66.582031 L 167.292969 11.988281 C 148.914062 19.042969 131.464844 28.320312 115.339844 39.613281 C 115.058594 39.804688 114.78125 40 114.507812 40.191406 C 113.105469 41.171875 111.722656 42.175781 110.347656 43.191406 L 110.347656 261.621094 L 185.335938 261.621094 L 184.011719 243.25 L 176.722656 142.375 L 323.5625 142.375 L 316.269531 243.25 L 314.945312 261.621094 L 389.101562 261.621094 L 389.101562 37.316406 C 388 36.566406 386.890625 35.832031 385.773438 35.105469 Z M 196.6875 125.71875 L 175.515625 125.71875 L 171.605469 71.585938 L 196.6875 71.585938 Z M 297.769531 125.71875 L 262.210938 125.71875 L 262.210938 124.644531 C 262.210938 123.601562 261.796875 122.605469 261.058594 121.871094 C 260.324219 121.132812 259.324219 120.722656 258.285156 120.722656 L 242.828125 120.722656 C 240.664062 120.722656 238.90625 122.476562 238.910156 124.644531 L 238.910156 125.71875 L 201.683594 125.71875 L 201.683594 71.585938 L 297.769531 71.585938 Z M 302.757812 125.71875 L 302.757812 71.585938 L 328.683594 71.585938 L 324.773438 125.71875 Z M 302.757812 125.71875 "/>
<path style=" stroke:none;fill-rule:nonzero;fill:rgb(24.705882%,23.921569%,33.72549%);fill-opacity:1;" d="M 0 275.609375 C 5.507812 282.140625 11.464844 288.277344 17.828125 293.980469 L 481.054688 294.613281 C 487.421875 288.914062 493.378906 282.773438 498.886719 276.242188 Z M 0 275.609375 "/>
<path style=" stroke:none;fill-rule:nonzero;fill:rgb(24.705882%,23.921569%,33.72549%);fill-opacity:1;" d="M 314.128906 216.777344 L 314.128906 271.167969 C 314.128906 272.613281 315.296875 273.78125 316.742188 273.78125 L 397.269531 273.78125 C 398.710938 273.78125 399.878906 272.613281 399.878906 271.167969 L 399.878906 216.777344 C 399.875 215.335938 398.707031 214.167969 397.269531 214.167969 L 316.742188 214.167969 C 315.300781 214.167969 314.132812 215.335938 314.128906 216.777344 Z M 314.128906 216.777344 "/>
<path style=" stroke:none;fill-rule:nonzero;fill:rgb(42.352941%,38.823529%,100%);fill-opacity:1;" d="M 316.019531 217.457031 L 316.019531 270.496094 C 316.019531 271.269531 316.644531 271.894531 317.414062 271.894531 L 396.597656 271.894531 C 397.367188 271.894531 397.992188 271.269531 397.992188 270.496094 L 397.992188 217.457031 C 397.992188 216.683594 397.371094 216.058594 396.597656 216.054688 L 317.414062 216.054688 C 316.644531 216.058594 316.019531 216.683594 316.019531 217.457031 Z M 316.019531 217.457031 "/>
<path style=" stroke:none;fill-rule:nonzero;fill:rgb(18.431373%,18.039216%,25.490196%);fill-opacity:1;" d="M 312.445312 281.777344 C 312.742188 282.152344 313.199219 282.367188 313.675781 282.367188 L 399.902344 282.367188 C 400.378906 282.363281 400.832031 282.148438 401.132812 281.777344 C 401.433594 281.40625 401.550781 280.917969 401.453125 280.453125 L 400.117188 274.089844 C 400.003906 273.5625 399.632812 273.125 399.128906 272.933594 C 398.949219 272.863281 398.757812 272.828125 398.566406 272.828125 L 315.011719 272.828125 C 314.816406 272.828125 314.625 272.863281 314.445312 272.933594 C 313.945312 273.125 313.570312 273.5625 313.460938 274.089844 L 312.121094 280.453125 C 312.023438 280.917969 312.144531 281.40625 312.445312 281.777344 Z M 312.445312 281.777344 "/>
<path style=" stroke:none;fill-rule:nonzero;fill:rgb(24.705882%,23.921569%,33.72549%);fill-opacity:1;" d="M 397.644531 275.570312 L 395.605469 275.570312 C 395.433594 275.570312 395.296875 275.429688 395.296875 275.257812 L 395.296875 274.285156 C 395.296875 274.113281 395.433594 273.972656 395.605469 273.972656 L 397.644531 273.972656 C 397.8125 273.972656 397.953125 274.113281 397.953125 274.285156 L 397.953125 275.257812 C 397.953125 275.429688 397.8125 275.570312 397.644531 275.570312 Z M 397.644531 275.570312 "/>
<path style=" stroke:none;fill-rule:nonzero;fill:rgb(24.705882%,23.921569%,33.72549%);fill-opacity:1;" d="M 392.332031 275.570312 L 390.292969 275.570312 C 390.125 275.570312 389.984375 275.429688 389.984375 275.257812 L 389.984375 274.285156 C 389.984375 274.113281 390.125 273.972656 390.292969 273.972656 L 392.332031 273.972656 C 392.503906 273.972656 392.640625 274.113281 392.640625 274.285156 L 392.640625 275.257812 C 392.640625 275.429688 392.503906 275.570312 392.332031 275.570312 Z M 392.332031 275.570312 "/>
<path style=" stroke:none;fill-rule:nonzero;fill:rgb(24.705882%,23.921569%,33.72549%);fill-opacity:1;" d="M 387.019531 275.570312 L 384.984375 275.570312 C 384.8125 275.570312 384.671875 275.429688 384.671875 275.257812 L 384.671875 274.285156 C 384.671875 274.113281 384.8125 273.972656 384.984375 273.972656 L 387.019531 273.972656 C 387.191406 273.972656 387.328125 274.113281 387.328125 274.285156 L 387.328125 275.257812 C 387.328125 275.429688 387.191406 275.570312 387.019531 275.570312 Z M 387.019531 275.570312 "/>
<path style=" stroke:none;fill-rule:nonzero;fill:rgb(24.705882%,23.921569%,33.72549%);fill-opacity:1;" d="M 381.707031 275.570312 L 379.671875 275.570312 C 379.5 275.570312 379.363281 275.429688 379.363281 275.257812 L 379.363281 274.285156 C 379.363281 274.113281 379.5 273.972656 379.671875 273.972656 L 381.707031 273.972656 C 381.878906 273.972656 382.019531 274.113281 382.019531 274.285156 L 382.019531 275.257812 C 382.019531 275.429688 381.878906 275.570312 381.707031 275.570312 Z M 381.707031 275.570312 "/>
<path style=" stroke:none;fill-rule:nonzero;fill:rgb(24.705882%,23.921569%,33.72549%);fill-opacity:1;" d="M 376.398438 275.570312 L 374.359375 275.570312 C 374.1875 275.570312 374.050781 275.429688 374.050781 275.257812 L 374.050781 274.285156 C 374.050781 274.113281 374.1875 273.972656 374.359375 273.972656 L 376.398438 273.972656 C 376.566406 273.972656 376.707031 274.113281 376.707031 274.285156 L 376.707031 275.257812 C 376.707031 275.429688 376.566406 275.570312 376.398438 275.570312 Z M 376.398438 275.570312 "/>
<path style=" stroke:none;fill-rule:nonzero;fill:rgb(24.705882%,23.921569%,33.72549%);fill-opacity:1;" d="M 371.085938 275.570312 L 369.050781 275.570312 C 368.878906 275.570312 368.738281 275.429688 368.738281 275.257812 L 368.738281 274.285156 C 368.738281 274.113281 368.878906 273.972656 369.050781 273.972656 L 371.085938 273.972656 C 371.257812 273.972656 371.394531 274.113281 371.394531 274.285156 L 371.394531 275.257812 C 371.394531 275.429688 371.257812 275.570312 371.085938 275.570312 Z M 371.085938 275.570312 "/>
<path style=" stroke:none;fill-rule:nonzero;fill:rgb(24.705882%,23.921569%,33.72549%);fill-opacity:1;" d="M 365.773438 275.570312 L 363.738281 275.570312 C 363.566406 275.570312 363.429688 275.429688 363.429688 275.257812 L 363.429688 274.285156 C 363.429688 274.113281 363.566406 273.972656 363.738281 273.972656 L 365.773438 273.972656 C 365.945312 273.972656 366.082031 274.113281 366.082031 274.285156 L 366.082031 275.257812 C 366.082031 275.429688 365.945312 275.570312 365.773438 275.570312 Z M 365.773438 275.570312 "/>
<path style=" stroke:none;fill-rule:nonzero;fill:rgb(24.705882%,23.921569%,33.72549%);fill-opacity:1;" d="M 360.460938 275.570312 L 358.425781 275.570312 C 358.253906 275.570312 358.117188 275.429688 358.117188 275.257812 L 358.117188 274.285156 C 358.117188 274.113281 358.253906 273.972656 358.425781 273.972656 L 360.460938 273.972656 C 360.632812 273.972656 360.773438 274.113281 360.773438 274.285156 L 360.773438 275.257812 C 360.773438 275.429688 360.632812 275.570312 360.460938 275.570312 Z M 360.460938 275.570312 "/>
<path style=" stroke:none;fill-rule:nonzero;fill:rgb(24.705882%,23.921569%,33.72549%);fill-opacity:1;" d="M 355.152344 275.570312 L 353.113281 275.570312 C 352.945312 275.570312 352.804688 275.429688 352.804688 275.257812 L 352.804688 274.285156 C 352.804688 274.113281 352.945312 273.972656 353.113281 273.972656 L 355.152344 273.972656 C 355.320312 273.972656 355.460938 274.113281 355.460938 274.285156 L 355.460938 275.257812 C 355.460938 275.429688 355.320312 275.570312 355.152344 275.570312 Z M 355.152344 275.570312 "/>
<path style=" stroke:none;fill-rule:nonzero;fill:rgb(24.705882%,23.921569%,33.72549%);fill-opacity:1;" d="M 349.839844 275.570312 L 347.804688 275.570312 C 347.632812 275.570312 347.492188 275.429688 347.492188 275.257812 L 347.492188 274.285156 C 347.492188 274.113281 347.632812 273.972656 347.804688 273.972656 L 349.839844 273.972656 C 350.011719 273.972656 350.148438 274.113281 350.148438 274.285156 L 350.148438 275.257812 C 350.148438 275.429688 350.011719 275.570312 349.839844 275.570312 Z M 349.839844 275.570312 "/>
<path style=" stroke:none;fill-rule:nonzero;fill:rgb(24.705882%,23.921569%,33.72549%);fill-opacity:1;" d="M 344.527344 275.570312 L 342.492188 275.570312 C 342.320312 275.570312 342.183594 275.429688 342.183594 275.257812 L 342.183594 274.285156 C 342.183594 274.113281 342.320312 273.972656 342.492188 273.972656 L 344.527344 273.972656 C 344.699219 273.972656 344.835938 274.113281 344.835938 274.285156 L 344.835938 275.257812 C 344.835938 275.429688 344.699219 275.570312 344.527344 275.570312 Z M 344.527344 275.570312 "/>
<path style=" stroke:none;fill-rule:nonzero;fill:rgb(24.705882%,23.921569%,33.72549%);fill-opacity:1;" d="M 339.21875 275.570312 L 337.179688 275.570312 C 337.007812 275.570312 336.871094 275.429688 336.871094 275.257812 L 336.871094 274.285156 C 336.871094 274.113281 337.007812 273.972656 337.179688 273.972656 L 339.21875 273.972656 C 339.386719 273.972656 339.527344 274.113281 339.527344 274.285156 L 339.527344 275.257812 C 339.527344 275.429688 339.386719 275.570312 339.21875 275.570312 Z M 339.21875 275.570312 "/>
<path style=" stroke:none;fill-rule:nonzero;fill:rgb(24.705882%,23.921569%,33.72549%);fill-opacity:1;" d="M 333.90625 275.570312 L 331.867188 275.570312 C 331.699219 275.570312 331.558594 275.429688 331.558594 275.257812 L 331.558594 274.285156 C 331.558594 274.113281 331.699219 273.972656 331.867188 273.972656 L 333.90625 273.972656 C 334.078125 273.972656 334.214844 274.113281 334.214844 274.285156 L 334.214844 275.257812 C 334.214844 275.429688 334.078125 275.570312 333.90625 275.570312 Z M 333.90625 275.570312 "/>
<path style=" stroke:none;fill-rule:nonzero;fill:rgb(24.705882%,23.921569%,33.72549%);fill-opacity:1;" d="M 328.59375 275.570312 L 326.558594 275.570312 C 326.386719 275.570312 326.246094 275.429688 326.246094 275.257812 L 326.246094 274.285156 C 326.246094 274.113281 326.386719 273.972656 326.558594 273.972656 L 328.59375 273.972656 C 328.765625 273.972656 328.902344 274.113281 328.902344 274.285156 L 328.902344 275.257812 C 328.902344 275.429688 328.765625 275.570312 328.59375 275.570312 Z M 328.59375 275.570312 "/>
<path style=" stroke:none;fill-rule:nonzero;fill:rgb(24.705882%,23.921569%,33.72549%);fill-opacity:1;" d="M 323.28125 275.570312 L 321.246094 275.570312 C 321.074219 275.570312 320.9375 275.429688 320.9375 275.257812 L 320.9375 274.285156 C 320.9375 274.113281 321.074219 273.972656 321.246094 273.972656 L 323.28125 273.972656 C 323.453125 273.972656 323.59375 274.113281 323.59375 274.285156 L 323.59375 275.257812 C 323.59375 275.429688 323.453125 275.570312 323.28125 275.570312 Z M 323.28125 275.570312 "/>
<path style=" stroke:none;fill-rule:nonzero;fill:rgb(24.705882%,23.921569%,33.72549%);fill-opacity:1;" d="M 317.972656 275.570312 L 315.933594 275.570312 C 315.761719 275.570312 315.625 275.429688 315.625 275.257812 L 315.625 274.285156 C 315.625 274.113281 315.761719 273.972656 315.933594 273.972656 L 317.972656 273.972656 C 318.140625 273.972656 318.28125 274.113281 318.28125 274.285156 L 318.28125 275.257812 C 318.28125 275.429688 318.140625 275.570312 317.972656 275.570312 Z M 317.972656 275.570312 "/>
<path style=" stroke:none;fill-rule:nonzero;fill:rgb(24.705882%,23.921569%,33.72549%);fill-opacity:1;" d="M 397.707031 278.226562 L 395.667969 278.226562 C 395.496094 278.226562 395.359375 278.089844 395.359375 277.917969 L 395.359375 276.941406 C 395.359375 276.769531 395.496094 276.632812 395.667969 276.632812 L 397.707031 276.632812 C 397.875 276.632812 398.015625 276.769531 398.015625 276.941406 L 398.015625 277.917969 C 398.015625 278.089844 397.875 278.226562 397.707031 278.226562 Z M 397.707031 278.226562 "/>
<path style=" stroke:none;fill-rule:nonzero;fill:rgb(24.705882%,23.921569%,33.72549%);fill-opacity:1;" d="M 392.394531 278.226562 L 390.359375 278.226562 C 390.1875 278.226562 390.046875 278.089844 390.046875 277.917969 L 390.046875 276.941406 C 390.046875 276.769531 390.1875 276.632812 390.359375 276.632812 L 392.394531 276.632812 C 392.566406 276.632812 392.703125 276.769531 392.703125 276.941406 L 392.703125 277.917969 C 392.703125 278.089844 392.566406 278.226562 392.394531 278.226562 Z M 392.394531 278.226562 "/>
<path style=" stroke:none;fill-rule:nonzero;fill:rgb(24.705882%,23.921569%,33.72549%);fill-opacity:1;" d="M 387.082031 278.226562 L 385.046875 278.226562 C 384.875 278.226562 384.738281 278.089844 384.738281 277.917969 L 384.738281 276.941406 C 384.738281 276.769531 384.875 276.632812 385.046875 276.632812 L 387.082031 276.632812 C 387.253906 276.632812 387.390625 276.769531 387.390625 276.941406 L 387.390625 277.917969 C 387.390625 278.089844 387.253906 278.226562 387.082031 278.226562 Z M 387.082031 278.226562 "/>
<path style=" stroke:none;fill-rule:nonzero;fill:rgb(24.705882%,23.921569%,33.72549%);fill-opacity:1;" d="M 381.769531 278.226562 L 379.734375 278.226562 C 379.5625 278.226562 379.425781 278.089844 379.425781 277.917969 L 379.425781 276.941406 C 379.425781 276.769531 379.5625 276.632812 379.734375 276.632812 L 381.769531 276.632812 C 381.941406 276.632812 382.082031 276.769531 382.082031 276.941406 L 382.082031 277.917969 C 382.082031 278.089844 381.941406 278.226562 381.769531 278.226562 Z M 381.769531 278.226562 "/>
<path style=" stroke:none;fill-rule:nonzero;fill:rgb(24.705882%,23.921569%,33.72549%);fill-opacity:1;" d="M 376.460938 278.226562 L 374.421875 278.226562 C 374.253906 278.226562 374.113281 278.089844 374.113281 277.917969 L 374.113281 276.941406 C 374.113281 276.769531 374.253906 276.632812 374.421875 276.632812 L 376.460938 276.632812 C 376.628906 276.632812 376.769531 276.769531 376.769531 276.941406 L 376.769531 277.917969 C 376.769531 278.089844 376.628906 278.226562 376.460938 278.226562 Z M 376.460938 278.226562 "/>
<path style=" stroke:none;fill-rule:nonzero;fill:rgb(24.705882%,23.921569%,33.72549%);fill-opacity:1;" d="M 371.148438 278.226562 L 369.113281 278.226562 C 368.941406 278.226562 368.800781 278.089844 368.800781 277.917969 L 368.800781 276.941406 C 368.800781 276.769531 368.941406 276.632812 369.113281 276.632812 L 371.148438 276.632812 C 371.320312 276.632812 371.457031 276.769531 371.457031 276.941406 L 371.457031 277.917969 C 371.457031 278.089844 371.320312 278.226562 371.148438 278.226562 Z M 371.148438 278.226562 "/>
<path style=" stroke:none;fill-rule:nonzero;fill:rgb(24.705882%,23.921569%,33.72549%);fill-opacity:1;" d="M 365.835938 278.226562 L 363.800781 278.226562 C 363.628906 278.226562 363.492188 278.089844 363.492188 277.917969 L 363.492188 276.941406 C 363.492188 276.769531 363.628906 276.632812 363.800781 276.632812 L 365.835938 276.632812 C 366.007812 276.632812 366.144531 276.769531 366.144531 276.941406 L 366.144531 277.917969 C 366.144531 278.089844 366.007812 278.226562 365.835938 278.226562 Z M 365.835938 278.226562 "/>
<path style=" stroke:none;fill-rule:nonzero;fill:rgb(24.705882%,23.921569%,33.72549%);fill-opacity:1;" d="M 360.527344 278.226562 L 358.488281 278.226562 C 358.316406 278.226562 358.179688 278.089844 358.179688 277.917969 L 358.179688 276.941406 C 358.179688 276.769531 358.316406 276.632812 358.488281 276.632812 L 360.527344 276.632812 C 360.695312 276.632812 360.835938 276.769531 360.835938 276.941406 L 360.835938 277.917969 C 360.835938 278.089844 360.695312 278.226562 360.527344 278.226562 Z M 360.527344 278.226562 "/>
<path style=" stroke:none;fill-rule:nonzero;fill:rgb(24.705882%,23.921569%,33.72549%);fill-opacity:1;" d="M 355.214844 278.226562 L 353.175781 278.226562 C 353.007812 278.226562 352.867188 278.089844 352.867188 277.917969 L 352.867188 276.941406 C 352.867188 276.769531 353.007812 276.632812 353.175781 276.632812 L 355.214844 276.632812 C 355.386719 276.632812 355.523438 276.769531 355.523438 276.941406 L 355.523438 277.917969 C 355.523438 278.089844 355.386719 278.226562 355.214844 278.226562 Z M 355.214844 278.226562 "/>
<path style=" stroke:none;fill-rule:nonzero;fill:rgb(24.705882%,23.921569%,33.72549%);fill-opacity:1;" d="M 349.902344 278.226562 L 347.867188 278.226562 C 347.695312 278.226562 347.554688 278.089844 347.554688 277.917969 L 347.554688 276.941406 C 347.554688 276.769531 347.695312 276.632812 347.867188 276.632812 L 349.902344 276.632812 C 350.074219 276.632812 350.210938 276.769531 350.210938 276.941406 L 350.210938 277.917969 C 350.210938 278.089844 350.074219 278.226562 349.902344 278.226562 Z M 349.902344 278.226562 "/>
<path style=" stroke:none;fill-rule:nonzero;fill:rgb(24.705882%,23.921569%,33.72549%);fill-opacity:1;" d="M 344.589844 278.226562 L 342.554688 278.226562 C 342.382812 278.226562 342.246094 278.089844 342.246094 277.917969 L 342.246094 276.941406 C 342.246094 276.769531 342.382812 276.632812 342.554688 276.632812 L 344.589844 276.632812 C 344.761719 276.632812 344.902344 276.769531 344.902344 276.941406 L 344.902344 277.917969 C 344.902344 278.089844 344.761719 278.226562 344.589844 278.226562 Z M 344.589844 278.226562 "/>
<path style=" stroke:none;fill-rule:nonzero;fill:rgb(24.705882%,23.921569%,33.72549%);fill-opacity:1;" d="M 339.28125 278.226562 L 337.242188 278.226562 C 337.070312 278.226562 336.933594 278.089844 336.933594 277.917969 L 336.933594 276.941406 C 336.933594 276.769531 337.070312 276.632812 337.242188 276.632812 L 339.28125 276.632812 C 339.449219 276.632812 339.589844 276.769531 339.589844 276.941406 L 339.589844 277.917969 C 339.589844 278.089844 339.449219 278.226562 339.28125 278.226562 Z M 339.28125 278.226562 "/>
<path style=" stroke:none;fill-rule:nonzero;fill:rgb(24.705882%,23.921569%,33.72549%);fill-opacity:1;" d="M 333.96875 278.226562 L 331.929688 278.226562 C 331.761719 278.226562 331.621094 278.089844 331.621094 277.917969 L 331.621094 276.941406 C 331.621094 276.769531 331.761719 276.632812 331.929688 276.632812 L 333.96875 276.632812 C 334.140625 276.632812 334.277344 276.769531 334.277344 276.941406 L 334.277344 277.917969 C 334.277344 278.089844 334.140625 278.226562 333.96875 278.226562 Z M 333.96875 278.226562 "/>
<path style=" stroke:none;fill-rule:nonzero;fill:rgb(24.705882%,23.921569%,33.72549%);fill-opacity:1;" d="M 328.65625 278.226562 L 326.621094 278.226562 C 326.449219 278.226562 326.308594 278.089844 326.308594 277.917969 L 326.308594 276.941406 C 326.308594 276.769531 326.449219 276.632812 326.621094 276.632812 L 328.65625 276.632812 C 328.828125 276.632812 328.964844 276.769531 328.964844 276.941406 L 328.964844 277.917969 C 328.964844 278.089844 328.828125 278.226562 328.65625 278.226562 Z M 328.65625 278.226562 "/>
<path style=" stroke:none;fill-rule:nonzero;fill:rgb(24.705882%,23.921569%,33.72549%);fill-opacity:1;" d="M 323.34375 278.226562 L 321.308594 278.226562 C 321.136719 278.226562 321 278.089844 321 277.917969 L 321 276.941406 C 321 276.769531 321.136719 276.632812 321.308594 276.632812 L 323.34375 276.632812 C 323.515625 276.632812 323.65625 276.769531 323.65625 276.941406 L 323.65625 277.917969 C 323.65625 278.089844 323.515625 278.226562 323.34375 278.226562 Z M 323.34375 278.226562 "/>
<path style=" stroke:none;fill-rule:nonzero;fill:rgb(24.705882%,23.921569%,33.72549%);fill-opacity:1;" d="M 318.035156 278.226562 L 315.996094 278.226562 C 315.824219 278.226562 315.6875 278.089844 315.6875 277.917969 L 315.6875 276.941406 C 315.6875 276.769531 315.824219 276.632812 315.996094 276.632812 L 318.035156 276.632812 C 318.203125 276.632812 318.34375 276.769531 318.34375 276.941406 L 318.34375 277.917969 C 318.34375 278.089844 318.203125 278.226562 318.035156 278.226562 Z M 318.035156 278.226562 "/>
<path style=" stroke:none;fill-rule:nonzero;fill:rgb(24.705882%,23.921569%,33.72549%);fill-opacity:1;" d="M 372.210938 281.417969 L 351.582031 281.417969 C 351.414062 281.417969 351.273438 281.277344 351.273438 281.105469 L 351.273438 280.132812 C 351.273438 279.960938 351.414062 279.820312 351.582031 279.820312 L 372.210938 279.820312 C 372.382812 279.820312 372.519531 279.960938 372.519531 280.132812 L 372.519531 281.105469 C 372.519531 281.277344 372.382812 281.417969 372.210938 281.417969 Z M 372.210938 281.417969 "/>
<path style=" stroke:none;fill-rule:nonzero;fill:rgb(100%,100%,100%);fill-opacity:1;" d="M 327.925781 227.660156 L 329.730469 227.660156 C 330.277344 227.660156 330.71875 228.105469 330.71875 228.652344 C 330.71875 229.199219 330.277344 229.640625 329.730469 229.640625 L 327.925781 229.640625 C 327.378906 229.640625 326.9375 229.199219 326.9375 228.652344 C 326.9375 228.105469 327.378906 227.660156 327.925781 227.660156 Z M 327.925781 227.660156 "/>
<path style=" stroke:none;fill-rule:nonzero;fill:rgb(100%,100%,100%);fill-opacity:1;" d="M 348.546875 227.660156 L 350.351562 227.660156 C 350.898438 227.660156 351.339844 228.105469 351.339844 228.652344 C 351.339844 229.199219 350.898438 229.640625 350.351562 229.640625 L 348.546875 229.640625 C 348.003906 229.640625 347.558594 229.199219 347.558594 228.652344 C 347.558594 228.105469 348.003906 227.660156 348.546875 227.660156 Z M 348.546875 227.660156 "/>
<path style=" stroke:none;fill-rule:nonzero;fill:rgb(100%,100%,100%);fill-opacity:1;" d="M 354.390625 227.660156 L 356.195312 227.660156 C 356.742188 227.660156 357.183594 228.105469 357.183594 228.652344 C 357.183594 229.199219 356.742188 229.640625 356.195312 229.640625 L 354.390625 229.640625 C 353.84375 229.640625 353.402344 229.199219 353.402344 228.652344 C 353.402344 228.105469 353.84375 227.660156 354.390625 227.660156 Z M 354.390625 227.660156 "/>
<path style=" stroke:none;fill-rule:nonzero;fill:rgb(100%,100%,100%);fill-opacity:1;" d="M 333.535156 227.496094 L 344.742188 227.496094 C 345.289062 227.496094 345.734375 227.9375 345.734375 228.484375 C 345.734375 229.03125 345.289062 229.476562 344.742188 229.476562 L 333.535156 229.476562 C 332.988281 229.476562 332.546875 229.03125 332.546875 228.484375 C 332.546875 227.9375 332.988281 227.496094 333.535156 227.496094 Z M 333.535156 227.496094 "/>
<path style=" stroke:none;fill-rule:nonzero;fill:rgb(100%,100%,100%);fill-opacity:1;" d="M 361.03125 227.496094 L 372.238281 227.496094 C 372.785156 227.496094 373.226562 227.9375 373.226562 228.484375 C 373.226562 229.03125 372.785156 229.476562 372.238281 229.476562 L 361.03125 229.476562 C 360.484375 229.476562 360.042969 229.03125 360.042969 228.484375 C 360.042969 227.9375 360.484375 227.496094 361.03125 227.496094 Z M 361.03125 227.496094 "/>
<path style=" stroke:none;fill-rule:nonzero;fill:rgb(100%,100%,100%);fill-opacity:1;" d="M 333.425781 232.132812 L 335.230469 232.132812 C 335.777344 232.132812 336.21875 232.574219 336.21875 233.121094 C 336.21875 233.667969 335.777344 234.113281 335.230469 234.113281 L 333.425781 234.113281 C 332.878906 234.113281 332.4375 233.667969 332.4375 233.121094 C 332.4375 232.574219 332.878906 232.132812 333.425781 232.132812 Z M 333.425781 232.132812 "/>
<path style=" stroke:none;fill-rule:nonzero;fill:rgb(100%,100%,100%);fill-opacity:1;" d="M 354.046875 232.132812 L 355.851562 232.132812 C 356.398438 232.132812 356.839844 232.574219 356.839844 233.121094 C 356.839844 233.667969 356.398438 234.113281 355.851562 234.113281 L 354.046875 234.113281 C 353.5 234.113281 353.058594 233.667969 353.058594 233.121094 C 353.058594 232.574219 353.5 232.132812 354.046875 232.132812 Z M 354.046875 232.132812 "/>
<path style=" stroke:none;fill-rule:nonzero;fill:rgb(100%,100%,100%);fill-opacity:1;" d="M 359.890625 232.132812 L 361.695312 232.132812 C 362.238281 232.132812 362.683594 232.574219 362.683594 233.121094 C 362.683594 233.667969 362.238281 234.113281 361.695312 234.113281 L 359.890625 234.113281 C 359.34375 234.113281 358.902344 233.667969 358.902344 233.121094 C 358.902344 232.574219 359.34375 232.132812 359.890625 232.132812 Z M 359.890625 232.132812 "/>
<path style=" stroke:none;fill-rule:nonzero;fill:rgb(100%,100%,100%);fill-opacity:1;" d="M 339.035156 231.96875 L 350.242188 231.96875 C 350.789062 231.96875 351.230469 232.410156 351.230469 232.957031 C 351.230469 233.503906 350.789062 233.949219 350.242188 233.949219 L 339.035156 233.949219 C 338.488281 233.949219 338.046875 233.503906 338.046875 232.957031 C 338.046875 232.410156 338.488281 231.96875 339.035156 231.96875 Z M 339.035156 231.96875 "/>
<path style=" stroke:none;fill-rule:nonzero;fill:rgb(100%,100%,100%);fill-opacity:1;" d="M 366.53125 231.96875 L 377.738281 231.96875 C 378.285156 231.96875 378.726562 232.410156 378.726562 232.957031 C 378.726562 233.503906 378.285156 233.949219 377.738281 233.949219 L 366.53125 233.949219 C 365.984375 233.949219 365.539062 233.503906 365.539062 232.957031 C 365.539062 232.410156 365.984375 231.96875 366.53125 231.96875 Z M 366.53125 231.96875 "/>
<path style=" stroke:none;fill-rule:nonzero;fill:rgb(100%,100%,100%);fill-opacity:1;" d="M 338.925781 236.605469 L 340.726562 236.605469 C 341.273438 236.605469 341.71875 237.046875 341.71875 237.59375 C 341.71875 238.140625 341.273438 238.585938 340.726562 238.585938 L 338.925781 238.585938 C 338.378906 238.585938 337.9375 238.140625 337.9375 237.59375 C 337.9375 237.046875 338.378906 236.605469 338.925781 236.605469 Z M 338.925781 236.605469 "/>
<path style=" stroke:none;fill-rule:nonzero;fill:rgb(100%,100%,100%);fill-opacity:1;" d="M 359.546875 236.605469 L 361.351562 236.605469 C 361.898438 236.605469 362.339844 237.046875 362.339844 237.59375 C 362.339844 238.140625 361.898438 238.585938 361.351562 238.585938 L 359.546875 238.585938 C 359 238.585938 358.558594 238.140625 358.558594 237.59375 C 358.558594 237.046875 359 236.605469 359.546875 236.605469 Z M 359.546875 236.605469 "/>
<path style=" stroke:none;fill-rule:nonzero;fill:rgb(100%,100%,100%);fill-opacity:1;" d="M 365.390625 236.605469 L 367.191406 236.605469 C 367.738281 236.605469 368.183594 237.046875 368.183594 237.59375 C 368.183594 238.140625 367.738281 238.585938 367.191406 238.585938 L 365.390625 238.585938 C 364.84375 238.585938 364.398438 238.140625 364.398438 237.59375 C 364.398438 237.046875 364.84375 236.605469 365.390625 236.605469 Z M 365.390625 236.605469 "/>
<path style=" stroke:none;fill-rule:nonzero;fill:rgb(100%,100%,100%);fill-opacity:1;" d="M 344.535156 236.4375 L 355.742188 236.4375 C 356.289062 236.4375 356.730469 236.882812 356.730469 237.429688 C 356.730469 237.976562 356.289062 238.421875 355.742188 238.421875 L 344.535156 238.421875 C 343.988281 238.421875 343.542969 237.976562 343.542969 237.429688 C 343.542969 236.882812 343.988281 236.4375 344.535156 236.4375 Z M 344.535156 236.4375 "/>
<path style=" stroke:none;fill-rule:nonzero;fill:rgb(100%,100%,100%);fill-opacity:1;" d="M 372.03125 236.4375 L 383.234375 236.4375 C 383.78125 236.4375 384.226562 236.882812 384.226562 237.429688 C 384.226562 237.976562 383.78125 238.421875 383.234375 238.421875 L 372.03125 238.421875 C 371.484375 238.421875 371.039062 237.976562 371.039062 237.429688 C 371.039062 236.882812 371.484375 236.4375 372.03125 236.4375 Z M 372.03125 236.4375 "/>
<path style=" stroke:none;fill-rule:nonzero;fill:rgb(100%,100%,100%);fill-opacity:1;" d="M 344.425781 241.074219 L 346.226562 241.074219 C 346.773438 241.074219 347.21875 241.519531 347.21875 242.066406 C 347.21875 242.613281 346.773438 243.058594 346.226562 243.058594 L 344.425781 243.058594 C 343.878906 243.058594 343.433594 242.613281 343.433594 242.066406 C 343.433594 241.519531 343.878906 241.074219 344.425781 241.074219 Z M 344.425781 241.074219 "/>
<path style=" stroke:none;fill-rule:nonzero;fill:rgb(100%,100%,100%);fill-opacity:1;" d="M 365.046875 241.074219 L 366.847656 241.074219 C 367.394531 241.074219 367.839844 241.519531 367.839844 242.066406 C 367.839844 242.613281 367.394531 243.058594 366.847656 243.058594 L 365.046875 243.058594 C 364.5 243.058594 364.054688 242.613281 364.054688 242.066406 C 364.054688 241.519531 364.5 241.074219 365.046875 241.074219 Z M 365.046875 241.074219 "/>
<path style=" stroke:none;fill-rule:nonzero;fill:rgb(100%,100%,100%);fill-opacity:1;" d="M 370.886719 241.074219 L 372.691406 241.074219 C 373.238281 241.074219 373.679688 241.519531 373.679688 242.066406 C 373.679688 242.613281 373.238281 243.058594 372.691406 243.058594 L 370.886719 243.058594 C 370.34375 243.058594 369.898438 242.613281 369.898438 242.066406 C 369.898438 241.519531 370.34375 241.074219 370.886719 241.074219 Z M 370.886719 241.074219 "/>
<path style=" stroke:none;fill-rule:nonzero;fill:rgb(100%,100%,100%);fill-opacity:1;" d="M 350.035156 240.910156 L 361.238281 240.910156 C 361.785156 240.910156 362.230469 241.355469 362.230469 241.902344 C 362.230469 242.449219 361.785156 242.890625 361.238281 242.890625 L 350.035156 242.890625 C 349.488281 242.890625 349.042969 242.449219 349.042969 241.902344 C 349.042969 241.355469 349.488281 240.910156 350.035156 240.910156 Z M 350.035156 240.910156 "/>
<path style=" stroke:none;fill-rule:nonzero;fill:rgb(100%,100%,100%);fill-opacity:1;" d="M 348.546875 258.859375 L 350.351562 258.859375 C 350.898438 258.859375 351.339844 259.300781 351.339844 259.847656 C 351.339844 260.394531 350.898438 260.839844 350.351562 260.839844 L 348.546875 260.839844 C 348.003906 260.839844 347.558594 260.394531 347.558594 259.847656 C 347.558594 259.300781 348.003906 258.859375 348.546875 258.859375 Z M 348.546875 258.859375 "/>
<path style=" stroke:none;fill-rule:nonzero;fill:rgb(100%,100%,100%);fill-opacity:1;" d="M 354.390625 258.859375 L 356.195312 258.859375 C 356.742188 258.859375 357.183594 259.300781 357.183594 259.847656 C 357.183594 260.394531 356.742188 260.839844 356.195312 260.839844 L 354.390625 260.839844 C 353.84375 260.839844 353.402344 260.394531 353.402344 259.847656 C 353.402344 259.300781 353.84375 258.859375 354.390625 258.859375 Z M 354.390625 258.859375 "/>
<path style=" stroke:none;fill-rule:nonzero;fill:rgb(100%,100%,100%);fill-opacity:1;" d="M 361.03125 259.023438 L 372.238281 259.023438 C 372.785156 259.023438 373.226562 259.464844 373.226562 260.015625 C 373.226562 260.5625 372.785156 261.003906 372.238281 261.003906 L 361.03125 261.003906 C 360.484375 261.003906 360.042969 260.5625 360.042969 260.015625 C 360.042969 259.464844 360.484375 259.023438 361.03125 259.023438 Z M 361.03125 259.023438 "/>
<path style=" stroke:none;fill-rule:nonzero;fill:rgb(100%,100%,100%);fill-opacity:1;" d="M 327.925781 258.859375 L 329.730469 258.859375 C 330.277344 258.859375 330.71875 259.300781 330.71875 259.847656 C 330.71875 260.394531 330.277344 260.839844 329.730469 260.839844 L 327.925781 260.839844 C 327.378906 260.839844 326.9375 260.394531 326.9375 259.847656 C 326.9375 259.300781 327.378906 258.859375 327.925781 258.859375 Z M 327.925781 258.859375 "/>
<path style=" stroke:none;fill-rule:nonzero;fill:rgb(100%,100%,100%);fill-opacity:1;" d="M 333.535156 259.023438 L 344.742188 259.023438 C 345.289062 259.023438 345.734375 259.464844 345.734375 260.015625 C 345.734375 260.5625 345.289062 261.003906 344.742188 261.003906 L 333.535156 261.003906 C 332.988281 261.003906 332.546875 260.5625 332.546875 260.015625 C 332.546875 259.464844 332.988281 259.023438 333.535156 259.023438 Z M 333.535156 259.023438 "/>
<path style=" stroke:none;fill-rule:nonzero;fill:rgb(100%,100%,100%);fill-opacity:1;" d="M 333.425781 254.386719 L 335.230469 254.386719 C 335.777344 254.386719 336.21875 254.828125 336.21875 255.375 C 336.21875 255.925781 335.777344 256.367188 335.230469 256.367188 L 333.425781 256.367188 C 332.878906 256.367188 332.4375 255.925781 332.4375 255.375 C 332.4375 254.828125 332.878906 254.386719 333.425781 254.386719 Z M 333.425781 254.386719 "/>
<path style=" stroke:none;fill-rule:nonzero;fill:rgb(100%,100%,100%);fill-opacity:1;" d="M 354.046875 254.386719 L 355.851562 254.386719 C 356.398438 254.386719 356.839844 254.828125 356.839844 255.375 C 356.839844 255.925781 356.398438 256.367188 355.851562 256.367188 L 354.046875 256.367188 C 353.5 256.367188 353.058594 255.925781 353.058594 255.375 C 353.058594 254.828125 353.5 254.386719 354.046875 254.386719 Z M 354.046875 254.386719 "/>
<path style=" stroke:none;fill-rule:nonzero;fill:rgb(100%,100%,100%);fill-opacity:1;" d="M 359.890625 254.386719 L 361.695312 254.386719 C 362.238281 254.386719 362.683594 254.828125 362.683594 255.375 C 362.683594 255.925781 362.238281 256.367188 361.695312 256.367188 L 359.890625 256.367188 C 359.34375 256.367188 358.902344 255.925781 358.902344 255.375 C 358.902344 254.828125 359.34375 254.386719 359.890625 254.386719 Z M 359.890625 254.386719 "/>
<path style=" stroke:none;fill-rule:nonzero;fill:rgb(100%,100%,100%);fill-opacity:1;" d="M 339.035156 254.550781 L 350.242188 254.550781 C 350.789062 254.550781 351.230469 254.996094 351.230469 255.542969 C 351.230469 256.089844 350.789062 256.53125 350.242188 256.53125 L 339.035156 256.53125 C 338.488281 256.53125 338.046875 256.089844 338.046875 255.542969 C 338.046875 254.996094 338.488281 254.550781 339.035156 254.550781 Z M 339.035156 254.550781 "/>
<path style=" stroke:none;fill-rule:nonzero;fill:rgb(100%,100%,100%);fill-opacity:1;" d="M 338.925781 249.914062 L 340.726562 249.914062 C 341.273438 249.914062 341.71875 250.359375 341.71875 250.90625 C 341.71875 251.453125 341.273438 251.894531 340.726562 251.894531 L 338.925781 251.894531 C 338.378906 251.894531 337.9375 251.453125 337.9375 250.90625 C 337.9375 250.359375 338.378906 249.914062 338.925781 249.914062 Z M 338.925781 249.914062 "/>
<path style=" stroke:none;fill-rule:nonzero;fill:rgb(100%,100%,100%);fill-opacity:1;" d="M 359.546875 249.914062 L 361.351562 249.914062 C 361.898438 249.914062 362.339844 250.359375 362.339844 250.90625 C 362.339844 251.453125 361.898438 251.894531 361.351562 251.894531 L 359.546875 251.894531 C 359 251.894531 358.558594 251.453125 358.558594 250.90625 C 358.558594 250.359375 359 249.914062 359.546875 249.914062 Z M 359.546875 249.914062 "/>
<path style=" stroke:none;fill-rule:nonzero;fill:rgb(100%,100%,100%);fill-opacity:1;" d="M 365.390625 249.914062 L 367.191406 249.914062 C 367.738281 249.914062 368.183594 250.359375 368.183594 250.90625 C 368.183594 251.453125 367.738281 251.894531 367.191406 251.894531 L 365.390625 251.894531 C 364.84375 251.894531 364.398438 251.453125 364.398438 250.90625 C 364.398438 250.359375 364.84375 249.914062 365.390625 249.914062 Z M 365.390625 249.914062 "/>
<path style=" stroke:none;fill-rule:nonzero;fill:rgb(100%,100%,100%);fill-opacity:1;" d="M 344.535156 250.078125 L 355.742188 250.078125 C 356.289062 250.078125 356.730469 250.523438 356.730469 251.070312 C 356.730469 251.617188 356.289062 252.0625 355.742188 252.0625 L 344.535156 252.0625 C 343.988281 252.0625 343.542969 251.617188 343.542969 251.070312 C 343.542969 250.523438 343.988281 250.078125 344.535156 250.078125 Z M 344.535156 250.078125 "/>
<path style=" stroke:none;fill-rule:nonzero;fill:rgb(100%,100%,100%);fill-opacity:1;" d="M 344.425781 245.441406 L 346.226562 245.441406 C 346.773438 245.441406 347.21875 245.886719 347.21875 246.433594 C 347.21875 246.980469 346.773438 247.421875 346.226562 247.421875 L 344.425781 247.421875 C 343.878906 247.421875 343.433594 246.980469 343.433594 246.433594 C 343.433594 245.886719 343.878906 245.441406 344.425781 245.441406 Z M 344.425781 245.441406 "/>
<path style=" stroke:none;fill-rule:nonzero;fill:rgb(100%,100%,100%);fill-opacity:1;" d="M 365.046875 245.441406 L 366.847656 245.441406 C 367.394531 245.441406 367.839844 245.886719 367.839844 246.433594 C 367.839844 246.980469 367.394531 247.421875 366.847656 247.421875 L 365.046875 247.421875 C 364.5 247.421875 364.054688 246.980469 364.054688 246.433594 C 364.054688 245.886719 364.5 245.441406 365.046875 245.441406 Z M 365.046875 245.441406 "/>
<path style=" stroke:none;fill-rule:nonzero;fill:rgb(100%,100%,100%);fill-opacity:1;" d="M 370.886719 245.441406 L 372.691406 245.441406 C 373.238281 245.441406 373.679688 245.886719 373.679688 246.433594 C 373.679688 246.980469 373.238281 247.421875 372.691406 247.421875 L 370.886719 247.421875 C 370.34375 247.421875 369.898438 246.980469 369.898438 246.433594 C 369.898438 245.886719 370.34375 245.441406 370.886719 245.441406 Z M 370.886719 245.441406 "/>
<path style=" stroke:none;fill-rule:nonzero;fill:rgb(100%,100%,100%);fill-opacity:1;" d="M 350.035156 245.609375 L 361.238281 245.609375 C 361.785156 245.609375 362.230469 246.050781 362.230469 246.597656 C 362.230469 247.144531 361.785156 247.589844 361.238281 247.589844 L 350.035156 247.589844 C 349.488281 247.589844 349.042969 247.144531 349.042969 246.597656 C 349.042969 246.050781 349.488281 245.609375 350.035156 245.609375 Z M 350.035156 245.609375 "/>
<path style=" stroke:none;fill-rule:nonzero;fill:rgb(100%,71.372549%,71.372549%);fill-opacity:1;" d="M 320.144531 311.265625 L 311.679688 297.875 L 338.25 276.679688 L 349.214844 264.519531 C 352.113281 261.304688 356.503906 259.875 360.738281 260.765625 C 364.972656 261.660156 368.410156 264.738281 369.769531 268.851562 C 371.824219 275.074219 368.578125 281.808594 362.433594 284.074219 L 345.09375 290.46875 Z M 320.144531 311.265625 "/>
<path style=" stroke:none;fill-rule:nonzero;fill:rgb(18.431373%,18.039216%,25.490196%);fill-opacity:1;" d="M 121.542969 214.171875 L 121.542969 279.257812 L 167.097656 279.257812 L 167.097656 214.171875 C 167.101562 213.210938 166.476562 212.359375 165.558594 212.078125 C 165.347656 212.007812 165.125 211.972656 164.90625 211.976562 L 123.742188 211.976562 C 122.527344 211.972656 121.542969 212.957031 121.542969 214.171875 Z M 139.320312 236.535156 C 139.34375 233.863281 141.515625 231.710938 144.183594 231.710938 C 146.851562 231.710938 149.023438 233.863281 149.046875 236.535156 L 149.046875 244.085938 C 149.035156 246.765625 146.859375 248.929688 144.183594 248.929688 C 141.507812 248.929688 139.335938 246.765625 139.320312 244.085938 Z M 139.320312 236.535156 "/>
<path style=" stroke:none;fill-rule:nonzero;fill:rgb(24.705882%,23.921569%,33.72549%);fill-opacity:1;" d="M 121.402344 277.175781 L 121.402344 283.453125 C 121.40625 284.128906 121.949219 284.675781 122.625 284.683594 L 166.015625 284.683594 C 166.691406 284.679688 167.238281 284.128906 167.238281 283.453125 L 167.238281 277.175781 Z M 121.402344 277.175781 "/>
<path style=" stroke:none;fill-rule:nonzero;fill:rgb(24.705882%,23.921569%,33.72549%);fill-opacity:1;" d="M 49.875 116.109375 L 49.875 234.949219 C 49.878906 238.101562 52.429688 240.65625 55.582031 240.660156 L 231.53125 240.660156 C 234.679688 240.65625 237.234375 238.101562 237.238281 234.949219 L 237.238281 116.109375 C 237.230469 112.960938 234.679688 110.410156 231.53125 110.40625 L 55.582031 110.40625 C 52.433594 110.410156 49.882812 112.960938 49.875 116.109375 Z M 49.875 116.109375 "/>
<path style=" stroke:none;fill-rule:nonzero;fill:rgb(100%,100%,100%);fill-opacity:1;" d="M 54.003906 117.589844 L 54.003906 233.480469 C 54.003906 235.167969 55.367188 236.53125 57.050781 236.535156 L 230.066406 236.535156 C 231.75 236.53125 233.113281 235.167969 233.117188 233.480469 L 233.117188 117.589844 C 233.117188 115.902344 231.75 114.535156 230.066406 114.53125 L 57.050781 114.53125 C 55.367188 114.535156 54.003906 115.902344 54.003906 117.589844 Z M 54.003906 117.589844 "/>
<path style=" stroke:none;fill-rule:nonzero;fill:rgb(18.431373%,18.039216%,25.490196%);fill-opacity:1;" d="M 86.109375 284.257812 C 86.46875 284.707031 87.007812 284.964844 87.582031 284.960938 L 190.515625 284.960938 C 191.085938 284.960938 191.625 284.703125 191.984375 284.261719 C 192.339844 283.816406 192.480469 283.234375 192.367188 282.675781 L 190.769531 275.082031 C 190.632812 274.453125 190.1875 273.933594 189.589844 273.703125 C 189.375 273.621094 189.144531 273.578125 188.917969 273.578125 L 89.171875 273.578125 C 88.941406 273.578125 88.714844 273.621094 88.5 273.703125 C 87.898438 273.933594 87.457031 274.453125 87.320312 275.082031 L 85.722656 282.675781 C 85.609375 283.234375 85.75 283.816406 86.109375 284.257812 Z M 86.109375 284.257812 "/>
<path style=" stroke:none;fill-rule:nonzero;fill:rgb(24.705882%,23.921569%,33.72549%);fill-opacity:1;" d="M 224.453125 130.496094 L 62.5625 130.496094 C 62.210938 130.488281 61.933594 130.199219 61.933594 129.851562 C 61.933594 129.5 62.210938 129.214844 62.5625 129.207031 L 224.453125 129.207031 C 224.800781 129.214844 225.082031 129.5 225.082031 129.851562 C 225.082031 130.199219 224.800781 130.488281 224.453125 130.496094 Z M 224.453125 130.496094 "/>
<path style=" stroke:none;fill-rule:nonzero;fill:rgb(24.705882%,23.921569%,33.72549%);fill-opacity:1;" d="M 77.355469 122.054688 C 77.355469 119.921875 75.667969 118.195312 73.582031 118.195312 C 71.5 118.195312 69.808594 119.921875 69.808594 122.054688 C 69.808594 124.1875 71.5 125.914062 73.582031 125.914062 C 75.667969 125.914062 77.355469 124.1875 77.355469 122.054688 Z M 77.355469 122.054688 "/>
<path style=" stroke:none;fill-rule:nonzero;fill:rgb(24.705882%,23.921569%,33.72549%);fill-opacity:1;" d="M 90.390625 122.054688 C 90.390625 119.921875 88.699219 118.195312 86.617188 118.195312 C 84.53125 118.195312 82.84375 119.921875 82.84375 122.054688 C 82.84375 124.1875 84.53125 125.914062 86.617188 125.914062 C 88.699219 125.914062 90.390625 124.1875 90.390625 122.054688 Z M 90.390625 122.054688 "/>
<path style=" stroke:none;fill-rule:nonzero;fill:rgb(24.705882%,23.921569%,33.72549%);fill-opacity:1;" d="M 103.421875 122.054688 C 103.421875 119.921875 101.734375 118.195312 99.648438 118.195312 C 97.566406 118.195312 95.878906 119.921875 95.878906 122.054688 C 95.878906 124.1875 97.566406 125.914062 99.648438 125.914062 C 101.734375 125.914062 103.421875 124.1875 103.421875 122.054688 Z M 103.421875 122.054688 "/>
<path style=" stroke:none;fill-rule:nonzero;fill:rgb(24.705882%,23.921569%,33.72549%);fill-opacity:1;" d="M 216.601562 119.148438 L 207.347656 119.148438 C 206.964844 119.160156 206.660156 119.46875 206.660156 119.851562 C 206.660156 120.230469 206.964844 120.542969 207.347656 120.550781 L 216.601562 120.550781 C 216.984375 120.546875 217.292969 120.234375 217.292969 119.851562 C 217.292969 119.46875 216.984375 119.15625 216.601562 119.148438 Z M 216.601562 119.148438 "/>
<path style=" stroke:none;fill-rule:nonzero;fill:rgb(24.705882%,23.921569%,33.72549%);fill-opacity:1;" d="M 216.601562 121.785156 L 207.347656 121.785156 C 206.964844 121.792969 206.660156 122.101562 206.660156 122.484375 C 206.660156 122.867188 206.964844 123.175781 207.347656 123.1875 L 216.601562 123.1875 C 216.988281 123.179688 217.296875 122.867188 217.296875 122.484375 C 217.296875 122.101562 216.988281 121.789062 216.601562 121.785156 Z M 216.601562 121.785156 "/>
<path style=" stroke:none;fill-rule:nonzero;fill:rgb(24.705882%,23.921569%,33.72549%);fill-opacity:1;" d="M 216.601562 124.417969 L 207.347656 124.417969 C 206.964844 124.425781 206.660156 124.738281 206.660156 125.117188 C 206.660156 125.5 206.964844 125.808594 207.347656 125.820312 L 216.601562 125.820312 C 216.984375 125.8125 217.292969 125.5 217.292969 125.117188 C 217.292969 124.734375 216.984375 124.421875 216.601562 124.417969 Z M 216.601562 124.417969 "/>
<path style=" stroke:none;fill-rule:nonzero;fill:rgb(18.431373%,18.039216%,25.490196%);fill-opacity:1;" d="M 439.777344 279.929688 C 440.351562 281.601562 441.933594 282.710938 443.695312 282.679688 L 460.496094 282.246094 C 462.273438 282.210938 463.816406 281.007812 464.285156 279.289062 L 466.664062 253.851562 C 467.507812 254.234375 468.425781 254.421875 469.351562 254.402344 C 472.734375 254.316406 475.40625 251.503906 475.320312 248.121094 C 475.234375 244.734375 472.425781 242.058594 469.042969 242.144531 C 468.671875 242.144531 468.304688 242.179688 467.941406 242.257812 C 467.148438 241.398438 466.023438 240.914062 464.851562 240.925781 L 439.015625 241.59375 C 438.800781 241.601562 438.585938 241.625 438.375 241.671875 C 437.230469 241.886719 436.230469 242.585938 435.640625 243.589844 C 435.046875 244.59375 434.917969 245.808594 435.285156 246.914062 Z M 467.152344 252.121094 L 468.84375 246.058594 C 469.035156 245.359375 469.039062 244.621094 468.855469 243.917969 C 468.9375 243.917969 469.011719 243.878906 469.09375 243.878906 C 471.507812 243.828125 473.507812 245.746094 473.5625 248.160156 C 473.621094 250.578125 471.710938 252.585938 469.296875 252.648438 C 468.546875 252.671875 467.804688 252.488281 467.152344 252.121094 Z M 467.152344 252.121094 "/>
<path style=" stroke:none;fill-rule:nonzero;fill:rgb(24.705882%,23.921569%,33.72549%);fill-opacity:1;" d="M 438.375 241.671875 C 438.925781 244.820312 445.117188 247.035156 452.558594 246.652344 C 459.402344 246.335938 464.996094 243.929688 466.019531 241.082031 C 465.640625 240.96875 465.246094 240.914062 464.851562 240.925781 L 439.015625 241.59375 C 438.800781 241.601562 438.585938 241.625 438.375 241.671875 Z M 438.375 241.671875 "/>
<path style=" stroke:none;fill-rule:nonzero;fill:rgb(42.352941%,38.823529%,100%);fill-opacity:1;" d="M 453.921875 265.949219 C 453.957031 265.941406 453.988281 265.925781 454.015625 265.90625 L 457.664062 263.519531 C 457.753906 263.460938 457.808594 263.359375 457.808594 263.253906 C 457.808594 263.144531 457.753906 263.046875 457.664062 262.988281 L 453.875 260.503906 C 453.777344 260.4375 453.65625 260.433594 453.558594 260.484375 C 453.457031 260.535156 453.390625 260.636719 453.382812 260.75 C 453.375 260.863281 453.429688 260.96875 453.527344 261.03125 L 456.914062 263.253906 L 453.671875 265.378906 C 453.539062 265.460938 453.492188 265.628906 453.554688 265.769531 C 453.617188 265.914062 453.769531 265.988281 453.921875 265.949219 Z M 453.921875 265.949219 "/>
<path style=" stroke:none;fill-rule:nonzero;fill:rgb(42.352941%,38.823529%,100%);fill-opacity:1;" d="M 448.160156 266.214844 C 448.285156 266.183594 448.378906 266.078125 448.394531 265.953125 C 448.414062 265.824219 448.351562 265.699219 448.238281 265.632812 L 444.878906 263.703125 L 448.128906 261.289062 C 448.269531 261.183594 448.296875 260.984375 448.191406 260.84375 C 448.089844 260.703125 447.890625 260.675781 447.75 260.777344 L 444.109375 263.484375 C 444.023438 263.546875 443.976562 263.648438 443.984375 263.757812 C 443.988281 263.863281 444.050781 263.960938 444.140625 264.011719 L 447.925781 266.183594 C 447.996094 266.226562 448.082031 266.238281 448.160156 266.214844 Z M 448.160156 266.214844 "/>
<path style=" stroke:none;fill-rule:nonzero;fill:rgb(42.352941%,38.823529%,100%);fill-opacity:1;" d="M 453.558594 268.042969 C 453.589844 268.035156 453.617188 268.023438 453.644531 268.007812 C 453.71875 267.964844 453.769531 267.894531 453.789062 267.8125 C 453.808594 267.730469 453.796875 267.644531 453.75 267.570312 L 448.582031 259.0625 C 448.488281 258.914062 448.292969 258.867188 448.144531 258.957031 C 447.996094 259.046875 447.949219 259.242188 448.039062 259.394531 L 453.210938 267.902344 C 453.28125 268.019531 453.425781 268.078125 453.558594 268.042969 Z M 453.558594 268.042969 "/>
<path style=" stroke:none;fill-rule:nonzero;fill:rgb(42.352941%,38.823529%,100%);fill-opacity:1;" d="M 134.832031 165.523438 L 162.851562 165.523438 C 163.992188 165.523438 164.917969 166.453125 164.917969 167.597656 L 164.917969 170.335938 C 164.917969 171.480469 163.992188 172.40625 162.851562 172.40625 L 134.832031 172.40625 C 133.6875 172.40625 132.761719 171.480469 132.761719 170.335938 L 132.761719 167.597656 C 132.761719 166.453125 133.6875 165.523438 134.832031 165.523438 Z M 134.832031 165.523438 "/>
<path style=" stroke:none;fill-rule:nonzero;fill:rgb(90.196078%,90.196078%,90.196078%);fill-opacity:1;" d="M 118.5 179.289062 L 179.183594 179.289062 C 180.324219 179.289062 181.25 180.21875 181.25 181.363281 L 181.25 184.101562 C 181.25 185.246094 180.324219 186.171875 179.183594 186.171875 L 118.5 186.171875 C 117.355469 186.171875 116.429688 185.246094 116.429688 184.101562 L 116.429688 181.363281 C 116.429688 180.21875 117.355469 179.289062 118.5 179.289062 Z M 118.5 179.289062 "/>
<path style=" stroke:none;fill-rule:nonzero;fill:rgb(90.196078%,90.196078%,90.196078%);fill-opacity:1;" d="M 118.5 193.054688 L 179.183594 193.054688 C 180.324219 193.054688 181.25 193.984375 181.25 195.128906 L 181.25 197.867188 C 181.25 199.011719 180.324219 199.9375 179.183594 199.9375 L 118.5 199.9375 C 117.355469 199.9375 116.429688 199.011719 116.429688 197.867188 L 116.429688 195.128906 C 116.429688 193.984375 117.355469 193.054688 118.5 193.054688 Z M 118.5 193.054688 "/>
<path style=" stroke:none;fill-rule:nonzero;fill:rgb(24.705882%,23.921569%,33.72549%);fill-opacity:1;" d="M 184.328125 239.152344 L 184.464844 239.585938 L 184.472656 239.601562 L 188.609375 252.191406 L 193.367188 266.699219 L 202.324219 293.960938 L 202.410156 298.199219 L 202.410156 298.210938 L 203.074219 332.28125 L 201.230469 336.898438 L 203.304688 344.472656 C 203.304688 344.472656 202.351562 333.027344 197.230469 339.597656 C 194.328125 343.335938 190.9375 347.15625 188.152344 350.742188 C 192.210938 352.382812 196.332031 353.871094 200.519531 355.199219 C 201.425781 355.488281 202.335938 355.765625 203.25 356.039062 C 203.445312 356.097656 203.640625 356.15625 203.835938 356.214844 C 217.714844 360.324219 232.066406 362.632812 246.539062 363.082031 C 247.289062 363.105469 248.027344 363.121094 248.742188 363.132812 C 248.996094 363.140625 249.242188 363.148438 249.488281 363.148438 C 250.300781 363.15625 251.101562 363.164062 251.914062 363.164062 C 253.546875 363.164062 255.175781 363.140625 256.792969 363.089844 C 268.785156 362.753906 280.707031 361.140625 292.359375 358.277344 C 292.28125 353.460938 292.0625 347.835938 291.753906 341.828125 C 291.605469 338.882812 288.359375 335.691406 288.164062 332.605469 C 288.027344 330.289062 290.941406 328.109375 290.789062 325.757812 C 289.804688 311.269531 288.578125 316.832031 287.664062 306.574219 C 287.570312 305.566406 287.484375 304.605469 287.40625 303.683594 C 286.820312 297.097656 286.414062 292.976562 286.414062 292.976562 L 290.304688 268.429688 L 296.417969 229.886719 L 295.945312 229.109375 L 295.417969 228.851562 L 263.179688 212.878906 L 261.429688 208.390625 C 260.386719 205.746094 257.84375 204 255 203.984375 L 233.765625 203.894531 C 231.527344 203.886719 229.425781 204.957031 228.117188 206.769531 L 222.363281 214.742188 Z M 184.328125 239.152344 "/>
<path style=" stroke:none;fill-rule:nonzero;fill:rgb(24.705882%,23.921569%,33.72549%);fill-opacity:1;" d="M 207.21875 287.894531 L 202.410156 298.199219 L 199.125 305.234375 L 193.476562 334.835938 L 190.648438 337.839844 L 188.226562 327.203125 L 162.863281 332.839844 C 162.03125 328.214844 162.640625 332.996094 162.128906 327.921875 C 162.273438 327.777344 162.425781 327.632812 162.578125 327.488281 C 162.980469 327.113281 163.320312 326.757812 163.3125 326.417969 C 163.023438 308.910156 163.894531 279.121094 171.140625 261.074219 C 172.277344 258.125 173.773438 255.332031 175.597656 252.753906 C 175.742188 252.558594 175.878906 252.363281 176.015625 252.167969 C 179.355469 247.484375 181.46875 242.875 184.464844 239.59375 L 184.464844 239.585938 C 184.484375 239.570312 184.5 239.554688 184.515625 239.535156 C 184.523438 239.53125 184.535156 239.523438 184.542969 239.515625 L 205.113281 228.597656 L 205.996094 253.414062 L 206.625 271.253906 Z M 207.21875 287.894531 "/>
<path style=" stroke:none;fill-rule:nonzero;fill:rgb(24.705882%,23.921569%,33.72549%);fill-opacity:1;" d="M 281.394531 290.820312 L 287.402344 303.6875 L 289.5 308.167969 L 295.148438 337.769531 L 297.964844 340.765625 L 300.394531 330.132812 L 301.535156 329.898438 L 322.117188 325.632812 L 328.113281 344.699219 C 330.902344 340.050781 330.039062 334.082031 326.046875 330.417969 C 325.636719 330.046875 325.296875 329.6875 325.304688 329.34375 C 325.644531 308.753906 324.386719 271.160156 313.023438 255.6875 C 309.417969 250.777344 307.25 245.886719 304.101562 242.46875 C 304.089844 242.457031 304.089844 242.449219 304.082031 242.449219 L 296.414062 229.886719 L 295.945312 229.113281 L 295.417969 228.851562 Z M 281.394531 290.820312 "/>
<path style=" stroke:none;fill-rule:nonzero;fill:rgb(100%,71.372549%,71.372549%);fill-opacity:1;" d="M 273.25 169.570312 C 273.25 185.1875 260.597656 197.847656 244.996094 197.847656 C 229.394531 197.847656 216.742188 185.1875 216.742188 169.570312 C 216.742188 153.953125 229.394531 141.292969 244.996094 141.292969 C 260.597656 141.292969 273.25 153.953125 273.25 169.570312 Z M 273.25 169.570312 "/>
<path style=" stroke:none;fill-rule:nonzero;fill:rgb(18.431373%,18.039216%,25.490196%);fill-opacity:1;" d="M 283.183594 149.816406 C 282.738281 149.34375 282.125 149.070312 281.476562 149.0625 L 281.902344 147.882812 C 282.183594 147.125 282.035156 146.273438 281.515625 145.65625 C 280.996094 145.039062 280.183594 144.75 279.390625 144.898438 L 277.84375 145.199219 L 277.988281 144.164062 C 278.101562 143.378906 277.796875 142.59375 277.179688 142.097656 C 276.5625 141.597656 275.730469 141.464844 274.992188 141.738281 C 274.320312 142.003906 273.5625 141.949219 272.9375 141.59375 C 272.304688 141.246094 271.859375 140.640625 271.71875 139.9375 L 271.179688 137.335938 L 271.121094 137.195312 C 268.496094 132.816406 263.449219 129.628906 257.273438 128.464844 C 251.777344 127.414062 246.140625 127.949219 240.707031 128.449219 C 238.550781 128.652344 236.117188 128.882812 234.085938 130.125 C 232.363281 131.191406 230.90625 133.324219 231.203125 135.476562 C 225.84375 133.832031 220.101562 137.113281 217.253906 141.25 C 213.878906 146.175781 213.328125 152.34375 213.238281 157.167969 C 213 168.578125 215.351562 177.914062 220.214844 184.917969 C 220.570312 185.425781 220.660156 186.484375 221.363281 186.839844 L 221.214844 186.605469 C 222.003906 187 222.800781 187.632812 222.503906 188.3125 C 221.648438 190.269531 227.335938 194.589844 231.34375 196.019531 C 238.652344 198.625 248.371094 198.402344 255.207031 197.464844 L 255.449219 195.847656 C 257.914062 195.511719 259.652344 194.871094 260.140625 193.867188 C 261.003906 193.128906 261.738281 192.46875 262.378906 191.859375 L 262.386719 191.855469 C 262.398438 191.84375 262.421875 191.824219 262.4375 191.808594 C 265.523438 188.847656 266.242188 187.160156 266.5625 184.589844 C 266.875 182.070312 266.324219 179.511719 265.757812 177.207031 C 277.640625 179.046875 261.078125 164.542969 272.148438 161.734375 C 272.277344 161.695312 272.40625 161.664062 272.535156 161.640625 C 272.859375 161.566406 273.183594 161.488281 273.492188 161.398438 C 274.992188 160.992188 276.425781 160.378906 277.753906 159.578125 C 280.847656 157.695312 281.871094 155.191406 283.46875 152.375 C 283.941406 151.550781 283.824219 150.515625 283.183594 149.816406 Z M 283.183594 149.816406 "/>
<path style=" stroke:none;fill-rule:nonzero;fill:rgb(18.431373%,18.039216%,25.490196%);fill-opacity:1;" d="M 344.921875 292.835938 C 344.914062 293.945312 344.902344 295.5 344.851562 297.421875 C 344.84375 297.691406 344.835938 297.960938 344.832031 298.242188 C 344.75 301.777344 344.667969 304.742188 344.535156 308.035156 C 344.527344 308.261719 344.519531 308.484375 344.507812 308.714844 C 344.332031 313.308594 344.050781 318.65625 343.570312 327.128906 C 342.675781 342.777344 341.117188 329.28125 339.550781 334.769531 C 339.472656 335.042969 339.390625 335.367188 339.316406 335.746094 C 339.078125 337.128906 338.679688 338.476562 338.125 339.765625 C 337.292969 340.257812 336.4375 340.734375 335.59375 341.210938 C 333.191406 342.550781 330.75 343.839844 328.289062 345.0625 C 326.90625 345.75 325.519531 346.421875 324.125 347.070312 C 323.902344 347.171875 323.6875 347.273438 323.46875 347.367188 C 316.328125 350.675781 308.964844 353.484375 301.4375 355.78125 C 299.964844 356.226562 298.5 356.65625 297.015625 357.058594 C 295.46875 357.488281 293.921875 357.894531 292.355469 358.277344 C 280.707031 361.140625 268.785156 362.753906 256.792969 363.09375 C 255.175781 363.144531 253.546875 363.164062 251.910156 363.164062 C 251.097656 363.164062 250.300781 363.15625 249.488281 363.148438 C 249.242188 363.148438 248.996094 363.144531 248.746094 363.136719 C 248.03125 363.117188 247.289062 363.105469 246.539062 363.085938 C 232.070312 362.636719 217.71875 360.324219 203.835938 356.214844 L 203.246094 356.042969 C 202.335938 355.761719 201.425781 355.492188 200.519531 355.199219 C 196.335938 353.871094 192.210938 352.386719 188.152344 350.742188 C 185.050781 349.492188 181.984375 348.152344 178.957031 346.71875 C 178.929688 346.710938 178.902344 346.699219 178.878906 346.683594 C 178.246094 346.390625 177.605469 346.085938 176.972656 345.773438 C 176.890625 345.730469 176.800781 345.6875 176.710938 345.640625 C 174.347656 344.484375 172.007812 343.277344 169.691406 342.011719 C 167.746094 337.539062 165.007812 336.679688 163.308594 332.746094 C 162.8125 331.578125 162.457031 330.355469 162.242188 329.101562 C 162.242188 329.089844 162.238281 329.078125 162.238281 329.058594 C 162.414062 331.417969 161.480469 324.871094 162.230469 329.035156 C 162.222656 328.957031 162.21875 328.875 162.210938 328.78125 C 162.191406 328.550781 162.167969 328.273438 162.128906 327.921875 C 159.953125 306.667969 160.09375 282.363281 159.148438 262.335938 C 159.085938 261.039062 159.019531 259.800781 158.953125 258.617188 C 158.933594 258.222656 158.90625 257.835938 158.882812 257.453125 C 158.925781 257.339844 158.976562 257.21875 159.035156 257.105469 C 159.046875 257.074219 159.0625 257.042969 159.078125 257.011719 C 159.097656 256.972656 159.117188 256.933594 159.140625 256.898438 C 159.15625 256.878906 159.175781 256.851562 159.1875 256.832031 C 159.195312 256.8125 159.207031 256.789062 159.21875 256.769531 C 159.277344 256.679688 159.339844 256.585938 159.410156 256.496094 C 159.441406 256.457031 159.464844 256.425781 159.496094 256.394531 C 159.519531 256.363281 159.546875 256.332031 159.574219 256.304688 C 159.59375 256.277344 159.617188 256.25 159.644531 256.222656 C 159.667969 256.199219 159.695312 256.167969 159.726562 256.136719 C 159.738281 256.113281 159.757812 256.097656 159.777344 256.085938 C 159.828125 256.027344 159.882812 255.972656 159.941406 255.925781 C 160.167969 255.71875 160.410156 255.527344 160.664062 255.355469 C 160.753906 255.296875 160.847656 255.242188 160.9375 255.175781 C 161.574219 254.792969 162.25 254.472656 162.945312 254.210938 C 163.1875 254.125 163.429688 254.039062 163.6875 253.953125 C 163.785156 253.925781 163.871094 253.894531 163.96875 253.863281 C 164.105469 253.820312 164.246094 253.773438 164.390625 253.742188 C 165.117188 253.527344 165.894531 253.34375 166.738281 253.171875 C 166.839844 253.152344 166.949219 253.132812 167.054688 253.109375 C 167.207031 253.078125 167.367188 253.050781 167.523438 253.027344 C 167.742188 252.988281 167.960938 252.949219 168.183594 252.910156 C 170.066406 252.613281 172.203125 252.390625 174.5625 252.246094 C 174.785156 252.230469 175.007812 252.21875 175.226562 252.207031 C 175.488281 252.195312 175.75 252.179688 176.015625 252.167969 C 176.238281 252.15625 176.464844 252.148438 176.691406 252.144531 C 176.914062 252.128906 177.144531 252.125 177.378906 252.117188 C 178.019531 252.097656 178.675781 252.078125 179.351562 252.066406 C 181.265625 252.027344 183.28125 252.042969 185.398438 252.085938 C 186.382812 252.113281 187.382812 252.136719 188.410156 252.179688 C 188.480469 252.179688 188.542969 252.1875 188.605469 252.1875 C 189.5 252.21875 190.402344 252.257812 191.328125 252.308594 C 191.972656 252.339844 192.625 252.371094 193.28125 252.410156 C 193.894531 252.449219 194.515625 252.484375 195.144531 252.53125 C 195.632812 252.554688 196.121094 252.59375 196.613281 252.625 C 197.035156 252.65625 197.453125 252.6875 197.871094 252.714844 L 198.441406 252.753906 C 198.75 252.777344 199.0625 252.796875 199.378906 252.828125 C 200.078125 252.886719 200.773438 252.941406 201.484375 253 C 202.1875 253.0625 202.90625 253.128906 203.621094 253.191406 C 204.335938 253.253906 205.0625 253.324219 205.785156 253.394531 C 205.859375 253.398438 205.929688 253.40625 206 253.414062 C 206.660156 253.484375 207.316406 253.546875 207.984375 253.617188 C 208.136719 253.628906 208.292969 253.640625 208.445312 253.660156 C 209.082031 253.722656 209.726562 253.796875 210.367188 253.867188 C 210.566406 253.886719 210.761719 253.910156 210.957031 253.929688 C 211.460938 253.984375 211.953125 254.03125 212.460938 254.089844 C 213.125 254.167969 213.804688 254.238281 214.464844 254.328125 C 214.976562 254.382812 215.492188 254.441406 216.003906 254.503906 C 216.808594 254.597656 217.628906 254.699219 218.445312 254.808594 C 218.757812 254.847656 219.066406 254.886719 219.378906 254.929688 C 221.710938 255.222656 224.070312 255.542969 226.464844 255.882812 C 230.097656 256.394531 233.789062 256.953125 237.503906 257.554688 C 241.226562 258.160156 244.96875 258.796875 248.734375 259.46875 C 249.683594 259.636719 250.636719 259.808594 251.59375 259.988281 C 252.023438 260.070312 252.457031 260.152344 252.886719 260.234375 C 253.621094 260.367188 254.359375 260.507812 255.09375 260.648438 C 255.828125 260.785156 256.566406 260.925781 257.300781 261.074219 C 258.175781 261.242188 259.054688 261.414062 259.929688 261.585938 C 265.695312 262.730469 271.425781 263.945312 277.019531 265.222656 C 277.9375 265.433594 278.859375 265.648438 279.769531 265.855469 C 281.597656 266.28125 283.40625 266.714844 285.199219 267.152344 C 285.691406 267.265625 286.179688 267.386719 286.667969 267.507812 C 287.886719 267.8125 289.105469 268.117188 290.300781 268.425781 L 290.511719 268.484375 C 291.394531 268.699219 292.253906 268.921875 293.117188 269.152344 C 295.152344 269.683594 297.15625 270.222656 299.121094 270.769531 C 300.429688 271.132812 301.71875 271.496094 302.996094 271.867188 C 304.90625 272.417969 306.777344 272.976562 308.59375 273.542969 C 309.046875 273.683594 309.496094 273.820312 309.9375 273.953125 C 311.269531 274.367188 312.582031 274.785156 313.859375 275.207031 C 314.871094 275.535156 315.863281 275.871094 316.835938 276.207031 C 317.8125 276.542969 318.773438 276.878906 319.710938 277.21875 C 320.3125 277.433594 320.910156 277.660156 321.503906 277.878906 C 322.359375 278.195312 323.203125 278.511719 324.027344 278.828125 C 324.28125 278.925781 324.527344 279.027344 324.777344 279.121094 C 324.933594 279.191406 325.085938 279.246094 325.238281 279.3125 C 325.535156 279.433594 325.839844 279.546875 326.132812 279.667969 C 326.429688 279.78125 326.722656 279.902344 327.015625 280.027344 C 327.300781 280.140625 327.589844 280.261719 327.871094 280.382812 C 328.15625 280.496094 328.433594 280.617188 328.714844 280.746094 C 328.949219 280.839844 329.175781 280.941406 329.398438 281.042969 C 329.847656 281.242188 330.296875 281.4375 330.734375 281.640625 C 330.953125 281.742188 331.167969 281.835938 331.382812 281.9375 L 331.878906 282.167969 C 331.949219 282.203125 332.015625 282.238281 332.085938 282.269531 C 332.246094 282.34375 332.410156 282.425781 332.570312 282.503906 C 332.9375 282.675781 333.296875 282.859375 333.652344 283.03125 C 334.128906 283.269531 334.589844 283.511719 335.035156 283.746094 C 335.484375 283.988281 335.921875 284.230469 336.339844 284.464844 C 336.410156 284.503906 336.472656 284.539062 336.542969 284.578125 C 336.640625 284.628906 336.734375 284.6875 336.828125 284.738281 C 337.152344 284.921875 337.464844 285.113281 337.773438 285.296875 C 338.382812 285.671875 338.960938 286.039062 339.5 286.40625 C 339.621094 286.488281 339.734375 286.570312 339.855469 286.648438 C 340.253906 286.933594 340.632812 287.210938 340.988281 287.496094 C 340.988281 287.503906 340.988281 287.503906 340.996094 287.503906 C 341.117188 287.59375 341.230469 287.6875 341.34375 287.777344 C 341.4375 287.867188 341.539062 287.941406 341.636719 288.03125 C 341.964844 288.316406 342.269531 288.589844 342.546875 288.867188 C 342.640625 288.953125 342.730469 289.046875 342.816406 289.140625 C 342.851562 289.171875 342.886719 289.207031 342.917969 289.242188 C 343.042969 289.371094 343.15625 289.496094 343.265625 289.625 C 343.28125 289.640625 343.296875 289.660156 343.308594 289.679688 C 343.460938 289.859375 343.601562 290.035156 343.734375 290.214844 C 343.796875 290.300781 343.867188 290.390625 343.925781 290.480469 C 344 290.589844 344.078125 290.703125 344.140625 290.808594 C 344.195312 290.898438 344.246094 290.996094 344.296875 291.082031 C 344.433594 291.3125 344.546875 291.550781 344.640625 291.800781 C 344.710938 291.96875 344.769531 292.144531 344.8125 292.320312 C 344.859375 292.488281 344.894531 292.660156 344.921875 292.835938 Z M 344.921875 292.835938 "/>
<use xlink:href="#surface5" mask="url(#mask0)"/>
</g>
</svg>
