<?xml version="1.0" encoding="UTF-8"?>
<svg xmlns="http://www.w3.org/2000/svg" xmlns:xlink="http://www.w3.org/1999/xlink" width="344px" height="250px" viewBox="0 0 343 250" version="1.1">
<defs>
<filter id="alpha" filterUnits="objectBoundingBox" x="0%" y="0%" width="100%" height="100%">
  <feColorMatrix type="matrix" in="SourceGraphic" values="0 0 0 0 1 0 0 0 0 1 0 0 0 0 1 0 0 0 1 0"/>
</filter>
<mask id="mask0">
  <g filter="url(#alpha)">
<rect x="0" y="0" width="343" height="250" style="fill:rgb(0%,0%,0%);fill-opacity:0.2;stroke:none;"/>
  </g>
</mask>
<clipPath id="clip1">
  <rect x="0" y="0" width="343" height="250"/>
</clipPath>
<g id="surface5" clip-path="url(#clip1)">
<path style=" stroke:none;fill-rule:nonzero;fill:rgb(0%,0%,0%);fill-opacity:1;" d="M 237.089844 201.675781 C 237.085938 202.441406 237.078125 203.511719 237.042969 204.835938 C 237.035156 205.019531 237.027344 205.207031 237.023438 205.402344 C 236.980469 207.257812 236.914062 209.554688 236.824219 212.144531 C 236.820312 212.300781 236.816406 212.453125 236.804688 212.613281 C 236.683594 215.777344 236.492188 219.460938 236.160156 225.296875 C 235.546875 236.074219 234.472656 226.777344 233.398438 230.558594 C 230.40625 228.714844 227.128906 226.78125 223.625 224.796875 C 222.996094 224.4375 222.355469 224.078125 221.714844 223.71875 C 214.703125 219.796875 206.878906 215.6875 198.707031 211.621094 C 198.382812 211.457031 198.054688 211.296875 197.734375 211.140625 C 179.015625 201.859375 158.582031 192.835938 142.03125 186.8125 C 138.835938 185.648438 135.785156 184.601562 132.917969 183.679688 C 126.875 181.742188 121.65625 180.386719 117.636719 179.800781 C 113.453125 179.191406 110.5625 179.410156 109.394531 180.671875 C 109.351562 179.78125 109.304688 178.925781 109.261719 178.109375 C 109.242188 177.839844 109.226562 177.574219 109.207031 177.3125 C 109.234375 177.238281 109.269531 177.171875 109.304688 177.101562 C 109.308594 177.089844 109.3125 177.082031 109.316406 177.070312 C 109.324219 177.046875 109.335938 177.027344 109.347656 177.003906 C 109.359375 176.976562 109.375 176.953125 109.390625 176.925781 C 109.40625 176.894531 109.421875 176.867188 109.441406 176.839844 C 109.480469 176.777344 109.527344 176.710938 109.574219 176.652344 C 109.609375 176.605469 109.648438 176.5625 109.6875 176.519531 C 109.699219 176.5 109.714844 176.480469 109.734375 176.460938 C 109.753906 176.445312 109.769531 176.421875 109.792969 176.402344 C 109.800781 176.386719 109.8125 176.375 109.828125 176.367188 C 109.859375 176.328125 109.898438 176.289062 109.941406 176.257812 C 110.09375 176.113281 110.261719 175.980469 110.4375 175.863281 C 110.496094 175.824219 110.5625 175.785156 110.625 175.742188 C 111.0625 175.476562 111.527344 175.253906 112.003906 175.078125 C 112.171875 175.015625 112.335938 174.960938 112.515625 174.898438 C 112.582031 174.878906 112.640625 174.859375 112.707031 174.835938 C 112.804688 174.804688 112.898438 174.777344 113 174.753906 C 113.496094 174.605469 114.03125 174.476562 114.613281 174.359375 C 114.785156 174.324219 114.96875 174.289062 115.152344 174.261719 C 115.300781 174.234375 115.453125 174.207031 115.605469 174.179688 C 116.898438 173.976562 118.367188 173.824219 119.988281 173.722656 C 120.140625 173.714844 120.296875 173.703125 120.449219 173.695312 C 120.625 173.6875 120.804688 173.679688 120.988281 173.667969 C 121.140625 173.660156 121.296875 173.65625 121.453125 173.652344 C 121.605469 173.644531 121.765625 173.640625 121.925781 173.636719 C 122.367188 173.621094 122.820312 173.609375 123.28125 173.601562 C 124.597656 173.578125 125.984375 173.585938 127.4375 173.617188 C 128.113281 173.628906 128.800781 173.652344 129.507812 173.683594 C 129.550781 173.683594 129.601562 173.6875 129.644531 173.6875 C 130.257812 173.703125 130.882812 173.734375 131.511719 173.765625 C 131.957031 173.789062 132.40625 173.808594 132.855469 173.835938 C 133.277344 173.863281 133.707031 173.886719 134.136719 173.917969 C 134.472656 173.9375 134.808594 173.960938 135.148438 173.984375 C 135.4375 174.007812 135.722656 174.027344 136.011719 174.046875 C 136.355469 174.070312 136.699219 174.097656 137.046875 174.125 C 137.527344 174.164062 138.007812 174.203125 138.496094 174.242188 C 138.980469 174.285156 139.472656 174.328125 139.964844 174.375 C 140.457031 174.417969 140.953125 174.464844 141.449219 174.511719 C 141.503906 174.519531 141.550781 174.523438 141.597656 174.527344 C 142.050781 174.574219 142.503906 174.617188 142.960938 174.667969 C 145.5 174.925781 148.109375 175.226562 150.792969 175.570312 C 152.398438 175.777344 154.023438 175.996094 155.667969 176.230469 C 158.164062 176.585938 160.699219 176.96875 163.253906 177.378906 C 165.8125 177.796875 168.386719 178.234375 170.972656 178.695312 C 171.628906 178.8125 172.28125 178.933594 172.9375 179.054688 C 173.742188 179.203125 174.542969 179.355469 175.34375 179.507812 C 175.851562 179.605469 176.355469 179.703125 176.863281 179.800781 C 177.464844 179.917969 178.070312 180.039062 178.671875 180.15625 C 182.632812 180.941406 186.570312 181.78125 190.417969 182.660156 C 191.046875 182.804688 191.679688 182.953125 192.308594 183.097656 C 193.5625 183.390625 194.804688 183.6875 196.039062 183.988281 C 196.378906 184.070312 196.714844 184.15625 197.050781 184.238281 C 197.890625 184.449219 198.722656 184.65625 199.546875 184.867188 L 199.546875 184.871094 C 199.59375 184.878906 199.644531 184.894531 199.691406 184.90625 C 200.292969 185.058594 200.890625 185.210938 201.480469 185.371094 C 202.882812 185.738281 204.257812 186.105469 205.609375 186.480469 C 206.507812 186.734375 207.394531 186.984375 208.273438 187.238281 C 209.582031 187.621094 210.871094 188.003906 212.121094 188.390625 C 212.429688 188.488281 212.738281 188.582031 213.042969 188.675781 C 213.960938 188.960938 214.859375 189.25 215.738281 189.535156 C 216.433594 189.761719 217.113281 189.996094 217.785156 190.226562 C 218.457031 190.457031 219.117188 190.6875 219.761719 190.921875 C 220.179688 191.070312 220.589844 191.222656 220.992188 191.371094 C 221.585938 191.589844 222.160156 191.808594 222.730469 192.03125 C 222.902344 192.097656 223.074219 192.167969 223.242188 192.230469 C 223.5625 192.355469 223.871094 192.480469 224.175781 192.609375 C 224.378906 192.6875 224.582031 192.769531 224.78125 192.855469 C 224.976562 192.9375 225.179688 193.019531 225.371094 193.101562 C 225.566406 193.179688 225.757812 193.261719 225.949219 193.351562 C 226.109375 193.417969 226.269531 193.488281 226.421875 193.554688 C 226.730469 193.691406 227.039062 193.828125 227.339844 193.96875 C 227.488281 194.035156 227.636719 194.101562 227.785156 194.171875 L 228.125 194.328125 C 228.171875 194.355469 228.21875 194.378906 228.269531 194.398438 C 228.636719 194.574219 228.996094 194.75 229.34375 194.925781 C 229.671875 195.089844 229.988281 195.257812 230.292969 195.417969 C 230.65625 195.609375 231 195.796875 231.332031 195.992188 C 231.398438 196.027344 231.460938 196.066406 231.527344 196.101562 C 231.75 196.226562 231.964844 196.359375 232.175781 196.484375 C 232.597656 196.742188 232.992188 196.996094 233.363281 197.25 C 233.730469 197.503906 234.070312 197.753906 234.386719 198 C 234.386719 198.003906 234.386719 198.003906 234.390625 198.003906 C 234.542969 198.128906 234.691406 198.25 234.832031 198.367188 C 235.058594 198.566406 235.265625 198.753906 235.460938 198.945312 C 235.523438 199.003906 235.585938 199.066406 235.640625 199.132812 C 235.667969 199.152344 235.691406 199.175781 235.710938 199.203125 C 235.804688 199.304688 235.894531 199.402344 235.980469 199.503906 C 236.085938 199.628906 236.183594 199.75 236.273438 199.871094 C 236.316406 199.933594 236.367188 199.996094 236.40625 200.054688 C 236.457031 200.128906 236.507812 200.207031 236.554688 200.28125 C 236.59375 200.34375 236.628906 200.410156 236.664062 200.46875 C 236.753906 200.628906 236.832031 200.792969 236.898438 200.964844 C 236.945312 201.082031 236.984375 201.199219 237.015625 201.324219 C 237.046875 201.4375 237.074219 201.558594 237.089844 201.675781 Z M 237.089844 201.675781 "/>
</g>
</defs>
<g id="surface1">
<path style=" stroke:none;fill-rule:nonzero;fill:rgb(94.901961%,94.901961%,94.901961%);fill-opacity:1;" d="M 211.386719 32.421875 C 211.386719 38.867188 206.179688 44.09375 199.75 44.09375 C 193.324219 44.09375 188.113281 38.867188 188.113281 32.421875 C 188.113281 25.976562 193.324219 20.753906 199.75 20.753906 C 206.179688 20.753906 211.386719 25.976562 211.386719 32.421875 Z M 211.386719 32.421875 "/>
<path style=" stroke:none;fill-rule:nonzero;fill:rgb(94.901961%,94.901961%,94.901961%);fill-opacity:1;" d="M 290.023438 217.285156 C 307.320312 204.074219 315.582031 181.875 310.410156 160.695312 C 310.28125 160.167969 310.144531 159.644531 310.003906 159.121094 C 306.574219 146.546875 298.089844 134.601562 285.726562 130.582031 C 275.347656 127.210938 264.015625 129.804688 253.183594 128.460938 C 231.921875 125.828125 215.441406 108.578125 203.84375 90.515625 C 192.246094 72.457031 183.332031 52.238281 167.921875 37.316406 C 142.519531 12.71875 101.082031 7.425781 69.585938 23.433594 C 38.089844 39.445312 18.027344 74.964844 18.882812 110.363281 C 19.738281 145.765625 40.695312 179.609375 71.128906 197.566406 C 82.308594 204.164062 95.238281 208.835938 108.109375 207.199219 C 119.273438 205.78125 129.421875 199.765625 140.535156 197.980469 C 158.007812 195.171875 175.367188 203.09375 190.480469 212.324219 C 205.59375 221.558594 220.191406 232.5 237.367188 236.78125 C 254.042969 240.933594 274.699219 228.992188 290.023438 217.285156 Z M 290.023438 217.285156 "/>
<path style=" stroke:none;fill-rule:nonzero;fill:rgb(24.705882%,23.921569%,33.72549%);fill-opacity:1;" d="M 265.171875 24.179688 C 264.792969 23.925781 264.410156 23.683594 264.03125 23.441406 C 253.070312 16.410156 241.320312 10.699219 229.027344 6.425781 L 226.179688 45.855469 L 208.109375 45.855469 L 208.109375 0.667969 C 206.96875 0.433594 205.824219 0.210938 204.679688 0 L 204.679688 45.855469 L 183.203125 45.855469 C 158.589844 45.855469 138.632812 25.84375 138.632812 1.160156 C 137.480469 1.40625 136.339844 1.675781 135.199219 1.957031 L 135.199219 45.855469 L 117.707031 45.855469 L 114.992188 8.257812 C 102.359375 13.113281 90.367188 19.503906 79.28125 27.28125 C 79.089844 27.414062 78.898438 27.546875 78.710938 27.679688 C 77.746094 28.355469 76.796875 29.046875 75.851562 29.746094 L 75.851562 180.179688 L 127.394531 180.179688 L 126.484375 167.527344 L 121.472656 98.054688 L 222.40625 98.054688 L 217.394531 167.527344 L 216.484375 180.179688 L 267.460938 180.179688 L 267.460938 25.699219 C 266.703125 25.183594 265.9375 24.675781 265.171875 24.179688 Z M 135.199219 86.582031 L 120.644531 86.582031 L 117.957031 49.300781 L 135.199219 49.300781 Z M 204.679688 86.582031 L 180.238281 86.582031 L 180.238281 85.84375 C 180.238281 85.125 179.953125 84.4375 179.445312 83.933594 C 178.941406 83.425781 178.253906 83.140625 177.539062 83.140625 L 166.914062 83.140625 C 165.425781 83.140625 164.21875 84.351562 164.21875 85.84375 L 164.21875 86.582031 L 138.632812 86.582031 L 138.632812 49.300781 L 204.679688 49.300781 Z M 208.109375 86.582031 L 208.109375 49.300781 L 225.929688 49.300781 L 223.242188 86.582031 Z M 208.109375 86.582031 "/>
<path style=" stroke:none;fill-rule:nonzero;fill:rgb(24.705882%,23.921569%,33.72549%);fill-opacity:1;" d="M 0 189.8125 C 3.785156 194.3125 7.882812 198.539062 12.253906 202.464844 L 330.664062 202.902344 C 335.039062 198.976562 339.136719 194.75 342.921875 190.25 Z M 0 189.8125 "/>
<path style=" stroke:none;fill-rule:nonzero;fill:rgb(24.705882%,23.921569%,33.72549%);fill-opacity:1;" d="M 215.925781 149.296875 L 215.925781 186.753906 C 215.925781 187.75 216.726562 188.554688 217.71875 188.554688 L 273.070312 188.554688 C 274.0625 188.554688 274.867188 187.75 274.867188 186.753906 L 274.867188 149.296875 C 274.863281 148.304688 274.0625 147.5 273.070312 147.5 L 217.71875 147.5 C 216.730469 147.5 215.925781 148.304688 215.925781 149.296875 Z M 215.925781 149.296875 "/>
<path style=" stroke:none;fill-rule:nonzero;fill:rgb(42.352941%,38.823529%,100%);fill-opacity:1;" d="M 217.222656 149.761719 L 217.222656 186.292969 C 217.222656 186.824219 217.652344 187.253906 218.183594 187.253906 L 272.613281 187.253906 C 273.140625 187.253906 273.570312 186.824219 273.570312 186.292969 L 273.570312 149.761719 C 273.570312 149.230469 273.140625 148.800781 272.613281 148.796875 L 218.183594 148.796875 C 217.652344 148.800781 217.222656 149.230469 217.222656 149.761719 Z M 217.222656 149.761719 "/>
<path style=" stroke:none;fill-rule:nonzero;fill:rgb(18.431373%,18.039216%,25.490196%);fill-opacity:1;" d="M 214.765625 194.058594 C 214.972656 194.320312 215.285156 194.46875 215.613281 194.464844 L 274.882812 194.464844 C 275.210938 194.464844 275.523438 194.316406 275.730469 194.0625 C 275.9375 193.804688 276.015625 193.472656 275.949219 193.148438 L 275.03125 188.765625 C 274.953125 188.402344 274.695312 188.105469 274.351562 187.972656 C 274.226562 187.921875 274.097656 187.898438 273.964844 187.898438 L 216.53125 187.898438 C 216.398438 187.898438 216.265625 187.921875 216.144531 187.972656 C 215.796875 188.105469 215.542969 188.402344 215.464844 188.765625 L 214.542969 193.148438 C 214.476562 193.46875 214.558594 193.804688 214.765625 194.058594 Z M 214.765625 194.058594 "/>
<path style=" stroke:none;fill-rule:nonzero;fill:rgb(24.705882%,23.921569%,33.72549%);fill-opacity:1;" d="M 273.328125 189.785156 L 271.929688 189.785156 C 271.8125 189.785156 271.71875 189.691406 271.71875 189.574219 L 271.71875 188.902344 C 271.71875 188.78125 271.8125 188.6875 271.929688 188.6875 L 273.328125 188.6875 C 273.445312 188.6875 273.542969 188.78125 273.542969 188.902344 L 273.542969 189.574219 C 273.542969 189.691406 273.445312 189.785156 273.328125 189.785156 Z M 273.328125 189.785156 "/>
<path style=" stroke:none;fill-rule:nonzero;fill:rgb(24.705882%,23.921569%,33.72549%);fill-opacity:1;" d="M 269.679688 189.785156 L 268.277344 189.785156 C 268.160156 189.785156 268.066406 189.691406 268.066406 189.574219 L 268.066406 188.902344 C 268.066406 188.78125 268.160156 188.6875 268.277344 188.6875 L 269.679688 188.6875 C 269.796875 188.6875 269.890625 188.78125 269.890625 188.902344 L 269.890625 189.574219 C 269.890625 189.691406 269.796875 189.785156 269.679688 189.785156 Z M 269.679688 189.785156 "/>
<path style=" stroke:none;fill-rule:nonzero;fill:rgb(24.705882%,23.921569%,33.72549%);fill-opacity:1;" d="M 266.027344 189.785156 L 264.628906 189.785156 C 264.511719 189.785156 264.414062 189.691406 264.414062 189.574219 L 264.414062 188.902344 C 264.414062 188.78125 264.511719 188.6875 264.628906 188.6875 L 266.027344 188.6875 C 266.144531 188.6875 266.242188 188.78125 266.242188 188.902344 L 266.242188 189.574219 C 266.242188 189.691406 266.144531 189.785156 266.027344 189.785156 Z M 266.027344 189.785156 "/>
<path style=" stroke:none;fill-rule:nonzero;fill:rgb(24.705882%,23.921569%,33.72549%);fill-opacity:1;" d="M 262.375 189.785156 L 260.976562 189.785156 C 260.859375 189.785156 260.765625 189.691406 260.765625 189.574219 L 260.765625 188.902344 C 260.765625 188.78125 260.859375 188.6875 260.976562 188.6875 L 262.375 188.6875 C 262.496094 188.6875 262.589844 188.78125 262.589844 188.902344 L 262.589844 189.574219 C 262.589844 189.691406 262.496094 189.785156 262.375 189.785156 Z M 262.375 189.785156 "/>
<path style=" stroke:none;fill-rule:nonzero;fill:rgb(24.705882%,23.921569%,33.72549%);fill-opacity:1;" d="M 258.726562 189.785156 L 257.324219 189.785156 C 257.207031 189.785156 257.113281 189.691406 257.113281 189.574219 L 257.113281 188.902344 C 257.113281 188.78125 257.207031 188.6875 257.324219 188.6875 L 258.726562 188.6875 C 258.84375 188.6875 258.9375 188.78125 258.9375 188.902344 L 258.9375 189.574219 C 258.9375 189.691406 258.84375 189.785156 258.726562 189.785156 Z M 258.726562 189.785156 "/>
<path style=" stroke:none;fill-rule:nonzero;fill:rgb(24.705882%,23.921569%,33.72549%);fill-opacity:1;" d="M 255.074219 189.785156 L 253.675781 189.785156 C 253.558594 189.785156 253.460938 189.691406 253.460938 189.574219 L 253.460938 188.902344 C 253.460938 188.78125 253.558594 188.6875 253.675781 188.6875 L 255.074219 188.6875 C 255.191406 188.6875 255.289062 188.78125 255.289062 188.902344 L 255.289062 189.574219 C 255.289062 189.691406 255.191406 189.785156 255.074219 189.785156 Z M 255.074219 189.785156 "/>
<path style=" stroke:none;fill-rule:nonzero;fill:rgb(24.705882%,23.921569%,33.72549%);fill-opacity:1;" d="M 251.425781 189.785156 L 250.023438 189.785156 C 249.90625 189.785156 249.8125 189.691406 249.8125 189.574219 L 249.8125 188.902344 C 249.8125 188.78125 249.90625 188.6875 250.023438 188.6875 L 251.425781 188.6875 C 251.542969 188.6875 251.636719 188.78125 251.636719 188.902344 L 251.636719 189.574219 C 251.636719 189.691406 251.542969 189.785156 251.425781 189.785156 Z M 251.425781 189.785156 "/>
<path style=" stroke:none;fill-rule:nonzero;fill:rgb(24.705882%,23.921569%,33.72549%);fill-opacity:1;" d="M 247.773438 189.785156 L 246.371094 189.785156 C 246.253906 189.785156 246.160156 189.691406 246.160156 189.574219 L 246.160156 188.902344 C 246.160156 188.78125 246.253906 188.6875 246.371094 188.6875 L 247.773438 188.6875 C 247.890625 188.6875 247.984375 188.78125 247.984375 188.902344 L 247.984375 189.574219 C 247.984375 189.691406 247.890625 189.785156 247.773438 189.785156 Z M 247.773438 189.785156 "/>
<path style=" stroke:none;fill-rule:nonzero;fill:rgb(24.705882%,23.921569%,33.72549%);fill-opacity:1;" d="M 244.121094 189.785156 L 242.722656 189.785156 C 242.605469 189.785156 242.507812 189.691406 242.507812 189.574219 L 242.507812 188.902344 C 242.507812 188.78125 242.605469 188.6875 242.722656 188.6875 L 244.121094 188.6875 C 244.238281 188.6875 244.335938 188.78125 244.335938 188.902344 L 244.335938 189.574219 C 244.335938 189.691406 244.238281 189.785156 244.121094 189.785156 Z M 244.121094 189.785156 "/>
<path style=" stroke:none;fill-rule:nonzero;fill:rgb(24.705882%,23.921569%,33.72549%);fill-opacity:1;" d="M 240.472656 189.785156 L 239.070312 189.785156 C 238.953125 189.785156 238.859375 189.691406 238.859375 189.574219 L 238.859375 188.902344 C 238.859375 188.78125 238.953125 188.6875 239.070312 188.6875 L 240.472656 188.6875 C 240.589844 188.6875 240.683594 188.78125 240.683594 188.902344 L 240.683594 189.574219 C 240.683594 189.691406 240.589844 189.785156 240.472656 189.785156 Z M 240.472656 189.785156 "/>
<path style=" stroke:none;fill-rule:nonzero;fill:rgb(24.705882%,23.921569%,33.72549%);fill-opacity:1;" d="M 236.820312 189.785156 L 235.421875 189.785156 C 235.300781 189.785156 235.207031 189.691406 235.207031 189.574219 L 235.207031 188.902344 C 235.207031 188.78125 235.300781 188.6875 235.421875 188.6875 L 236.820312 188.6875 C 236.9375 188.6875 237.03125 188.78125 237.03125 188.902344 L 237.03125 189.574219 C 237.03125 189.691406 236.9375 189.785156 236.820312 189.785156 Z M 236.820312 189.785156 "/>
<path style=" stroke:none;fill-rule:nonzero;fill:rgb(24.705882%,23.921569%,33.72549%);fill-opacity:1;" d="M 233.167969 189.785156 L 231.769531 189.785156 C 231.652344 189.785156 231.554688 189.691406 231.554688 189.574219 L 231.554688 188.902344 C 231.554688 188.78125 231.652344 188.6875 231.769531 188.6875 L 233.167969 188.6875 C 233.285156 188.6875 233.382812 188.78125 233.382812 188.902344 L 233.382812 189.574219 C 233.382812 189.691406 233.285156 189.785156 233.167969 189.785156 Z M 233.167969 189.785156 "/>
<path style=" stroke:none;fill-rule:nonzero;fill:rgb(24.705882%,23.921569%,33.72549%);fill-opacity:1;" d="M 229.519531 189.785156 L 228.117188 189.785156 C 228 189.785156 227.90625 189.691406 227.90625 189.574219 L 227.90625 188.902344 C 227.90625 188.78125 228 188.6875 228.117188 188.6875 L 229.519531 188.6875 C 229.636719 188.6875 229.730469 188.78125 229.730469 188.902344 L 229.730469 189.574219 C 229.730469 189.691406 229.636719 189.785156 229.519531 189.785156 Z M 229.519531 189.785156 "/>
<path style=" stroke:none;fill-rule:nonzero;fill:rgb(24.705882%,23.921569%,33.72549%);fill-opacity:1;" d="M 225.867188 189.785156 L 224.46875 189.785156 C 224.351562 189.785156 224.253906 189.691406 224.253906 189.574219 L 224.253906 188.902344 C 224.253906 188.78125 224.351562 188.6875 224.46875 188.6875 L 225.867188 188.6875 C 225.984375 188.6875 226.078125 188.78125 226.078125 188.902344 L 226.078125 189.574219 C 226.078125 189.691406 225.984375 189.785156 225.867188 189.785156 Z M 225.867188 189.785156 "/>
<path style=" stroke:none;fill-rule:nonzero;fill:rgb(24.705882%,23.921569%,33.72549%);fill-opacity:1;" d="M 222.214844 189.785156 L 220.816406 189.785156 C 220.699219 189.785156 220.601562 189.691406 220.601562 189.574219 L 220.601562 188.902344 C 220.601562 188.78125 220.699219 188.6875 220.816406 188.6875 L 222.214844 188.6875 C 222.332031 188.6875 222.429688 188.78125 222.429688 188.902344 L 222.429688 189.574219 C 222.429688 189.691406 222.332031 189.785156 222.214844 189.785156 Z M 222.214844 189.785156 "/>
<path style=" stroke:none;fill-rule:nonzero;fill:rgb(24.705882%,23.921569%,33.72549%);fill-opacity:1;" d="M 218.566406 189.785156 L 217.164062 189.785156 C 217.046875 189.785156 216.953125 189.691406 216.953125 189.574219 L 216.953125 188.902344 C 216.953125 188.78125 217.046875 188.6875 217.164062 188.6875 L 218.566406 188.6875 C 218.683594 188.6875 218.777344 188.78125 218.777344 188.902344 L 218.777344 189.574219 C 218.777344 189.691406 218.683594 189.785156 218.566406 189.785156 Z M 218.566406 189.785156 "/>
<path style=" stroke:none;fill-rule:nonzero;fill:rgb(24.705882%,23.921569%,33.72549%);fill-opacity:1;" d="M 273.371094 191.617188 L 271.972656 191.617188 C 271.855469 191.617188 271.761719 191.519531 271.761719 191.402344 L 271.761719 190.730469 C 271.761719 190.613281 271.855469 190.519531 271.972656 190.519531 L 273.371094 190.519531 C 273.492188 190.519531 273.585938 190.613281 273.585938 190.730469 L 273.585938 191.402344 C 273.585938 191.519531 273.492188 191.617188 273.371094 191.617188 Z M 273.371094 191.617188 "/>
<path style=" stroke:none;fill-rule:nonzero;fill:rgb(24.705882%,23.921569%,33.72549%);fill-opacity:1;" d="M 269.722656 191.617188 L 268.320312 191.617188 C 268.203125 191.617188 268.109375 191.519531 268.109375 191.402344 L 268.109375 190.730469 C 268.109375 190.613281 268.203125 190.519531 268.320312 190.519531 L 269.722656 190.519531 C 269.839844 190.519531 269.933594 190.613281 269.933594 190.730469 L 269.933594 191.402344 C 269.933594 191.519531 269.839844 191.617188 269.722656 191.617188 Z M 269.722656 191.617188 "/>
<path style=" stroke:none;fill-rule:nonzero;fill:rgb(24.705882%,23.921569%,33.72549%);fill-opacity:1;" d="M 266.070312 191.617188 L 264.671875 191.617188 C 264.554688 191.617188 264.457031 191.519531 264.457031 191.402344 L 264.457031 190.730469 C 264.457031 190.613281 264.554688 190.519531 264.671875 190.519531 L 266.070312 190.519531 C 266.1875 190.519531 266.285156 190.613281 266.285156 190.730469 L 266.285156 191.402344 C 266.285156 191.519531 266.1875 191.617188 266.070312 191.617188 Z M 266.070312 191.617188 "/>
<path style=" stroke:none;fill-rule:nonzero;fill:rgb(24.705882%,23.921569%,33.72549%);fill-opacity:1;" d="M 262.417969 191.617188 L 261.019531 191.617188 C 260.902344 191.617188 260.808594 191.519531 260.808594 191.402344 L 260.808594 190.730469 C 260.808594 190.613281 260.902344 190.519531 261.019531 190.519531 L 262.417969 190.519531 C 262.539062 190.519531 262.632812 190.613281 262.632812 190.730469 L 262.632812 191.402344 C 262.632812 191.519531 262.539062 191.617188 262.417969 191.617188 Z M 262.417969 191.617188 "/>
<path style=" stroke:none;fill-rule:nonzero;fill:rgb(24.705882%,23.921569%,33.72549%);fill-opacity:1;" d="M 258.769531 191.617188 L 257.367188 191.617188 C 257.25 191.617188 257.15625 191.519531 257.15625 191.402344 L 257.15625 190.730469 C 257.15625 190.613281 257.25 190.519531 257.367188 190.519531 L 258.769531 190.519531 C 258.886719 190.519531 258.980469 190.613281 258.980469 190.730469 L 258.980469 191.402344 C 258.980469 191.519531 258.886719 191.617188 258.769531 191.617188 Z M 258.769531 191.617188 "/>
<path style=" stroke:none;fill-rule:nonzero;fill:rgb(24.705882%,23.921569%,33.72549%);fill-opacity:1;" d="M 255.117188 191.617188 L 253.71875 191.617188 C 253.601562 191.617188 253.503906 191.519531 253.503906 191.402344 L 253.503906 190.730469 C 253.503906 190.613281 253.601562 190.519531 253.71875 190.519531 L 255.117188 190.519531 C 255.234375 190.519531 255.332031 190.613281 255.332031 190.730469 L 255.332031 191.402344 C 255.332031 191.519531 255.234375 191.617188 255.117188 191.617188 Z M 255.117188 191.617188 "/>
<path style=" stroke:none;fill-rule:nonzero;fill:rgb(24.705882%,23.921569%,33.72549%);fill-opacity:1;" d="M 251.46875 191.617188 L 250.066406 191.617188 C 249.949219 191.617188 249.855469 191.519531 249.855469 191.402344 L 249.855469 190.730469 C 249.855469 190.613281 249.949219 190.519531 250.066406 190.519531 L 251.46875 190.519531 C 251.585938 190.519531 251.679688 190.613281 251.679688 190.730469 L 251.679688 191.402344 C 251.679688 191.519531 251.585938 191.617188 251.46875 191.617188 Z M 251.46875 191.617188 "/>
<path style=" stroke:none;fill-rule:nonzero;fill:rgb(24.705882%,23.921569%,33.72549%);fill-opacity:1;" d="M 247.816406 191.617188 L 246.417969 191.617188 C 246.296875 191.617188 246.203125 191.519531 246.203125 191.402344 L 246.203125 190.730469 C 246.203125 190.613281 246.296875 190.519531 246.417969 190.519531 L 247.816406 190.519531 C 247.933594 190.519531 248.027344 190.613281 248.027344 190.730469 L 248.027344 191.402344 C 248.027344 191.519531 247.933594 191.617188 247.816406 191.617188 Z M 247.816406 191.617188 "/>
<path style=" stroke:none;fill-rule:nonzero;fill:rgb(24.705882%,23.921569%,33.72549%);fill-opacity:1;" d="M 244.164062 191.617188 L 242.765625 191.617188 C 242.648438 191.617188 242.550781 191.519531 242.550781 191.402344 L 242.550781 190.730469 C 242.550781 190.613281 242.648438 190.519531 242.765625 190.519531 L 244.164062 190.519531 C 244.28125 190.519531 244.378906 190.613281 244.378906 190.730469 L 244.378906 191.402344 C 244.378906 191.519531 244.28125 191.617188 244.164062 191.617188 Z M 244.164062 191.617188 "/>
<path style=" stroke:none;fill-rule:nonzero;fill:rgb(24.705882%,23.921569%,33.72549%);fill-opacity:1;" d="M 240.515625 191.617188 L 239.113281 191.617188 C 238.996094 191.617188 238.902344 191.519531 238.902344 191.402344 L 238.902344 190.730469 C 238.902344 190.613281 238.996094 190.519531 239.113281 190.519531 L 240.515625 190.519531 C 240.632812 190.519531 240.726562 190.613281 240.726562 190.730469 L 240.726562 191.402344 C 240.726562 191.519531 240.632812 191.617188 240.515625 191.617188 Z M 240.515625 191.617188 "/>
<path style=" stroke:none;fill-rule:nonzero;fill:rgb(24.705882%,23.921569%,33.72549%);fill-opacity:1;" d="M 236.863281 191.617188 L 235.464844 191.617188 C 235.347656 191.617188 235.25 191.519531 235.25 191.402344 L 235.25 190.730469 C 235.25 190.613281 235.347656 190.519531 235.464844 190.519531 L 236.863281 190.519531 C 236.980469 190.519531 237.074219 190.613281 237.074219 190.730469 L 237.074219 191.402344 C 237.074219 191.519531 236.980469 191.617188 236.863281 191.617188 Z M 236.863281 191.617188 "/>
<path style=" stroke:none;fill-rule:nonzero;fill:rgb(24.705882%,23.921569%,33.72549%);fill-opacity:1;" d="M 233.210938 191.617188 L 231.8125 191.617188 C 231.695312 191.617188 231.597656 191.519531 231.597656 191.402344 L 231.597656 190.730469 C 231.597656 190.613281 231.695312 190.519531 231.8125 190.519531 L 233.210938 190.519531 C 233.328125 190.519531 233.425781 190.613281 233.425781 190.730469 L 233.425781 191.402344 C 233.425781 191.519531 233.328125 191.617188 233.210938 191.617188 Z M 233.210938 191.617188 "/>
<path style=" stroke:none;fill-rule:nonzero;fill:rgb(24.705882%,23.921569%,33.72549%);fill-opacity:1;" d="M 229.5625 191.617188 L 228.160156 191.617188 C 228.042969 191.617188 227.949219 191.519531 227.949219 191.402344 L 227.949219 190.730469 C 227.949219 190.613281 228.042969 190.519531 228.160156 190.519531 L 229.5625 190.519531 C 229.679688 190.519531 229.773438 190.613281 229.773438 190.730469 L 229.773438 191.402344 C 229.773438 191.519531 229.679688 191.617188 229.5625 191.617188 Z M 229.5625 191.617188 "/>
<path style=" stroke:none;fill-rule:nonzero;fill:rgb(24.705882%,23.921569%,33.72549%);fill-opacity:1;" d="M 225.910156 191.617188 L 224.511719 191.617188 C 224.394531 191.617188 224.296875 191.519531 224.296875 191.402344 L 224.296875 190.730469 C 224.296875 190.613281 224.394531 190.519531 224.511719 190.519531 L 225.910156 190.519531 C 226.027344 190.519531 226.125 190.613281 226.125 190.730469 L 226.125 191.402344 C 226.125 191.519531 226.027344 191.617188 225.910156 191.617188 Z M 225.910156 191.617188 "/>
<path style=" stroke:none;fill-rule:nonzero;fill:rgb(24.705882%,23.921569%,33.72549%);fill-opacity:1;" d="M 222.257812 191.617188 L 220.859375 191.617188 C 220.742188 191.617188 220.648438 191.519531 220.648438 191.402344 L 220.648438 190.730469 C 220.648438 190.613281 220.742188 190.519531 220.859375 190.519531 L 222.257812 190.519531 C 222.375 190.519531 222.472656 190.613281 222.472656 190.730469 L 222.472656 191.402344 C 222.472656 191.519531 222.375 191.617188 222.257812 191.617188 Z M 222.257812 191.617188 "/>
<path style=" stroke:none;fill-rule:nonzero;fill:rgb(24.705882%,23.921569%,33.72549%);fill-opacity:1;" d="M 218.609375 191.617188 L 217.207031 191.617188 C 217.089844 191.617188 216.996094 191.519531 216.996094 191.402344 L 216.996094 190.730469 C 216.996094 190.613281 217.089844 190.519531 217.207031 190.519531 L 218.609375 190.519531 C 218.726562 190.519531 218.820312 190.613281 218.820312 190.730469 L 218.820312 191.402344 C 218.820312 191.519531 218.726562 191.617188 218.609375 191.617188 Z M 218.609375 191.617188 "/>
<path style=" stroke:none;fill-rule:nonzero;fill:rgb(24.705882%,23.921569%,33.72549%);fill-opacity:1;" d="M 255.847656 193.8125 L 241.667969 193.8125 C 241.550781 193.8125 241.457031 193.71875 241.457031 193.601562 L 241.457031 192.929688 C 241.457031 192.8125 241.550781 192.714844 241.667969 192.714844 L 255.847656 192.714844 C 255.964844 192.714844 256.0625 192.8125 256.0625 192.929688 L 256.0625 193.601562 C 256.0625 193.71875 255.964844 193.8125 255.847656 193.8125 Z M 255.847656 193.8125 "/>
<path style=" stroke:none;fill-rule:nonzero;fill:rgb(100%,100%,100%);fill-opacity:1;" d="M 225.410156 156.789062 L 226.648438 156.789062 C 227.023438 156.789062 227.328125 157.097656 227.328125 157.472656 C 227.328125 157.851562 227.023438 158.15625 226.648438 158.15625 L 225.410156 158.15625 C 225.035156 158.15625 224.730469 157.851562 224.730469 157.472656 C 224.730469 157.097656 225.035156 156.789062 225.410156 156.789062 Z M 225.410156 156.789062 "/>
<path style=" stroke:none;fill-rule:nonzero;fill:rgb(100%,100%,100%);fill-opacity:1;" d="M 239.582031 156.789062 L 240.824219 156.789062 C 241.199219 156.789062 241.503906 157.097656 241.503906 157.472656 C 241.503906 157.851562 241.199219 158.15625 240.824219 158.15625 L 239.582031 158.15625 C 239.207031 158.15625 238.902344 157.851562 238.902344 157.472656 C 238.902344 157.097656 239.207031 156.789062 239.582031 156.789062 Z M 239.582031 156.789062 "/>
<path style=" stroke:none;fill-rule:nonzero;fill:rgb(100%,100%,100%);fill-opacity:1;" d="M 243.601562 156.789062 L 244.839844 156.789062 C 245.214844 156.789062 245.519531 157.097656 245.519531 157.472656 C 245.519531 157.851562 245.214844 158.15625 244.839844 158.15625 L 243.601562 158.15625 C 243.222656 158.15625 242.917969 157.851562 242.917969 157.472656 C 242.917969 157.097656 243.222656 156.789062 243.601562 156.789062 Z M 243.601562 156.789062 "/>
<path style=" stroke:none;fill-rule:nonzero;fill:rgb(100%,100%,100%);fill-opacity:1;" d="M 229.265625 156.675781 L 236.96875 156.675781 C 237.34375 156.675781 237.648438 156.980469 237.648438 157.359375 C 237.648438 157.734375 237.34375 158.042969 236.96875 158.042969 L 229.265625 158.042969 C 228.890625 158.042969 228.585938 157.734375 228.585938 157.359375 C 228.585938 156.980469 228.890625 156.675781 229.265625 156.675781 Z M 229.265625 156.675781 "/>
<path style=" stroke:none;fill-rule:nonzero;fill:rgb(100%,100%,100%);fill-opacity:1;" d="M 248.164062 156.675781 L 255.867188 156.675781 C 256.242188 156.675781 256.546875 156.980469 256.546875 157.359375 C 256.546875 157.734375 256.242188 158.042969 255.867188 158.042969 L 248.164062 158.042969 C 247.789062 158.042969 247.484375 157.734375 247.484375 157.359375 C 247.484375 156.980469 247.789062 156.675781 248.164062 156.675781 Z M 248.164062 156.675781 "/>
<path style=" stroke:none;fill-rule:nonzero;fill:rgb(100%,100%,100%);fill-opacity:1;" d="M 229.1875 159.871094 L 230.429688 159.871094 C 230.804688 159.871094 231.109375 160.175781 231.109375 160.554688 C 231.109375 160.929688 230.804688 161.234375 230.429688 161.234375 L 229.1875 161.234375 C 228.8125 161.234375 228.507812 160.929688 228.507812 160.554688 C 228.507812 160.175781 228.8125 159.871094 229.1875 159.871094 Z M 229.1875 159.871094 "/>
<path style=" stroke:none;fill-rule:nonzero;fill:rgb(100%,100%,100%);fill-opacity:1;" d="M 243.363281 159.871094 L 244.601562 159.871094 C 244.980469 159.871094 245.285156 160.175781 245.285156 160.554688 C 245.285156 160.929688 244.980469 161.234375 244.601562 161.234375 L 243.363281 161.234375 C 242.988281 161.234375 242.683594 160.929688 242.683594 160.554688 C 242.683594 160.175781 242.988281 159.871094 243.363281 159.871094 Z M 243.363281 159.871094 "/>
<path style=" stroke:none;fill-rule:nonzero;fill:rgb(100%,100%,100%);fill-opacity:1;" d="M 247.378906 159.871094 L 248.617188 159.871094 C 248.996094 159.871094 249.300781 160.175781 249.300781 160.554688 C 249.300781 160.929688 248.996094 161.234375 248.617188 161.234375 L 247.378906 161.234375 C 247.003906 161.234375 246.699219 160.929688 246.699219 160.554688 C 246.699219 160.175781 247.003906 159.871094 247.378906 159.871094 Z M 247.378906 159.871094 "/>
<path style=" stroke:none;fill-rule:nonzero;fill:rgb(100%,100%,100%);fill-opacity:1;" d="M 233.042969 159.757812 L 240.746094 159.757812 C 241.125 159.757812 241.425781 160.0625 241.425781 160.4375 C 241.425781 160.816406 241.125 161.121094 240.746094 161.121094 L 233.042969 161.121094 C 232.667969 161.121094 232.363281 160.816406 232.363281 160.4375 C 232.363281 160.0625 232.667969 159.757812 233.042969 159.757812 Z M 233.042969 159.757812 "/>
<path style=" stroke:none;fill-rule:nonzero;fill:rgb(100%,100%,100%);fill-opacity:1;" d="M 251.945312 159.757812 L 259.648438 159.757812 C 260.023438 159.757812 260.328125 160.0625 260.328125 160.4375 C 260.328125 160.816406 260.023438 161.121094 259.648438 161.121094 L 251.945312 161.121094 C 251.566406 161.121094 251.261719 160.816406 251.261719 160.4375 C 251.261719 160.0625 251.566406 159.757812 251.945312 159.757812 Z M 251.945312 159.757812 "/>
<path style=" stroke:none;fill-rule:nonzero;fill:rgb(100%,100%,100%);fill-opacity:1;" d="M 232.96875 162.949219 L 234.207031 162.949219 C 234.582031 162.949219 234.886719 163.253906 234.886719 163.632812 C 234.886719 164.007812 234.582031 164.316406 234.207031 164.316406 L 232.96875 164.316406 C 232.59375 164.316406 232.289062 164.007812 232.289062 163.632812 C 232.289062 163.253906 232.59375 162.949219 232.96875 162.949219 Z M 232.96875 162.949219 "/>
<path style=" stroke:none;fill-rule:nonzero;fill:rgb(100%,100%,100%);fill-opacity:1;" d="M 247.144531 162.949219 L 248.382812 162.949219 C 248.757812 162.949219 249.0625 163.253906 249.0625 163.632812 C 249.0625 164.007812 248.757812 164.316406 248.382812 164.316406 L 247.144531 164.316406 C 246.769531 164.316406 246.464844 164.007812 246.464844 163.632812 C 246.464844 163.253906 246.769531 162.949219 247.144531 162.949219 Z M 247.144531 162.949219 "/>
<path style=" stroke:none;fill-rule:nonzero;fill:rgb(100%,100%,100%);fill-opacity:1;" d="M 251.160156 162.949219 L 252.398438 162.949219 C 252.773438 162.949219 253.078125 163.253906 253.078125 163.632812 C 253.078125 164.007812 252.773438 164.316406 252.398438 164.316406 L 251.160156 164.316406 C 250.785156 164.316406 250.480469 164.007812 250.480469 163.632812 C 250.480469 163.253906 250.785156 162.949219 251.160156 162.949219 Z M 251.160156 162.949219 "/>
<path style=" stroke:none;fill-rule:nonzero;fill:rgb(100%,100%,100%);fill-opacity:1;" d="M 236.824219 162.835938 L 244.527344 162.835938 C 244.902344 162.835938 245.207031 163.140625 245.207031 163.519531 C 245.207031 163.894531 244.902344 164.199219 244.527344 164.199219 L 236.824219 164.199219 C 236.449219 164.199219 236.144531 163.894531 236.144531 163.519531 C 236.144531 163.140625 236.449219 162.835938 236.824219 162.835938 Z M 236.824219 162.835938 "/>
<path style=" stroke:none;fill-rule:nonzero;fill:rgb(100%,100%,100%);fill-opacity:1;" d="M 255.722656 162.835938 L 263.425781 162.835938 C 263.800781 162.835938 264.105469 163.140625 264.105469 163.519531 C 264.105469 163.894531 263.800781 164.199219 263.425781 164.199219 L 255.722656 164.199219 C 255.347656 164.199219 255.042969 163.894531 255.042969 163.519531 C 255.042969 163.140625 255.347656 162.835938 255.722656 162.835938 Z M 255.722656 162.835938 "/>
<path style=" stroke:none;fill-rule:nonzero;fill:rgb(100%,100%,100%);fill-opacity:1;" d="M 236.75 166.03125 L 237.988281 166.03125 C 238.363281 166.03125 238.667969 166.335938 238.667969 166.710938 C 238.667969 167.089844 238.363281 167.394531 237.988281 167.394531 L 236.75 167.394531 C 236.371094 167.394531 236.066406 167.089844 236.066406 166.710938 C 236.066406 166.335938 236.371094 166.03125 236.75 166.03125 Z M 236.75 166.03125 "/>
<path style=" stroke:none;fill-rule:nonzero;fill:rgb(100%,100%,100%);fill-opacity:1;" d="M 250.921875 166.03125 L 252.164062 166.03125 C 252.539062 166.03125 252.84375 166.335938 252.84375 166.710938 C 252.84375 167.089844 252.539062 167.394531 252.164062 167.394531 L 250.921875 167.394531 C 250.546875 167.394531 250.242188 167.089844 250.242188 166.710938 C 250.242188 166.335938 250.546875 166.03125 250.921875 166.03125 Z M 250.921875 166.03125 "/>
<path style=" stroke:none;fill-rule:nonzero;fill:rgb(100%,100%,100%);fill-opacity:1;" d="M 254.9375 166.03125 L 256.179688 166.03125 C 256.554688 166.03125 256.859375 166.335938 256.859375 166.710938 C 256.859375 167.089844 256.554688 167.394531 256.179688 167.394531 L 254.9375 167.394531 C 254.5625 167.394531 254.257812 167.089844 254.257812 166.710938 C 254.257812 166.335938 254.5625 166.03125 254.9375 166.03125 Z M 254.9375 166.03125 "/>
<path style=" stroke:none;fill-rule:nonzero;fill:rgb(100%,100%,100%);fill-opacity:1;" d="M 240.605469 165.917969 L 248.308594 165.917969 C 248.683594 165.917969 248.988281 166.222656 248.988281 166.597656 C 248.988281 166.976562 248.683594 167.28125 248.308594 167.28125 L 240.605469 167.28125 C 240.226562 167.28125 239.925781 166.976562 239.925781 166.597656 C 239.925781 166.222656 240.226562 165.917969 240.605469 165.917969 Z M 240.605469 165.917969 "/>
<path style=" stroke:none;fill-rule:nonzero;fill:rgb(100%,100%,100%);fill-opacity:1;" d="M 239.582031 178.277344 L 240.824219 178.277344 C 241.199219 178.277344 241.503906 178.582031 241.503906 178.960938 C 241.503906 179.335938 241.199219 179.640625 240.824219 179.640625 L 239.582031 179.640625 C 239.207031 179.640625 238.902344 179.335938 238.902344 178.960938 C 238.902344 178.582031 239.207031 178.277344 239.582031 178.277344 Z M 239.582031 178.277344 "/>
<path style=" stroke:none;fill-rule:nonzero;fill:rgb(100%,100%,100%);fill-opacity:1;" d="M 243.601562 178.277344 L 244.839844 178.277344 C 245.214844 178.277344 245.519531 178.582031 245.519531 178.960938 C 245.519531 179.335938 245.214844 179.640625 244.839844 179.640625 L 243.601562 179.640625 C 243.222656 179.640625 242.917969 179.335938 242.917969 178.960938 C 242.917969 178.582031 243.222656 178.277344 243.601562 178.277344 Z M 243.601562 178.277344 "/>
<path style=" stroke:none;fill-rule:nonzero;fill:rgb(100%,100%,100%);fill-opacity:1;" d="M 248.164062 178.390625 L 255.867188 178.390625 C 256.242188 178.390625 256.546875 178.695312 256.546875 179.074219 C 256.546875 179.449219 256.242188 179.753906 255.867188 179.753906 L 248.164062 179.753906 C 247.789062 179.753906 247.484375 179.449219 247.484375 179.074219 C 247.484375 178.695312 247.789062 178.390625 248.164062 178.390625 Z M 248.164062 178.390625 "/>
<path style=" stroke:none;fill-rule:nonzero;fill:rgb(100%,100%,100%);fill-opacity:1;" d="M 225.410156 178.277344 L 226.648438 178.277344 C 227.023438 178.277344 227.328125 178.582031 227.328125 178.960938 C 227.328125 179.335938 227.023438 179.640625 226.648438 179.640625 L 225.410156 179.640625 C 225.035156 179.640625 224.730469 179.335938 224.730469 178.960938 C 224.730469 178.582031 225.035156 178.277344 225.410156 178.277344 Z M 225.410156 178.277344 "/>
<path style=" stroke:none;fill-rule:nonzero;fill:rgb(100%,100%,100%);fill-opacity:1;" d="M 229.265625 178.390625 L 236.96875 178.390625 C 237.34375 178.390625 237.648438 178.695312 237.648438 179.074219 C 237.648438 179.449219 237.34375 179.753906 236.96875 179.753906 L 229.265625 179.753906 C 228.890625 179.753906 228.585938 179.449219 228.585938 179.074219 C 228.585938 178.695312 228.890625 178.390625 229.265625 178.390625 Z M 229.265625 178.390625 "/>
<path style=" stroke:none;fill-rule:nonzero;fill:rgb(100%,100%,100%);fill-opacity:1;" d="M 229.1875 175.195312 L 230.429688 175.195312 C 230.804688 175.195312 231.109375 175.503906 231.109375 175.878906 C 231.109375 176.257812 230.804688 176.5625 230.429688 176.5625 L 229.1875 176.5625 C 228.8125 176.5625 228.507812 176.257812 228.507812 175.878906 C 228.507812 175.503906 228.8125 175.195312 229.1875 175.195312 Z M 229.1875 175.195312 "/>
<path style=" stroke:none;fill-rule:nonzero;fill:rgb(100%,100%,100%);fill-opacity:1;" d="M 243.363281 175.195312 L 244.601562 175.195312 C 244.980469 175.195312 245.285156 175.503906 245.285156 175.878906 C 245.285156 176.257812 244.980469 176.5625 244.601562 176.5625 L 243.363281 176.5625 C 242.988281 176.5625 242.683594 176.257812 242.683594 175.878906 C 242.683594 175.503906 242.988281 175.195312 243.363281 175.195312 Z M 243.363281 175.195312 "/>
<path style=" stroke:none;fill-rule:nonzero;fill:rgb(100%,100%,100%);fill-opacity:1;" d="M 247.378906 175.195312 L 248.617188 175.195312 C 248.996094 175.195312 249.300781 175.503906 249.300781 175.878906 C 249.300781 176.257812 248.996094 176.5625 248.617188 176.5625 L 247.378906 176.5625 C 247.003906 176.5625 246.699219 176.257812 246.699219 175.878906 C 246.699219 175.503906 247.003906 175.195312 247.378906 175.195312 Z M 247.378906 175.195312 "/>
<path style=" stroke:none;fill-rule:nonzero;fill:rgb(100%,100%,100%);fill-opacity:1;" d="M 233.042969 175.3125 L 240.746094 175.3125 C 241.125 175.3125 241.425781 175.617188 241.425781 175.992188 C 241.425781 176.371094 241.125 176.675781 240.746094 176.675781 L 233.042969 176.675781 C 232.667969 176.675781 232.363281 176.371094 232.363281 175.992188 C 232.363281 175.617188 232.667969 175.3125 233.042969 175.3125 Z M 233.042969 175.3125 "/>
<path style=" stroke:none;fill-rule:nonzero;fill:rgb(100%,100%,100%);fill-opacity:1;" d="M 232.96875 172.117188 L 234.207031 172.117188 C 234.582031 172.117188 234.886719 172.421875 234.886719 172.800781 C 234.886719 173.175781 234.582031 173.480469 234.207031 173.480469 L 232.96875 173.480469 C 232.59375 173.480469 232.289062 173.175781 232.289062 172.800781 C 232.289062 172.421875 232.59375 172.117188 232.96875 172.117188 Z M 232.96875 172.117188 "/>
<path style=" stroke:none;fill-rule:nonzero;fill:rgb(100%,100%,100%);fill-opacity:1;" d="M 247.144531 172.117188 L 248.382812 172.117188 C 248.757812 172.117188 249.0625 172.421875 249.0625 172.800781 C 249.0625 173.175781 248.757812 173.480469 248.382812 173.480469 L 247.144531 173.480469 C 246.769531 173.480469 246.464844 173.175781 246.464844 172.800781 C 246.464844 172.421875 246.769531 172.117188 247.144531 172.117188 Z M 247.144531 172.117188 "/>
<path style=" stroke:none;fill-rule:nonzero;fill:rgb(100%,100%,100%);fill-opacity:1;" d="M 251.160156 172.117188 L 252.398438 172.117188 C 252.773438 172.117188 253.078125 172.421875 253.078125 172.800781 C 253.078125 173.175781 252.773438 173.480469 252.398438 173.480469 L 251.160156 173.480469 C 250.785156 173.480469 250.480469 173.175781 250.480469 172.800781 C 250.480469 172.421875 250.785156 172.117188 251.160156 172.117188 Z M 251.160156 172.117188 "/>
<path style=" stroke:none;fill-rule:nonzero;fill:rgb(100%,100%,100%);fill-opacity:1;" d="M 236.824219 172.230469 L 244.527344 172.230469 C 244.902344 172.230469 245.207031 172.535156 245.207031 172.914062 C 245.207031 173.289062 244.902344 173.59375 244.527344 173.59375 L 236.824219 173.59375 C 236.449219 173.59375 236.144531 173.289062 236.144531 172.914062 C 236.144531 172.535156 236.449219 172.230469 236.824219 172.230469 Z M 236.824219 172.230469 "/>
<path style=" stroke:none;fill-rule:nonzero;fill:rgb(100%,100%,100%);fill-opacity:1;" d="M 236.75 169.039062 L 237.988281 169.039062 C 238.363281 169.039062 238.667969 169.34375 238.667969 169.71875 C 238.667969 170.097656 238.363281 170.402344 237.988281 170.402344 L 236.75 170.402344 C 236.371094 170.402344 236.066406 170.097656 236.066406 169.71875 C 236.066406 169.34375 236.371094 169.039062 236.75 169.039062 Z M 236.75 169.039062 "/>
<path style=" stroke:none;fill-rule:nonzero;fill:rgb(100%,100%,100%);fill-opacity:1;" d="M 250.921875 169.039062 L 252.164062 169.039062 C 252.539062 169.039062 252.84375 169.34375 252.84375 169.71875 C 252.84375 170.097656 252.539062 170.402344 252.164062 170.402344 L 250.921875 170.402344 C 250.546875 170.402344 250.242188 170.097656 250.242188 169.71875 C 250.242188 169.34375 250.546875 169.039062 250.921875 169.039062 Z M 250.921875 169.039062 "/>
<path style=" stroke:none;fill-rule:nonzero;fill:rgb(100%,100%,100%);fill-opacity:1;" d="M 254.9375 169.039062 L 256.179688 169.039062 C 256.554688 169.039062 256.859375 169.34375 256.859375 169.71875 C 256.859375 170.097656 256.554688 170.402344 256.179688 170.402344 L 254.9375 170.402344 C 254.5625 170.402344 254.257812 170.097656 254.257812 169.71875 C 254.257812 169.34375 254.5625 169.039062 254.9375 169.039062 Z M 254.9375 169.039062 "/>
<path style=" stroke:none;fill-rule:nonzero;fill:rgb(100%,100%,100%);fill-opacity:1;" d="M 240.605469 169.152344 L 248.308594 169.152344 C 248.683594 169.152344 248.988281 169.457031 248.988281 169.832031 C 248.988281 170.210938 248.683594 170.515625 248.308594 170.515625 L 240.605469 170.515625 C 240.226562 170.515625 239.925781 170.210938 239.925781 169.832031 C 239.925781 169.457031 240.226562 169.152344 240.605469 169.152344 Z M 240.605469 169.152344 "/>
<path style=" stroke:none;fill-rule:nonzero;fill:rgb(100%,71.372549%,71.372549%);fill-opacity:1;" d="M 220.058594 214.371094 L 214.242188 205.148438 L 232.503906 190.550781 L 240.042969 182.175781 C 242.035156 179.960938 245.050781 178.976562 247.960938 179.589844 C 250.871094 180.207031 253.238281 182.328125 254.171875 185.160156 C 255.582031 189.445312 253.351562 194.082031 249.128906 195.644531 L 237.207031 200.046875 Z M 220.058594 214.371094 "/>
<path style=" stroke:none;fill-rule:nonzero;fill:rgb(18.431373%,18.039216%,25.490196%);fill-opacity:1;" d="M 83.542969 147.5 L 83.542969 192.324219 L 114.859375 192.324219 L 114.859375 147.5 C 114.859375 146.839844 114.429688 146.253906 113.800781 146.058594 C 113.65625 146.011719 113.503906 145.988281 113.351562 145.988281 L 85.058594 145.988281 C 84.222656 145.988281 83.546875 146.664062 83.542969 147.5 Z M 95.765625 162.902344 C 95.78125 161.0625 97.273438 159.582031 99.109375 159.582031 C 100.941406 159.582031 102.433594 161.0625 102.449219 162.902344 L 102.449219 168.101562 C 102.441406 169.949219 100.949219 171.4375 99.109375 171.4375 C 97.269531 171.4375 95.773438 169.949219 95.765625 168.101562 Z M 95.765625 162.902344 "/>
<path style=" stroke:none;fill-rule:nonzero;fill:rgb(24.705882%,23.921569%,33.72549%);fill-opacity:1;" d="M 83.449219 190.890625 L 83.449219 195.214844 C 83.449219 195.679688 83.824219 196.058594 84.289062 196.0625 L 114.113281 196.0625 C 114.578125 196.058594 114.957031 195.679688 114.957031 195.214844 L 114.957031 190.890625 Z M 83.449219 190.890625 "/>
<path style=" stroke:none;fill-rule:nonzero;fill:rgb(24.705882%,23.921569%,33.72549%);fill-opacity:1;" d="M 34.28125 79.964844 L 34.28125 161.808594 C 34.285156 163.980469 36.039062 165.742188 38.203125 165.742188 L 159.148438 165.742188 C 161.3125 165.742188 163.070312 163.980469 163.070312 161.808594 L 163.070312 79.964844 C 163.066406 77.796875 161.3125 76.039062 159.148438 76.035156 L 38.203125 76.035156 C 36.042969 76.039062 34.289062 77.796875 34.28125 79.964844 Z M 34.28125 79.964844 "/>
<path style=" stroke:none;fill-rule:nonzero;fill:rgb(100%,100%,100%);fill-opacity:1;" d="M 37.121094 80.984375 L 37.121094 160.800781 C 37.121094 161.960938 38.058594 162.902344 39.214844 162.902344 L 158.140625 162.902344 C 159.296875 162.902344 160.234375 161.960938 160.238281 160.800781 L 160.238281 80.984375 C 160.238281 79.820312 159.300781 78.878906 158.140625 78.878906 L 39.214844 78.878906 C 38.058594 78.878906 37.121094 79.820312 37.121094 80.984375 Z M 37.121094 80.984375 "/>
<path style=" stroke:none;fill-rule:nonzero;fill:rgb(18.431373%,18.039216%,25.490196%);fill-opacity:1;" d="M 59.191406 195.769531 C 59.4375 196.078125 59.808594 196.257812 60.203125 196.253906 L 130.953125 196.253906 C 131.347656 196.253906 131.71875 196.078125 131.964844 195.773438 C 132.210938 195.464844 132.308594 195.066406 132.226562 194.679688 L 131.128906 189.449219 C 131.035156 189.015625 130.730469 188.660156 130.316406 188.5 C 130.171875 188.441406 130.015625 188.414062 129.855469 188.414062 L 61.296875 188.414062 C 61.136719 188.414062 60.980469 188.441406 60.832031 188.5 C 60.421875 188.660156 60.117188 189.015625 60.023438 189.449219 L 58.925781 194.679688 C 58.84375 195.066406 58.941406 195.464844 59.191406 195.769531 Z M 59.191406 195.769531 "/>
<path style=" stroke:none;fill-rule:nonzero;fill:rgb(24.705882%,23.921569%,33.72549%);fill-opacity:1;" d="M 154.28125 89.871094 L 43.003906 89.871094 C 42.761719 89.867188 42.570312 89.667969 42.570312 89.429688 C 42.570312 89.1875 42.761719 88.988281 43.003906 88.984375 L 154.28125 88.984375 C 154.523438 88.988281 154.714844 89.1875 154.714844 89.429688 C 154.714844 89.667969 154.523438 89.867188 154.28125 89.871094 Z M 154.28125 89.871094 "/>
<path style=" stroke:none;fill-rule:nonzero;fill:rgb(24.705882%,23.921569%,33.72549%);fill-opacity:1;" d="M 53.171875 84.058594 C 53.171875 82.59375 52.011719 81.402344 50.578125 81.402344 C 49.148438 81.402344 47.984375 82.59375 47.984375 84.058594 C 47.984375 85.527344 49.148438 86.71875 50.578125 86.71875 C 52.011719 86.71875 53.171875 85.527344 53.171875 84.058594 Z M 53.171875 84.058594 "/>
<path style=" stroke:none;fill-rule:nonzero;fill:rgb(24.705882%,23.921569%,33.72549%);fill-opacity:1;" d="M 62.132812 84.058594 C 62.132812 82.59375 60.96875 81.402344 59.539062 81.402344 C 58.105469 81.402344 56.945312 82.59375 56.945312 84.058594 C 56.945312 85.527344 58.105469 86.71875 59.539062 86.71875 C 60.96875 86.71875 62.132812 85.527344 62.132812 84.058594 Z M 62.132812 84.058594 "/>
<path style=" stroke:none;fill-rule:nonzero;fill:rgb(24.705882%,23.921569%,33.72549%);fill-opacity:1;" d="M 71.089844 84.058594 C 71.089844 82.59375 69.929688 81.402344 68.496094 81.402344 C 67.066406 81.402344 65.902344 82.59375 65.902344 84.058594 C 65.902344 85.527344 67.066406 86.71875 68.496094 86.71875 C 69.929688 86.71875 71.089844 85.527344 71.089844 84.058594 Z M 71.089844 84.058594 "/>
<path style=" stroke:none;fill-rule:nonzero;fill:rgb(24.705882%,23.921569%,33.72549%);fill-opacity:1;" d="M 148.886719 82.058594 L 142.523438 82.058594 C 142.261719 82.066406 142.054688 82.28125 142.054688 82.542969 C 142.054688 82.804688 142.261719 83.019531 142.523438 83.023438 L 148.886719 83.023438 C 149.152344 83.019531 149.363281 82.804688 149.363281 82.542969 C 149.363281 82.277344 149.152344 82.0625 148.886719 82.058594 Z M 148.886719 82.058594 "/>
<path style=" stroke:none;fill-rule:nonzero;fill:rgb(24.705882%,23.921569%,33.72549%);fill-opacity:1;" d="M 148.886719 83.871094 L 142.523438 83.871094 C 142.261719 83.878906 142.054688 84.09375 142.054688 84.355469 C 142.054688 84.617188 142.261719 84.832031 142.523438 84.839844 L 148.886719 84.839844 C 149.152344 84.835938 149.363281 84.621094 149.363281 84.355469 C 149.363281 84.089844 149.152344 83.875 148.886719 83.871094 Z M 148.886719 83.871094 "/>
<path style=" stroke:none;fill-rule:nonzero;fill:rgb(24.705882%,23.921569%,33.72549%);fill-opacity:1;" d="M 148.886719 85.6875 L 142.523438 85.6875 C 142.261719 85.691406 142.054688 85.90625 142.054688 86.167969 C 142.054688 86.433594 142.261719 86.644531 142.523438 86.652344 L 148.886719 86.652344 C 149.152344 86.648438 149.363281 86.433594 149.363281 86.167969 C 149.363281 85.90625 149.152344 85.691406 148.886719 85.6875 Z M 148.886719 85.6875 "/>
<path style=" stroke:none;fill-rule:nonzero;fill:rgb(18.431373%,18.039216%,25.490196%);fill-opacity:1;" d="M 302.292969 192.789062 C 302.683594 193.9375 303.773438 194.703125 304.984375 194.683594 L 316.53125 194.382812 C 317.753906 194.359375 318.816406 193.53125 319.140625 192.347656 L 320.773438 174.828125 C 321.351562 175.089844 321.984375 175.222656 322.621094 175.207031 C 324.945312 175.148438 326.78125 173.210938 326.722656 170.882812 C 326.664062 168.550781 324.734375 166.707031 322.410156 166.765625 C 322.152344 166.765625 321.902344 166.792969 321.652344 166.84375 C 321.105469 166.25 320.332031 165.917969 319.527344 165.925781 L 301.765625 166.386719 C 301.621094 166.390625 301.472656 166.410156 301.328125 166.441406 C 300.539062 166.585938 299.855469 167.070312 299.449219 167.761719 C 299.039062 168.453125 298.953125 169.289062 299.207031 170.050781 Z M 321.109375 173.636719 L 322.269531 169.464844 C 322.402344 168.980469 322.40625 168.472656 322.28125 167.988281 C 322.335938 167.988281 322.386719 167.960938 322.441406 167.960938 C 324.101562 167.925781 325.476562 169.246094 325.515625 170.910156 C 325.554688 172.574219 324.242188 173.957031 322.582031 174 C 322.066406 174.015625 321.558594 173.890625 321.109375 173.636719 Z M 321.109375 173.636719 "/>
<path style=" stroke:none;fill-rule:nonzero;fill:rgb(24.705882%,23.921569%,33.72549%);fill-opacity:1;" d="M 301.328125 166.441406 C 301.707031 168.609375 305.960938 170.136719 311.078125 169.871094 C 315.78125 169.652344 319.625 167.996094 320.332031 166.03125 C 320.070312 165.957031 319.800781 165.917969 319.527344 165.925781 L 301.765625 166.386719 C 301.621094 166.390625 301.472656 166.410156 301.328125 166.441406 Z M 301.328125 166.441406 "/>
<path style=" stroke:none;fill-rule:nonzero;fill:rgb(42.352941%,38.823529%,100%);fill-opacity:1;" d="M 312.015625 183.160156 C 312.039062 183.15625 312.058594 183.144531 312.078125 183.132812 L 314.585938 181.488281 C 314.648438 181.445312 314.6875 181.378906 314.6875 181.304688 C 314.6875 181.230469 314.648438 181.160156 314.585938 181.121094 L 311.980469 179.410156 C 311.917969 179.367188 311.832031 179.359375 311.761719 179.394531 C 311.695312 179.429688 311.648438 179.5 311.644531 179.578125 C 311.640625 179.65625 311.675781 179.730469 311.742188 179.773438 L 314.070312 181.304688 L 311.839844 182.765625 C 311.753906 182.824219 311.71875 182.941406 311.761719 183.039062 C 311.804688 183.136719 311.910156 183.1875 312.015625 183.160156 Z M 312.015625 183.160156 "/>
<path style=" stroke:none;fill-rule:nonzero;fill:rgb(42.352941%,38.823529%,100%);fill-opacity:1;" d="M 308.054688 183.34375 C 308.140625 183.324219 308.203125 183.25 308.214844 183.164062 C 308.226562 183.074219 308.1875 182.988281 308.109375 182.941406 L 305.796875 181.613281 L 308.03125 179.949219 C 308.128906 179.878906 308.148438 179.742188 308.078125 179.644531 C 308.003906 179.546875 307.867188 179.527344 307.773438 179.601562 L 305.269531 181.460938 C 305.210938 181.507812 305.179688 181.578125 305.183594 181.652344 C 305.1875 181.722656 305.226562 181.789062 305.292969 181.828125 L 307.890625 183.320312 C 307.941406 183.351562 308 183.359375 308.054688 183.34375 Z M 308.054688 183.34375 "/>
<path style=" stroke:none;fill-rule:nonzero;fill:rgb(42.352941%,38.823529%,100%);fill-opacity:1;" d="M 311.765625 184.605469 C 311.785156 184.597656 311.804688 184.589844 311.824219 184.578125 C 311.875 184.546875 311.910156 184.5 311.921875 184.441406 C 311.9375 184.386719 311.925781 184.328125 311.898438 184.277344 L 308.34375 178.417969 C 308.28125 178.316406 308.144531 178.28125 308.042969 178.34375 C 307.941406 178.40625 307.910156 178.542969 307.972656 178.644531 L 311.523438 184.503906 C 311.574219 184.585938 311.671875 184.628906 311.765625 184.605469 Z M 311.765625 184.605469 "/>
<path style=" stroke:none;fill-rule:nonzero;fill:rgb(42.352941%,38.823529%,100%);fill-opacity:1;" d="M 92.679688 113.996094 L 111.9375 113.996094 C 112.726562 113.996094 113.363281 114.636719 113.363281 115.425781 L 113.363281 117.3125 C 113.363281 118.097656 112.726562 118.738281 111.9375 118.738281 L 92.679688 118.738281 C 91.894531 118.738281 91.257812 118.097656 91.257812 117.3125 L 91.257812 115.425781 C 91.257812 114.636719 91.894531 113.996094 92.679688 113.996094 Z M 92.679688 113.996094 "/>
<path style=" stroke:none;fill-rule:nonzero;fill:rgb(90.196078%,90.196078%,90.196078%);fill-opacity:1;" d="M 81.453125 123.476562 L 123.164062 123.476562 C 123.949219 123.476562 124.589844 124.117188 124.589844 124.90625 L 124.589844 126.792969 C 124.589844 127.578125 123.949219 128.21875 123.164062 128.21875 L 81.453125 128.21875 C 80.667969 128.21875 80.03125 127.578125 80.03125 126.792969 L 80.03125 124.90625 C 80.03125 124.117188 80.667969 123.476562 81.453125 123.476562 Z M 81.453125 123.476562 "/>
<path style=" stroke:none;fill-rule:nonzero;fill:rgb(90.196078%,90.196078%,90.196078%);fill-opacity:1;" d="M 81.453125 132.957031 L 123.164062 132.957031 C 123.949219 132.957031 124.589844 133.597656 124.589844 134.386719 L 124.589844 136.273438 C 124.589844 137.058594 123.949219 137.699219 123.164062 137.699219 L 81.453125 137.699219 C 80.667969 137.699219 80.03125 137.058594 80.03125 136.273438 L 80.03125 134.386719 C 80.03125 133.597656 80.667969 132.957031 81.453125 132.957031 Z M 81.453125 132.957031 "/>
<path style=" stroke:none;fill-rule:nonzero;fill:rgb(24.705882%,23.921569%,33.72549%);fill-opacity:1;" d="M 126.703125 164.707031 L 126.796875 165.003906 L 126.800781 165.015625 L 129.644531 173.683594 L 132.917969 183.675781 L 139.070312 202.453125 L 139.132812 205.371094 L 139.132812 205.378906 L 139.589844 228.84375 L 138.320312 232.023438 L 139.746094 237.238281 C 139.746094 237.238281 139.089844 229.355469 135.570312 233.882812 C 133.578125 236.457031 131.246094 239.089844 129.332031 241.558594 C 132.121094 242.6875 134.953125 243.710938 137.832031 244.628906 C 138.453125 244.828125 139.082031 245.015625 139.707031 245.207031 C 139.84375 245.246094 139.976562 245.285156 140.109375 245.328125 C 149.652344 248.15625 159.519531 249.746094 169.464844 250.058594 C 169.980469 250.074219 170.488281 250.082031 170.980469 250.09375 C 171.15625 250.097656 171.324219 250.101562 171.492188 250.101562 C 172.050781 250.109375 172.601562 250.113281 173.15625 250.113281 C 174.28125 250.113281 175.402344 250.097656 176.515625 250.0625 C 184.757812 249.828125 192.953125 248.71875 200.960938 246.746094 C 200.90625 243.429688 200.757812 239.558594 200.542969 235.417969 C 200.445312 233.390625 198.210938 231.191406 198.078125 229.066406 C 197.984375 227.472656 199.984375 225.972656 199.882812 224.351562 C 199.207031 214.375 198.359375 218.203125 197.734375 211.140625 C 197.667969 210.445312 197.609375 209.78125 197.554688 209.148438 C 197.152344 204.613281 196.875 201.773438 196.875 201.773438 L 199.546875 184.867188 L 203.75 158.324219 L 203.425781 157.789062 L 203.0625 157.609375 L 180.902344 146.613281 L 179.699219 143.519531 C 178.984375 141.699219 177.234375 140.496094 175.28125 140.484375 L 160.683594 140.425781 C 159.148438 140.417969 157.699219 141.152344 156.800781 142.402344 L 152.847656 147.894531 Z M 126.703125 164.707031 "/>
<path style=" stroke:none;fill-rule:nonzero;fill:rgb(24.705882%,23.921569%,33.72549%);fill-opacity:1;" d="M 142.4375 198.273438 L 139.132812 205.371094 L 136.875 210.214844 L 132.992188 230.605469 L 131.046875 232.671875 L 129.382812 225.347656 L 111.949219 229.230469 C 111.378906 226.042969 111.796875 229.335938 111.441406 225.84375 C 111.542969 225.742188 111.648438 225.644531 111.75 225.542969 C 112.03125 225.285156 112.261719 225.039062 112.257812 224.804688 C 112.058594 212.75 112.65625 192.230469 117.636719 179.800781 C 118.417969 177.773438 119.445312 175.847656 120.699219 174.074219 C 120.800781 173.9375 120.894531 173.804688 120.988281 173.671875 C 123.285156 170.445312 124.738281 167.269531 126.796875 165.007812 L 126.796875 165.003906 C 126.808594 164.996094 126.820312 164.984375 126.832031 164.96875 C 126.839844 164.964844 126.84375 164.960938 126.851562 164.953125 L 140.992188 157.4375 L 141.597656 174.527344 L 142.03125 186.8125 Z M 142.4375 198.273438 "/>
<path style=" stroke:none;fill-rule:nonzero;fill:rgb(24.705882%,23.921569%,33.72549%);fill-opacity:1;" d="M 193.421875 200.289062 L 197.554688 209.152344 L 198.996094 212.238281 L 202.875 232.625 L 204.8125 234.6875 L 206.484375 227.363281 L 207.269531 227.203125 L 221.414062 224.265625 L 225.539062 237.398438 C 227.453125 234.195312 226.859375 230.085938 224.117188 227.558594 C 223.835938 227.304688 223.601562 227.054688 223.605469 226.820312 C 223.839844 212.640625 222.976562 186.75 215.164062 176.09375 C 212.683594 172.710938 211.195312 169.34375 209.03125 166.988281 C 209.023438 166.984375 209.023438 166.976562 209.019531 166.976562 L 203.746094 158.324219 L 203.425781 157.792969 L 203.0625 157.609375 Z M 193.421875 200.289062 "/>
<path style=" stroke:none;fill-rule:nonzero;fill:rgb(100%,71.372549%,71.372549%);fill-opacity:1;" d="M 187.824219 116.785156 C 187.824219 127.539062 179.128906 136.257812 168.402344 136.257812 C 157.679688 136.257812 148.984375 127.539062 148.984375 116.785156 C 148.984375 106.027344 157.679688 97.308594 168.402344 97.308594 C 179.128906 97.308594 187.824219 106.027344 187.824219 116.785156 Z M 187.824219 116.785156 "/>
<path style=" stroke:none;fill-rule:nonzero;fill:rgb(18.431373%,18.039216%,25.490196%);fill-opacity:1;" d="M 194.652344 103.179688 C 194.347656 102.855469 193.925781 102.667969 193.480469 102.660156 L 193.773438 101.847656 C 193.964844 101.324219 193.863281 100.742188 193.507812 100.316406 C 193.148438 99.890625 192.589844 99.691406 192.046875 99.792969 L 190.984375 100 L 191.082031 99.285156 C 191.160156 98.746094 190.949219 98.207031 190.527344 97.863281 C 190.101562 97.519531 189.53125 97.425781 189.019531 97.617188 C 188.558594 97.796875 188.039062 97.761719 187.609375 97.515625 C 187.175781 97.277344 186.871094 96.859375 186.773438 96.375 L 186.402344 94.582031 L 186.363281 94.488281 C 184.558594 91.472656 181.089844 89.277344 176.84375 88.472656 C 173.066406 87.753906 169.191406 88.121094 165.457031 88.464844 C 163.972656 88.605469 162.300781 88.761719 160.90625 89.617188 C 159.71875 90.351562 158.71875 91.820312 158.921875 93.304688 C 155.238281 92.171875 151.292969 94.429688 149.335938 97.28125 C 147.015625 100.671875 146.636719 104.917969 146.574219 108.242188 C 146.410156 116.101562 148.027344 122.527344 151.371094 127.355469 C 151.613281 127.703125 151.675781 128.433594 152.160156 128.679688 L 152.058594 128.515625 C 152.597656 128.789062 153.148438 129.226562 152.941406 129.691406 C 152.355469 131.039062 156.265625 134.015625 159.019531 135 C 164.042969 136.792969 170.726562 136.640625 175.421875 135.996094 L 175.589844 134.878906 C 177.285156 134.648438 178.480469 134.207031 178.8125 133.515625 C 179.40625 133.011719 179.914062 132.554688 180.351562 132.136719 L 180.355469 132.132812 C 180.367188 132.121094 180.382812 132.109375 180.390625 132.101562 C 182.515625 130.058594 183.007812 128.898438 183.230469 127.128906 C 183.441406 125.390625 183.0625 123.628906 182.675781 122.042969 C 190.84375 123.3125 179.460938 113.320312 187.070312 111.386719 C 187.15625 111.363281 187.246094 111.339844 187.335938 111.324219 C 187.558594 111.269531 187.78125 111.21875 187.992188 111.15625 C 189.023438 110.875 190.007812 110.453125 190.921875 109.902344 C 193.046875 108.605469 193.75 106.882812 194.847656 104.941406 C 195.171875 104.375 195.09375 103.660156 194.652344 103.179688 Z M 194.652344 103.179688 "/>
<path style=" stroke:none;fill-rule:nonzero;fill:rgb(18.431373%,18.039216%,25.490196%);fill-opacity:1;" d="M 237.089844 201.675781 C 237.085938 202.441406 237.078125 203.511719 237.042969 204.835938 C 237.035156 205.019531 237.03125 205.207031 237.027344 205.402344 C 236.972656 207.835938 236.914062 209.875 236.824219 212.144531 C 236.820312 212.300781 236.816406 212.453125 236.804688 212.613281 C 236.683594 215.777344 236.492188 219.460938 236.160156 225.296875 C 235.546875 236.074219 234.472656 226.777344 233.398438 230.558594 C 233.34375 230.746094 233.289062 230.96875 233.238281 231.230469 C 233.074219 232.183594 232.796875 233.109375 232.417969 233.996094 C 231.847656 234.339844 231.257812 234.667969 230.679688 234.996094 C 229.027344 235.917969 227.347656 236.804688 225.65625 237.648438 C 224.707031 238.121094 223.753906 238.582031 222.792969 239.027344 C 222.640625 239.097656 222.492188 239.167969 222.34375 239.234375 C 217.433594 241.511719 212.375 243.449219 207.199219 245.027344 C 206.1875 245.335938 205.183594 245.632812 204.164062 245.90625 C 203.097656 246.203125 202.035156 246.484375 200.957031 246.746094 C 192.949219 248.71875 184.757812 249.832031 176.511719 250.0625 C 175.402344 250.097656 174.28125 250.113281 173.15625 250.113281 C 172.597656 250.113281 172.050781 250.109375 171.492188 250.101562 C 171.324219 250.101562 171.152344 250.097656 170.980469 250.09375 C 170.488281 250.082031 169.980469 250.074219 169.464844 250.058594 C 159.519531 249.75 149.65625 248.15625 140.113281 245.328125 L 139.707031 245.207031 C 139.078125 245.015625 138.457031 244.828125 137.832031 244.628906 C 134.957031 243.714844 132.121094 242.691406 129.328125 241.558594 C 127.199219 240.699219 125.09375 239.773438 123.011719 238.789062 C 122.992188 238.78125 122.972656 238.773438 122.957031 238.761719 C 122.523438 238.5625 122.082031 238.351562 121.644531 238.136719 C 121.589844 238.105469 121.527344 238.074219 121.46875 238.042969 C 119.839844 237.25 118.234375 236.417969 116.644531 235.542969 C 115.304688 232.464844 113.421875 231.875 112.253906 229.164062 C 111.914062 228.359375 111.667969 227.515625 111.523438 226.65625 C 111.523438 226.644531 111.515625 226.636719 111.515625 226.625 C 111.640625 228.25 111 223.738281 111.511719 226.605469 C 111.507812 226.554688 111.503906 226.496094 111.5 226.433594 C 111.488281 226.273438 111.46875 226.082031 111.441406 225.84375 C 109.949219 211.203125 110.042969 194.464844 109.394531 180.671875 C 109.351562 179.78125 109.304688 178.925781 109.261719 178.109375 C 109.246094 177.839844 109.230469 177.574219 109.210938 177.3125 C 109.242188 177.230469 109.277344 177.148438 109.316406 177.070312 C 109.324219 177.046875 109.335938 177.027344 109.347656 177.003906 C 109.359375 176.976562 109.375 176.953125 109.390625 176.925781 C 109.398438 176.914062 109.414062 176.894531 109.421875 176.882812 C 109.425781 176.867188 109.433594 176.851562 109.441406 176.839844 C 109.480469 176.777344 109.527344 176.710938 109.574219 176.652344 C 109.59375 176.625 109.613281 176.601562 109.632812 176.582031 C 109.648438 176.558594 109.667969 176.539062 109.6875 176.519531 C 109.699219 176.5 109.714844 176.480469 109.734375 176.460938 C 109.753906 176.445312 109.769531 176.421875 109.792969 176.402344 C 109.800781 176.386719 109.8125 176.375 109.828125 176.367188 C 109.859375 176.328125 109.898438 176.289062 109.941406 176.257812 C 110.09375 176.113281 110.261719 175.980469 110.4375 175.863281 C 110.496094 175.824219 110.5625 175.785156 110.625 175.742188 C 111.0625 175.476562 111.527344 175.253906 112.003906 175.078125 C 112.171875 175.015625 112.335938 174.960938 112.515625 174.898438 C 112.582031 174.878906 112.640625 174.859375 112.707031 174.835938 C 112.804688 174.804688 112.898438 174.777344 113 174.753906 C 113.496094 174.605469 114.03125 174.476562 114.613281 174.359375 C 114.679688 174.347656 114.753906 174.335938 114.828125 174.316406 C 114.933594 174.296875 115.042969 174.277344 115.152344 174.261719 C 115.300781 174.234375 115.453125 174.207031 115.605469 174.179688 C 116.898438 173.976562 118.367188 173.824219 119.988281 173.722656 C 120.140625 173.714844 120.296875 173.703125 120.449219 173.695312 C 120.625 173.6875 120.804688 173.679688 120.988281 173.671875 C 121.140625 173.660156 121.296875 173.65625 121.453125 173.652344 C 121.605469 173.644531 121.765625 173.640625 121.925781 173.636719 C 122.367188 173.621094 122.820312 173.609375 123.28125 173.601562 C 124.597656 173.574219 125.984375 173.582031 127.4375 173.613281 C 128.113281 173.628906 128.800781 173.648438 129.507812 173.679688 C 129.554688 173.679688 129.601562 173.683594 129.644531 173.683594 C 130.257812 173.703125 130.878906 173.730469 131.511719 173.765625 C 131.957031 173.789062 132.40625 173.808594 132.855469 173.835938 C 133.277344 173.863281 133.707031 173.886719 134.136719 173.917969 C 134.472656 173.9375 134.808594 173.960938 135.148438 173.984375 C 135.4375 174.007812 135.722656 174.027344 136.011719 174.046875 L 136.402344 174.070312 C 136.617188 174.089844 136.832031 174.101562 137.046875 174.125 C 137.527344 174.164062 138.007812 174.203125 138.496094 174.242188 C 138.980469 174.285156 139.472656 174.328125 139.964844 174.375 C 140.457031 174.417969 140.953125 174.464844 141.449219 174.511719 C 141.503906 174.519531 141.550781 174.523438 141.597656 174.527344 C 142.050781 174.574219 142.503906 174.617188 142.960938 174.667969 C 143.066406 174.675781 143.175781 174.683594 143.28125 174.695312 C 143.71875 174.742188 144.160156 174.792969 144.601562 174.839844 C 144.738281 174.855469 144.871094 174.867188 145.007812 174.882812 C 145.351562 174.921875 145.691406 174.953125 146.039062 174.996094 C 146.496094 175.046875 146.964844 175.09375 147.417969 175.15625 C 147.769531 175.195312 148.121094 175.234375 148.476562 175.277344 C 149.03125 175.34375 149.589844 175.414062 150.152344 175.488281 C 150.367188 175.515625 150.582031 175.539062 150.792969 175.570312 C 152.398438 175.773438 154.019531 175.996094 155.667969 176.226562 C 158.164062 176.582031 160.699219 176.964844 163.253906 177.378906 C 165.8125 177.796875 168.386719 178.234375 170.972656 178.695312 C 171.628906 178.8125 172.28125 178.933594 172.9375 179.054688 C 173.234375 179.113281 173.53125 179.167969 173.828125 179.226562 C 174.332031 179.316406 174.839844 179.414062 175.34375 179.507812 C 175.851562 179.605469 176.355469 179.703125 176.863281 179.800781 C 177.464844 179.917969 178.070312 180.039062 178.671875 180.15625 C 182.632812 180.941406 186.570312 181.78125 190.417969 182.660156 C 191.046875 182.804688 191.679688 182.953125 192.308594 183.097656 C 193.5625 183.390625 194.804688 183.6875 196.039062 183.988281 C 196.378906 184.066406 196.714844 184.152344 197.050781 184.234375 C 197.886719 184.445312 198.722656 184.652344 199.546875 184.867188 L 199.691406 184.90625 C 200.296875 185.054688 200.890625 185.207031 201.480469 185.367188 C 202.882812 185.734375 204.257812 186.105469 205.609375 186.480469 C 206.507812 186.730469 207.394531 186.980469 208.273438 187.238281 C 209.582031 187.617188 210.871094 188 212.121094 188.390625 C 212.429688 188.488281 212.738281 188.582031 213.042969 188.675781 C 213.960938 188.957031 214.863281 189.246094 215.738281 189.535156 C 216.433594 189.761719 217.113281 189.996094 217.785156 190.226562 C 218.457031 190.457031 219.117188 190.6875 219.761719 190.921875 C 220.175781 191.070312 220.585938 191.226562 220.992188 191.375 C 221.582031 191.59375 222.160156 191.8125 222.730469 192.03125 C 222.902344 192.097656 223.074219 192.167969 223.242188 192.230469 C 223.351562 192.28125 223.457031 192.320312 223.5625 192.363281 C 223.765625 192.445312 223.976562 192.523438 224.175781 192.609375 C 224.378906 192.6875 224.582031 192.769531 224.78125 192.855469 C 224.976562 192.9375 225.179688 193.019531 225.371094 193.101562 C 225.566406 193.179688 225.757812 193.261719 225.949219 193.351562 C 226.109375 193.417969 226.269531 193.488281 226.421875 193.554688 C 226.730469 193.691406 227.039062 193.828125 227.339844 193.96875 C 227.488281 194.035156 227.636719 194.101562 227.785156 194.171875 L 228.125 194.328125 C 228.171875 194.355469 228.21875 194.378906 228.269531 194.398438 C 228.378906 194.453125 228.492188 194.507812 228.597656 194.5625 C 228.851562 194.679688 229.101562 194.804688 229.34375 194.925781 C 229.671875 195.089844 229.988281 195.257812 230.292969 195.417969 C 230.605469 195.585938 230.90625 195.75 231.191406 195.910156 C 231.242188 195.9375 231.285156 195.964844 231.332031 195.992188 C 231.398438 196.027344 231.460938 196.066406 231.527344 196.101562 C 231.75 196.226562 231.964844 196.359375 232.175781 196.484375 C 232.597656 196.742188 232.992188 196.996094 233.363281 197.25 C 233.445312 197.304688 233.523438 197.363281 233.605469 197.414062 C 233.882812 197.613281 234.144531 197.804688 234.386719 198 C 234.386719 198.003906 234.386719 198.003906 234.390625 198.003906 C 234.472656 198.066406 234.554688 198.132812 234.632812 198.195312 C 234.695312 198.253906 234.765625 198.308594 234.832031 198.367188 C 235.058594 198.566406 235.265625 198.753906 235.460938 198.945312 C 235.523438 199.003906 235.585938 199.066406 235.640625 199.132812 C 235.667969 199.152344 235.691406 199.175781 235.710938 199.203125 C 235.800781 199.289062 235.878906 199.378906 235.953125 199.464844 C 235.964844 199.476562 235.972656 199.492188 235.980469 199.503906 C 236.085938 199.628906 236.183594 199.75 236.273438 199.871094 C 236.316406 199.933594 236.367188 199.996094 236.40625 200.054688 C 236.457031 200.128906 236.507812 200.207031 236.554688 200.28125 C 236.59375 200.34375 236.628906 200.410156 236.664062 200.46875 C 236.753906 200.628906 236.832031 200.792969 236.898438 200.964844 C 236.945312 201.082031 236.984375 201.199219 237.015625 201.324219 C 237.046875 201.4375 237.074219 201.558594 237.089844 201.675781 Z M 237.089844 201.675781 "/>
<use xlink:href="#surface5" mask="url(#mask0)"/>
</g>
</svg>
