<?xml version="1.0" encoding="UTF-8"?>
<svg xmlns="http://www.w3.org/2000/svg" xmlns:xlink="http://www.w3.org/1999/xlink" width="30px" height="30px" viewBox="0 0 30 30" version="1.1">
<g id="surface1">
<path style=" stroke:none;fill-rule:nonzero;fill:rgb(100%,100%,100%);fill-opacity:1;" d="M 17.652344 15 L 29.449219 3.203125 C 30.183594 2.46875 30.183594 1.28125 29.449219 0.550781 C 28.71875 -0.183594 27.53125 -0.183594 26.796875 0.550781 L 15 12.347656 L 3.203125 0.550781 C 2.46875 -0.183594 1.28125 -0.183594 0.550781 0.550781 C -0.183594 1.28125 -0.183594 2.46875 0.550781 3.203125 L 12.347656 15 L 0.550781 26.796875 C -0.183594 27.53125 -0.183594 28.71875 0.550781 29.449219 C 1.28125 30.183594 2.46875 30.183594 3.203125 29.449219 L 15 17.652344 L 26.796875 29.449219 C 27.53125 30.183594 28.71875 30.183594 29.449219 29.449219 C 30.183594 28.71875 30.183594 27.53125 29.449219 26.796875 Z M 17.652344 15 "/>
</g>
</svg>
